<?xml version="1.0" encoding="utf-8"?>
<!-- Generator: Adobe Illustrator 21.0.2, SVG Export Plug-In . SVG Version: 6.00 Build 0)  -->
<!DOCTYPE svg PUBLIC "-//W3C//DTD SVG 1.1//EN" "http://www.w3.org/Graphics/SVG/1.1/DTD/svg11.dtd">
<svg version="1.1" id="Layer_1" xmlns="http://www.w3.org/2000/svg" xmlns:xlink="http://www.w3.org/1999/xlink" x="0px" y="0px"
	 viewBox="0 0 482 560.2" enable-background="new 0 0 482 560.2" xml:space="preserve">
<g>
	<path d="M308.6,243.6c5.7,30.3,24.1,53.6,49.1,72.6c0.2-0.8,0.1-1.5-0.2-2c-3.3-5.4-6.3-11.1-10.1-16.1c-6-7.9-13.2-15-18.9-23.1
		C321.2,264.6,314.8,253.4,308.6,243.6z"/>
	<path d="M303.7,217.4c3.4,15.4,8.8,30,18.1,42.9c9.1,12.5,18.6,24.8,27.9,37.2c0.5-0.3,0.9-0.6,1.4-0.9c-3.3-5.7-6.4-11.5-10-17
		c-5.3-8.2-11-16-16.3-24.2c-4-6.1-7.7-12.5-11.2-18.8C310.1,230.3,307,223.8,303.7,217.4z"/>
	<path d="M339.6,270.5c-5.3-11.8-10.6-23.6-15.9-35.4c-5.3-11.6-19.4-26.4-24.8-30.1C313,227.1,322.6,251.1,339.6,270.5z"/>
	<path d="M313.3,214.3c-0.2,0.2-0.4,0.3-0.6,0.5c0.1,0.2,0.2,0.5,0.4,0.7c6.6,6.3,10.7,14.2,14.5,22.3c3.2,6.7,5.8,13.6,8.9,20.3
		c3.3,7.3,6.8,14.4,10.2,21.7c0.4,0.8,0.9,1.6,1.3,2.3c-1.5-7-3.7-13.7-5.9-20.4c-1-2.8-2-5.6-3-8.5c-1.3-3.7-2.2-7.7-4-11.2
		c-2.3-4.4-4.9-8.8-8.1-12.7C322.9,224.1,318,219.3,313.3,214.3z"/>
</g>
<g>
	<path d="M310.4,121.7c0,0.2,0.1,0.6,0.2,1c2.2,6.9,5.9,13,10.1,18.8c10.7,14.7,21.6,29.4,32.3,44.1c5.1,7.1,10.9,13.8,13.4,22.4
		c0.2,0.8,0.8,1.5,1.2,2.3c0.4-0.7,0.4-1.1,0.3-1.6c-2.4-15.6-10.3-28.6-19.9-40.7c-7.8-9.8-16.1-19.1-24-28.7
		C319.4,133.6,315,127.6,310.4,121.7z"/>
	<path d="M357.9,197.3c-3-4.4-6-8.9-9.2-13.3c-9.5-13-19.2-25.8-28.7-38.8c-2.6-3.6-5.3-7.2-7.2-11.2c-2.8-5.8-5-11.9-7.8-18.8
		c0.9,6.8,0.2,13.6,2.8,18.6c4.5,8.5,7.8,17.9,14.8,25.1c4.9,5,8.9,10.9,13.5,16.3c3.6,4.2,7.3,8.3,11.2,12.3
		c3.8,3.8,7.8,7.4,11.7,11.1"/>
	<path d="M369.2,192c-1.5-5.9-2.9-11.6-4.3-17.3c-1.8-7.6-5.1-14.5-10.4-20.2c-3.8-4.2-8-8.1-12.1-12.1c-3.8-3.7-7.7-7.2-11.3-11.1
		c-3.5-3.7-6.9-7.6-10.2-11.5c-2.3-2.7-4.3-5.7-6.5-8.5c1.6,3.8,3.6,7.4,6,10.6c5.4,7,11.1,13.8,16.6,20.7c6.7,8.5,14,16.7,20,25.7
		C361.8,175.4,365,183.7,369.2,192z"/>
	<path d="M364,188.3c0.2-0.1,0.3-0.2,0.5-0.3c-0.9-1.8-1.7-3.7-2.7-5.4c-4.8-8-9.2-16.3-14.5-23.9c-4.6-6.6-9.9-12.6-15.4-18.5
		c-8.9-9.6-16.5-20-22.3-31.7c-1.4-2.8-2.3-5.9-3.4-8.8c-0.6,7.7,2.3,14.6,6.6,20.6c5.9,8.2,12.4,15.9,18.7,23.8
		c3.7,4.6,7.5,9.1,11.1,13.7c4.7,6,9.5,11.9,13.9,18.2C359.5,179.8,361.6,184.2,364,188.3z"/>
	<path d="M367.6,174.3c-0.5-7.2-2.1-14.2-6-20.1c-3.9-5.9-8.8-11.4-13.9-16.2c-6.2-5.9-13.2-10.9-19.8-16.4
		c-2.3-1.9-4.4-3.9-6.6-5.9c3,4.4,6.2,8.5,9.9,12.2c7.6,7.6,15.6,14.8,23.1,22.6C360.7,157.1,365.2,165.1,367.6,174.3z"/>
</g>
<g>
	<path d="M145.5,147.2c-8.5,3.3-16.9,6.6-25.5,9.8c-9.8,3.6-19.2,8.5-30,8.3c-8.1-0.1-16.2-0.2-23.3-5.1c-1.9-1.3-3.8-2.6-5.8-3.8
		c-0.2,0.3-0.3,0.5-0.5,0.8c2.2,1.3,4.3,2.6,6.4,4c11.3,7.5,23.8,8.5,36.5,6c5.8-1.1,11.3-4,16.7-6.6c8.7-4.1,17.1-8.7,25.6-13
		c2.1-0.9,4.2-1.9,6.2-2.8c-0.1-0.2-0.2-0.4-0.3-0.7C149.5,145,147.5,146.1,145.5,147.2z"/>
	<path d="M166.7,142c-7.6,5-14.8,9.1-21.3,14.1c-9.5,7.4-19.6,13.4-31,17.5c-13.7,4.9-27.2,5.4-41.8,0.4c2.2,1.8,3.6,3.5,5.4,4.1
		c5.4,1.8,10.8,3.8,16.3,4.5c5.1,0.7,10.6,0.8,15.6-0.3c10.6-2.3,19.7-7.8,28.6-14c6.8-4.8,13-9.8,18.3-16.2
		C159.6,148.7,163,145.7,166.7,142z"/>
	<path d="M154.7,146.2c0-0.1-0.1-0.2-0.1-0.4c-4.2,2.1-8.6,4-12.7,6.3c-4.2,2.3-7.9,5.5-12.3,7.3c-5.8,2.4-11.6,4.7-17.2,7.5
		c-6.9,3.5-14.8,3.7-22.5,3.5c-8.4-0.2-16.3-2.8-24.1-6.3c0.5,1,1.1,2,1.9,2.7c6.3,5.8,14,7.8,22.3,8.1c13.7,0.4,26.4-4,38-10.7
		C137.3,159.1,145.8,152.4,154.7,146.2z"/>
	<path d="M138.6,141.9c-0.1-0.5-0.3-1-0.4-1.5c-6,1.2-12.1,2.1-18,3.8c-10,2.9-19.7,6.8-29.8,9.2c-6.5,1.6-13.4,1.3-20.1,1.8
		c1.6,0.1,3.2,0.9,5,1.5c12.2,4.3,23.4-0.1,34.5-4c6.4-2.3,12.6-5.2,18.9-7.6C131.9,143.7,135.3,142.9,138.6,141.9z"/>
	<path d="M148.7,143.1c-0.1-0.4-0.2-0.8-0.3-1.2c-0.7,0-1.5-0.2-2.2,0c-5.9,1.7-11.8,3.1-17.6,5.2c-9.7,3.5-19.1,7.5-28.8,11.1
		c-9.2,3.4-18.5,3.8-27.8-0.1c-3-1.3-6.1-2.5-9.1-3.8c0.6,1,1.4,1.6,2.3,2c3.2,1.7,6.3,4.3,9.7,5c10,1.8,19.9,2.4,29.8-1.6
		C119.3,153.7,134.1,148.5,148.7,143.1z"/>
</g>
<g>
	<path d="M266,352.2c-1-0.4-2.2-0.6-3-1.3c-4-3.4-9.1-6.2-11.7-10.5c-4.9-8-7.9-17.1-12.4-25.4c-3.8-7.2-8.3-14-12.7-20.8
		c-2.2-3.4-4.9-6.4-7.3-9.5c1.8,4.4,4.5,8.3,6.4,12.5c4.5,10,8.5,20.1,12.9,30.1c1.9,4.3,3.9,8.6,6.6,12.4
		C249.9,346.9,257.6,350.1,266,352.2z"/>
	<path d="M209,279.1c-0.3,0.2-0.6,0.3-0.9,0.5c1.6,5.1,3.1,10.2,4.7,15.3c1.7,5.5,2.9,11.3,5,16.6c2.7,6.8,6,13.4,9.3,20
		c2.6,5.3,6.6,9.4,11.4,12.9c-2.9-5.3-6-10.2-8.5-15.5c-3-6.2-5.6-12.6-8.1-19c-2.4-6.2-4.3-12.6-6.8-18.7
		C213.4,287,211,283.1,209,279.1z"/>
	<path d="M250.1,350c0.3-0.3,0.5-0.6,0.8-1c-0.8-0.6-1.7-1.1-2.4-1.8c-6.3-6.4-10.3-14.4-14-22.4c-3.7-8-6.7-16.4-10.2-24.5
		c-1.7-3.9-4-7.4-6.1-11.1c0.7,3.8,2.2,7.2,3.2,10.7c4.1,14.4,9.8,28.1,18.1,40.5C242.1,344.2,246.5,346.8,250.1,350z"/>
</g>
<g>
	<path d="M444.1,402.3c0.4-0.1,0.7-0.3,1.1-0.4c-0.7-2.3-1.3-4.7-2.1-7c-2.3-6.6-4.9-13.1-6.9-19.8c-1.6-5.3-5-9.1-9.1-12.4
		c-8.3-6.7-19.2-6.5-28.6-10.2c3.4,2,7.1,3.4,10.6,5.2c5.5,2.9,11.3,5.5,16.1,9.3c6.4,5,8,13.3,11.9,20
		C439.7,392,441.7,397.2,444.1,402.3z"/>
	<path d="M434.5,353.6c0.7,0.4,1.5,0.7,2.1,1.2c4,3.1,8.5,5.8,11.9,9.5c4.5,4.7,7,10.8,7.3,17.4c0.6,11.1,0.9,22.2,1.2,32.9
		c0.2-0.6,0.9-1.8,1-3.1c0.8-8.2,1.9-16.4,2.1-24.5c0.2-5-0.1-10.4-1.7-15C454.7,360.9,445.2,356.3,434.5,353.6z"/>
	<path d="M452.5,414c0.4-0.1,0.9-0.1,1.3-0.2c0-3.3,0-6.6,0-10c0-2.3,0-4.5-0.1-6.8c-0.3-8.8,0.2-17.5-3.8-25.9
		c-3.6-7.6-10-11.5-16.8-15.2c1.3,1.4,2.8,2.6,4.1,4c9.5,10.7,12.4,23.7,13.1,37.5C450.6,403,451.8,408.5,452.5,414z"/>
	<path d="M447.1,399.2c0.2-0.1,0.3-0.1,0.5-0.2c-0.2-1.8-0.4-3.7-0.5-5.5c-0.4-13.9-4.7-26-15.9-35c-4.3-3.4-14.4-6.3-19.5-5.3
		c2.8,1,5.9,2,8.9,3.2c9,3.5,15.3,9.9,18.5,19C442,383.2,444.5,391.2,447.1,399.2z"/>
	<path d="M452,357.6c2.1,2.6,4.1,5.3,6.3,7.9c3.2,3.8,3.9,8.3,3.9,13c0,6.7,0.1,13.4-0.4,20.1c-0.5,6.6-1.7,13.2-2.6,20.1
		c0.4-0.5,0.6-0.7,0.6-0.9c1.8-7.6,3.9-15.1,5.4-22.7c0.8-3.8,1.1-7.7,1-11.6c-0.1-3.9-0.9-7.7-1.4-11.6
		C464.2,367.3,456.4,358.6,452,357.6z"/>
	<path d="M435,389.9c0.1-0.1,0.2-0.1,0.4-0.2c-2.2-4.5-4.6-8.9-6.7-13.5c-2.2-4.8-5.7-8.4-10.3-10.7c-9.5-4.7-19-9.2-28.2-13.6
		c2.3,1.7,4.8,4.2,7.8,5.5c11.2,5,20.6,12.1,28.2,21.8C428.9,382.9,432,386.3,435,389.9z"/>
</g>
<g>
	<path d="M364,211.1c0.1,0.4,0.2,0.7,0.4,1.1c3.6,10.1,5,20.4,4.1,31.1c-0.5,5.4-0.8,10.8-1.6,16.1c-1.1,7.2-2.7,14.3-3.7,21.4
		c-0.8,5.7-1.1,11.4-1.6,17.1c1-0.7,1.4-1.5,1.7-2.4c1.9-7.1,3.6-14.2,5.6-21.2c1.1-4,3.1-7.8,3.4-11.9c0.8-9.5,2.4-19.1,0.1-28.7
		C370.4,225.9,368.7,218,364,211.1z"/>
	<path d="M345.6,188.8c-0.2,0.2-0.4,0.4-0.7,0.6c3.8,7,8.3,13.8,11.4,21.1c2.8,6.7,4.9,14,5.8,21.2c0.9,8,0.3,16.2,0,24.3
		c-0.3,5.5-1.4,10.9-1.9,16.3c-0.7,6.3-1.3,12.6-1.7,18.9c-0.2,4,0,8.1,0,12.1c0.8-4.2,0.8-8.4,1.2-12.5c1.1-9.4,2.1-18.9,3.8-28.3
		c2-11.1,2.7-22.3,2.2-33.5c-0.2-3.5-0.8-7.1-2-10.3c-2.1-5.7-4.4-11.4-7.5-16.6C353.1,197.3,349.1,193.2,345.6,188.8z"/>
	<path d="M352.5,286.6c0.3,0,0.7-0.1,1-0.1c0-0.6,0-1.3,0-1.9c-0.1-7.4-0.4-14.8-0.2-22.2c0.2-9.3,1-18.6,1.2-27.9
		c0.2-7.6-1.5-15-4.3-22.1c-0.8-2.2-1.7-4.3-2.6-6.5c-0.1,2.6,0.5,4.9,0.6,7.2c0.5,9.3,0.9,18.5,1.3,27.8
		c0.4,11.1,0.7,22.1,1.2,33.2C351,278.2,351.9,282.4,352.5,286.6z"/>
	<path d="M330.3,179.1c-0.1,0.1-0.2,0.1-0.4,0.2c1.7,7,3.7,14,4.9,21c2.2,12.8-0.6,26.2,3.4,38.9c1.8,5.7,3.3,11.4,4.9,17.2
		c0.3-4.2-0.1-8.2-0.6-12.2c-0.6-5.4-1.6-10.7-1.6-16.1c0.2-9.8-1.4-19.3-3.8-28.7c-0.7-2.6-1.2-5.3-2.1-7.8
		C333.7,187.4,331.9,183.3,330.3,179.1z"/>
	<path d="M350.4,202.8c-0.4,0.2-0.7,0.3-1.1,0.5c0.1,0.4,0.3,0.8,0.4,1.1c5.5,11.1,8.1,22.8,7.5,35.2c-0.7,12.1-1,24.3-1.4,36.4
		c-0.1,2.4,0,4.8,0,7.2c1.4-6.9,2.5-13.7,3.1-20.6c0.7-8.2,1.6-16.5,1.3-24.7c-0.2-6.4-1.5-12.8-3.2-19
		C355.4,213.4,352.6,208.2,350.4,202.8z"/>
	<path d="M346.9,257.6c0-5.4,0.3-13.2-0.1-21c-0.5-9.8-1.1-19.7-2.5-29.4c-0.7-5.2-3.2-10.2-4.9-15.4c-0.4,0.1-0.8,0.2-1.2,0.3
		C345.5,214.2,343.2,237.6,346.9,257.6z"/>
</g>
<g>
	<path d="M321.2,317.8c1,1.3,1.4,2.1,2.1,2.7c7,6.7,15.2,11.3,24.2,14.8c5,1.9,10.3,3.4,15.2,5.5c5.8,2.5,11.3,5.5,16.9,8.3
		c-0.2-0.9-0.7-1.4-1.3-1.8c-4.5-3.3-8.8-6.9-13.6-9.7c-7.2-4.1-14.7-7.8-22.2-11.2c-6.2-2.8-12.6-5.1-18.9-7.7
		C323.1,318.5,322.5,318.3,321.2,317.8z"/>
	<path d="M325.7,326.8c7.4,7,14.4,13.5,23.4,17.1c9,3.6,18.3,6.5,27.4,9.8c3.8,1.4,7.5,3.1,11.2,4.7c0-0.9-0.3-1.4-0.7-1.6
		c-7.7-4.2-15.3-8.7-23.3-12.5c-7.4-3.4-15.3-5.7-22.8-9.1C335.9,333,331.2,329.9,325.7,326.8z"/>
	<path d="M390.7,365.7c0.1-0.3,0.2-0.6,0.3-0.9c-18.7-7.4-39.6-8.7-57.5-19.9c1.1,1.5,2,2.6,2.8,3.7c0.3,0.4,0.7,0.7,1.1,1
		c7.1,6.3,15.9,9,24.7,11C371.5,362.9,381.1,364.1,390.7,365.7z"/>
	<path d="M334.7,350.9c1,4.9,4,7.6,7.5,8.8c7.6,2.7,15.4,5,23.2,6.7c6.1,1.3,12.5,1,18.5,2.3c6.3,1.3,12.4,3.6,18.1,5.3
		c-1.6-3.2-4.9-5.3-9.2-5.9c-7.2-1-14.4-1.8-21.6-3C358.4,362.8,345.9,359.6,334.7,350.9z"/>
	<path d="M340.5,362.4c1.3,1,1.7,1.5,2.2,1.7c8.3,4.6,17.3,7.1,26.5,8.8c6.1,1.1,12.2,2.3,18.3,3.6c6.2,1.3,12.3,2.9,18.4,4.3
		c-3.5-2.5-7-5.4-11-6.5c-6.6-1.9-13.4-3.1-20.2-3.8C363.3,369.4,352.2,367.1,340.5,362.4z"/>
	<path d="M372.7,336c0.1-0.1,0.2-0.2,0.3-0.3c-1.4-1.4-2.8-2.8-4.1-4.3c-4.8-5.9-10.1-11-17.4-13.6c-8.8-3.2-17.6-6.3-26.4-9.5
		c-2.9-1-5.6-2.3-8.5-3.4c-0.2,0.4-0.3,0.7-0.5,1.1c6.9,3.2,13.7,6.9,20.8,9.4c9.1,3.3,17.7,7.5,25.6,12.9
		C366,330.7,369.3,333.4,372.7,336z"/>
	<path d="M325.8,330.6c4.6,7.1,8.7,13.4,16.2,16.1c8.2,2.9,16.4,5.4,24.7,7.9c4.2,1.3,8.6,2.3,12.9,3.4c-4.6-2.5-9.4-4.4-14.2-6
		c-11.8-3.9-23.7-7.4-33.1-16.2C330.6,334.1,328.5,332.7,325.8,330.6z"/>
	<path d="M315.5,308.9c2.5,2.3,4.3,5,6.8,6.2c7.1,3.4,14.6,6.1,21.8,9.3c6.2,2.8,12.4,5.7,18.3,9c3.9,2.1,7.5,4.9,11.2,7.3
		c-4.8-4.3-9.6-8.7-15.1-11.7c-8-4.4-16.5-7.8-24.8-11.7C327.8,314.5,322,311.8,315.5,308.9z"/>
</g>
<g>
	<path d="M47.6,73.2c-0.2,0.1-0.4,0.2-0.7,0.3c1,3.1,2,6.2,2.9,9.3c3.3,11.5,11.9,18.2,21.8,23.7c7.6,4.2,15.4,8.1,23.1,12
		c3.4,1.7,6.9,3.4,10.3,5.1c-3.3-3.2-6.7-6.1-10.4-8.7c-4.6-3.2-9.5-5.8-14.1-9c-3-2-5.8-4.3-8.4-6.8c-6-5.7-11.9-11.5-17.7-17.4
		C52,79.1,49.9,76,47.6,73.2z"/>
	<path d="M49.6,132.5c0.6,2.7,0.7,6.1,2.1,9c3.1,7,14.3,10.3,22.3,7.7c5.8-1.9,11.4-4,17.1-6.2c2.8-1.1,5.4-2.6,8.4-4.1
		c-7.9,1.6-15.4,3.3-22.9,4.6c-5.8,1-12,1.9-17.2-1.5C55.7,139.6,52.8,135.7,49.6,132.5z"/>
	<path d="M122.2,140.6c-3.6-1.2-6.7-2.2-9.8-3.2c-0.4-0.1-0.8-0.1-1.2,0.1c-3.9,1.3-7.9,2.4-11.8,3.9c-7.1,2.8-14,5.8-21,8.7
		c-1.6,0.7-3.3,1-5,1.5c8.5,0.5,16.7-0.4,24.6-3.2C106,145.6,114.1,143.3,122.2,140.6z"/>
	<path d="M92.3,120.5c0.1-0.3,0.2-0.6,0.3-0.8c-3-1.6-6-3.1-9-4.8c-7.9-4.4-16-8.4-23.4-13.5c-4.3-3-7.5-7.7-10.6-11
		c1.1,7.5,4.8,14.5,12.6,18.8c4.1,2.2,8.3,4.3,12.7,5.9C80.7,117.2,86.5,118.7,92.3,120.5z"/>
	<path d="M50.1,122.4c0.2,1.7,0.1,3.5,0.7,5.1c0.7,1.9,1.6,3.8,2.9,5.3c2.2,2.5,4.4,5.5,7.2,6.7c9.8,4.1,19.4-0.3,29.1-1.8
		C75.1,137.1,59.7,138.1,50.1,122.4z"/>
	<path d="M105.4,134.1c0-0.3,0-0.6,0-1c-5.4-0.5-10.9-1-16.3-1.6c-7.3-0.8-14.7-1-21.7-2.8c-5.8-1.5-11.5-4.4-14.7-10.3
		c2.2,6.6,6.1,12.2,12.9,13.7c7.8,1.8,15.9,2.4,23.9,2.9C94.8,135.3,100.2,134.5,105.4,134.1z"/>
	<path d="M51.2,106.1c-0.3,6.2,5.4,14.9,11.6,17.7c10.9,5.1,22.8,3.7,34.3,5.4c-4.6-1.2-9.2-2.5-13.8-3.2c-9-1.3-17.4-4.2-24.4-10.1
		C55.7,113.4,53.7,109.5,51.2,106.1z"/>
	<path d="M105.8,128.9c-0.6-0.5-0.8-0.7-1-0.8c-6.6-2.1-13.3-4.2-19.8-6.4c-10-3.3-19.9-6.8-28.7-12.9c1.5,2.2,2.8,4.8,4.9,6.2
		c6.2,4.1,12.7,7.6,20.4,8.4c3.3,0.4,6.6,1.3,9.9,2.1C96.1,126.6,100.7,127.7,105.8,128.9z"/>
</g>
<g>
	<path d="M344.9,469.1c-3.3-1.3-6.7-2.9-10.2-3.9c-8.9-2.4-18.1-2.3-27.1-1.1c-8.1,1.1-16.1,3.3-24.2,4.9c-5.6,1.1-11.2,2-16.9,3.1
		c3,0.9,5.9,1.7,8.7,1.4c14.1-1.2,28.1-2.7,42.2-4.1c3.9-0.4,7.9-1.1,11.8-1.1C334.5,468.3,339.7,468.8,344.9,469.1z"/>
	<path d="M341.2,457.1c-11.4-5.9-49-0.2-60.6,8.9c10-2.1,20-4.4,30.1-6.1C320.6,458.2,330.5,455.6,341.2,457.1z"/>
	<path d="M350.2,476.9c0-0.1,0.1-0.3,0.1-0.4c-16.4,0.5-32.8,0.9-47.4,1.4c5,0.9,11.7,2.9,18.5,3.2c4.9,0.3,9.4,4,14.9,0.5
		C340.4,479,345.6,478.4,350.2,476.9z"/>
	<path d="M351.7,473.7c-18.3-6-36-1.1-53.7,1.3C315.7,474.6,333.5,474.2,351.7,473.7z"/>
</g>
<g>
	<path d="M288.7,193.4c-0.1,1.1-0.1,1.7-0.2,2.3c-0.1,5.5,0.2,11.1-0.4,16.5c-1.1,10.3-2.9,20.6,1.4,30.7c1.7,4,3.3,7.9,5,11.9
		c-0.3-3.1-1.3-6-1.9-8.9c-1-5.8-2.3-11.6-2.4-17.5c-0.1-5.5,1.1-11.1,1.9-16.7C293.1,205.4,292.7,199.4,288.7,193.4z"/>
	<path d="M298.9,217.9c0.3,18,1,35.8,6.7,53.7C304,253.2,305.9,235.1,298.9,217.9z"/>
	<path d="M286.7,194.8c-0.4,0-0.8,0-1.2-0.1c-0.3,2.1-0.5,4.2-1,6.2c-3,12.5-6.2,25-1.1,37.7c1.7,4.3,3.8,8.4,5.9,13
		c0.5-0.8,0.6-0.9,0.6-0.9c-0.1-0.3-0.2-0.6-0.3-0.9c-5-10.3-6.2-20.9-4.4-32.2C286.3,210.1,286.2,202.4,286.7,194.8z"/>
	<path d="M298.8,257.8c-1.1-15-2.3-31-3.4-46.4C289.9,227.5,293.3,243.3,298.8,257.8z"/>
</g>
<g>
	<path d="M218.2,322.2c-2.4-3.9-7.7-6.9-12.9-9.4c-12.7-6.2-22.2-15.7-30.4-26.8c-3-4.1-6.3-7.9-9.5-11.8c1.7,4.5,3.9,8.5,6.2,12.5
		c6.1,10.4,14.3,18.6,25.2,24C204.4,314.5,211.8,318.8,218.2,322.2z"/>
	<path d="M211.8,322.6c0.2-0.4,0.5-0.8,0.7-1.2c-2.8-1.5-5.7-3.1-8.5-4.6c-5.9-3.2-12-5.9-17.5-9.6c-4.1-2.8-7.8-6.5-10.8-10.5
		c-4.7-6.4-8.7-13.4-13-20.1c-1.2-1.9-2.4-3.8-3.6-5.7c0.4,3.3,1.6,6.1,2.8,8.9c5.6,13.7,14.9,24.2,27.8,31.4
		C197,315.1,204.5,318.7,211.8,322.6z"/>
	<path d="M172,270.5c-0.2,0.4-0.4,0.7-0.7,1.1c1.9,1.4,4,2.5,5.5,4.2c6.7,7.8,13,15.9,19.8,23.6c3.8,4.4,8.2,8.2,12.4,12.3
		c0.2-0.2,0.5-0.5,0.7-0.7c-2.1-2.8-4-5.6-6.2-8.2c-7-8.5-13.8-17.2-21.2-25.4C179.8,274.3,175.6,272.7,172,270.5z"/>
	<path d="M212.7,310.8c-5.4-14.7-11.9-28.4-27.6-35.5C194.5,287.3,203.6,299,212.7,310.8z"/>
	<path d="M166,271.4c11.1,12.4,19,27,33.8,35.1C187.7,295.8,181.9,279.2,166,271.4z"/>
	<path d="M211.3,297.9c-0.6-1.9-1.3-3.7-1.9-5.6c-0.6-2-1.1-4.1-2-6c-1.3-3-2.2-7.2-4.6-8.5c-4.9-2.7-10.8-3.8-16.2-5.5
		c-0.1,0.4-0.3,0.7-0.4,1.1C198.3,277.8,205.2,287.3,211.3,297.9z"/>
</g>
<g>
	<path d="M359.8,460.7c16.9,12.4,36.9,16.1,57,21.3C404.7,472.8,374.6,461.7,359.8,460.7z"/>
	<path d="M407.4,488.2c14.3,8.6,34.9,12.9,49.4,9.2C439.3,494.2,422.7,491.1,407.4,488.2z"/>
	<path d="M382.8,475.2c10.1,5.5,43.8,16.7,50.7,13.8C416.6,484.4,399.7,479.8,382.8,475.2z"/>
	<path d="M417.3,477.9c-13.5-11-28.4-18.6-46.4-18.2C387.7,462.6,402.4,470.6,417.3,477.9z"/>
</g>
<g>
	<path d="M283.2,483.6c4.4,3.5,8.8,6.9,13.2,10.4c2,1.6,3.5,3.9,5.7,4.9c8.9,4.2,17.6,8.9,27.7,9.7c5.1,0.4,10.1,0.9,15.2,1.3
		C322.4,505.7,302.8,494.7,283.2,483.6z"/>
	<path d="M291.9,482c16.7,6.7,33.4,13.3,50.2,20c0.1-0.3,0.2-0.6,0.3-0.9C327.3,490.2,310.8,483,291.9,482z"/>
	<path d="M351.1,509.1c0.1-0.4,0.3-0.7,0.4-1.1c-18.1-7-36.2-13.9-54.4-20.9c4.9,3.3,9.6,7,15,9C325,500.9,338.1,504.9,351.1,509.1z
		"/>
	<path d="M312.5,482.4c14,6.6,29.4,11.1,41.1,22.6c-0.7-1.6-1.5-3.1-2.7-4.1c-2.5-2-5.6-3.4-7.9-5.6c-4.8-4.4-9.3-9.1-16.1-10.3
		C322,484.1,317.1,483.3,312.5,482.4z"/>
</g>
<g>
	<path d="M44.1,130c-0.1-1.3-0.1-1.5-0.1-1.6c-4.1-9.8-8.2-19.6-12.3-29.4c-2.8-6.6-5.1-13.2-3.2-20.5c0.2-0.6,0.3-1.3,0.5-2.5
		c-7.7,11.1-4.7,26.4,1.1,35.3C34.2,117.4,39,123.2,44.1,130z"/>
	<path d="M17.3,96.7c-1.4,1.8-2.5,2.6-2.8,3.7c-2,7.1-1.7,14.2,3.8,19.6c4.4,4.3,9.7,7.7,14.8,11.3c4.3,3.1,8.8,6.1,13.2,9.1
		c-1.5-2.3-3.6-3.8-5.4-5.6c-5.9-6-11.8-12-17.6-18.1c-4.3-4.5-6.7-9.8-6-16.3C17.4,99.6,17.3,98.7,17.3,96.7z"/>
	<path d="M35.3,61.4c-4.9,7.1,2.5,39.3,12.1,48.6c-0.2-1.1-0.3-1.8-0.5-2.5c-1.9-6.6-3.9-13.2-5.6-19.9
		C39.1,78.6,37.2,69.6,35.3,61.4z"/>
	<path d="M32.1,76.5c-2.7,7.3-1.5,13.8,1.4,20.3c4.3,9.8,8.3,19.6,12.5,29.5c2.4-6,0.5-11.1-2.2-16.3c-3.5-6.9-6.8-13.9-9.6-21.1
		C32.7,85.1,32.8,80.9,32.1,76.5z"/>
	<path d="M45.7,156.9c-7.5-2.3-16.2-4.1-24.2-7.6c-8.5-3.7-13.3-11.4-15.3-20.6c-1.5,10,3.1,18.5,12.1,23.6
		C27.3,157.5,37.1,156.7,45.7,156.9z"/>
	<path d="M8.8,123c0.4,1.5,0.3,3.4,1.2,4.5c3.2,4.1,6,9.3,10.3,11.6c8.3,4.3,17.4,6.9,26.2,10.1C34.8,139.3,18.4,136.4,8.8,123z"/>
	<path d="M21.9,91.8c-2.6,7.3-4,14.7,1.2,21.1c6.3,7.7,13.3,14.7,20,22c0.4-0.3,0.7-0.6,1.1-0.9C34.6,121.1,21.8,109.9,21.9,91.8z"
		/>
	<path d="M51.4,148c0.1-0.1,0.2-0.3,0.2-0.4c-7.4-5.1-14.8-10.4-22.4-15.3c-8.1-5.2-15.8-10.5-18.1-21.2c-0.9,7.8,0.7,12.5,6.3,16.9
		c4,3.1,8.3,5.7,12.6,8.2C37,140.3,44.2,144.1,51.4,148z"/>
	<path d="M53.6,155.5c0.1-0.1,0.1-0.2,0.2-0.3c-2-0.9-3.9-2.1-6-2.7c-7.1-2.3-14.4-4.1-21.4-6.6c-2.9-1-5.6-2.8-8.1-4.7
		c-2.8-2.1-5.2-4.8-7.7-7.2c2.7,5.6,6,10.8,11.9,13.3c5,2.1,10.4,3.6,15.7,5C43.2,153.5,48.4,154.4,53.6,155.5z"/>
	<path d="M48.5,99.8c-2.9-15-5.8-30.1-8.7-45.1C38,65.2,41.3,82.4,48.5,99.8z"/>
</g>
<g>
	<path d="M254,118c3,22.9,3.2,46.3,9.8,69.1C263.8,163.4,260.4,140.5,254,118z"/>
	<path d="M265.4,116.2c-0.5,0.2-1,0.5-1.5,0.7c9.6,13.1,10.6,28.1,9.3,44.5c1.5-3.1,2.6-5.2,3.4-7.3c2-5.1,4.8-10.7,2.2-15.8
		C275.1,130.6,270,123.5,265.4,116.2z"/>
	<path d="M265.7,159.8c2.5-18.1-1.7-35-10.4-51.6C258.8,125.8,262.3,142.9,265.7,159.8z"/>
	<path d="M247,119c-0.4,0-0.8,0-1.2,0c0,5.5-0.3,11.1,0.1,16.6c0.4,5.6,1,11.3,2.2,16.8c1.2,5.4,3.2,10.7,5.1,15.9
		c1.9,5.2,4.2,10.2,6.3,15.3c0-1.6-0.3-3.1-0.7-4.5c-1.7-6-3.6-11.9-5.2-17.9c-2-7.5-4.3-14.9-5.5-22.6
		C247,132.3,247.3,125.6,247,119z"/>
	<path d="M256.1,158.6c-0.7-6-1.4-12-2.1-18c-0.7-6.1-1.5-12.2-2.2-18.3c-0.7-5.8-1.3-11.5-1.9-17.3c-0.3,0-0.6,0.1-0.9,0.1
		C247.9,124.2,250.7,147.3,256.1,158.6z"/>
	<path d="M266.5,177.1c5-17.7,7.2-35.3-0.8-51.8c1,7.9,2.8,16.6,3,25.4C268.9,159.4,267.3,168.3,266.5,177.1z"/>
</g>
<g>
	<path d="M332.5,208.8c0.2,0,0.4,0,0.6,0c-0.5-2.4-0.8-4.9-1.4-7.3c-1.6-7.2-2.7-14.7-5.2-21.6c-3.3-9-7.5-17.6-11.7-26.2
		c-4.2-8.8-8.8-17.5-13.4-26.1c-3.4-6.4-7.2-12.5-10.7-18.8c-1.1-1.9-1.8-4.1-2.6-6.1c0,2.4,0.2,4.6,0.9,6.8
		c1.6,5.2,3.5,10.3,5.1,15.5c3.7,12,10.2,22.5,16.1,33.4c5,9.3,9.9,18.6,14.2,28.2C327.6,193.7,329.9,201.3,332.5,208.8z"/>
	<path d="M327.7,209.7c0.2-0.1,0.4-0.2,0.6-0.4c-1.5-2.6-3.2-5.1-4.3-7.8c-2.8-6.4-6.2-12.3-10.9-17.5c-1.7-1.9-2.9-4.1-4.4-6.2
		c-4.3-6-8.7-11.9-12.9-18c-2.9-4-5.8-8.1-8.2-12.4c-1.7-3-2.5-6.6-3.8-9.9c0.6,3.2,1.5,6.3,2.4,9.5c3.8,13.9,11.1,25.7,20.7,36.3
		c5.5,6,10.5,12.4,15.7,18.7C324.3,204.5,325.9,207.2,327.7,209.7z"/>
	<path d="M284.5,125.2c0.9,7.4,1.4,15.1,5.4,21.5c7.2,11.4,15.2,22.3,22.9,33.3c3.5,5,7.2,9.9,10.5,15c1.5,2.2,2.3,4.8,3.5,7.3
		c-0.8-3.4-1.6-6.8-3.2-9.7c-3.7-6.5-7.7-12.8-11.7-19.2c-4.1-6.5-8.1-13-12.4-19.3C293.3,145.1,287.9,135.7,284.5,125.2z"/>
	<path d="M332.2,232.5c-1.6-8.7-2.7-9.8-9.6-16.5c-9.4-9.1-19.1-18-28.2-27.4c-3.7-3.8-6.4-8.7-9-13.4c-1.5-2.8-1.9-6.2-2.8-9.4
		c0.5,9.3,2.9,18.1,9.1,25.2c5.4,6.1,11.5,11.6,17.3,17.3c6.8,6.7,13.5,13.4,20.3,20.1C330.3,229.3,330.9,230.6,332.2,232.5z"/>
	<path d="M316,175.3c0.2-0.1,0.4-0.2,0.6-0.4c-1.7-3.4-3.2-6.8-5.1-10.1c-2.7-4.7-5.9-9-8.4-13.8c-2.9-5.4-5.6-10.9-8.1-16.5
		c-2.4-5.6-4.7-11.3-6.6-17.1c-1.8-5.7-3-11.6-4.5-17.4c0,0.2-0.2,0.6-0.2,0.9c-0.8,10.4,1.9,20.3,5.9,29.5
		c4.2,9.7,9.9,18.7,15.3,27.9C308.3,164.2,312.3,169.7,316,175.3z"/>
	<path d="M324.1,210.5c0.1-0.1,0.2-0.1,0.3-0.2c-2.1-3.2-3.8-6.6-6.2-9.5c-5.9-7-12.3-13.5-18-20.6c-6.4-8-12-16.7-14.7-26.8
		c-0.3-1.3-0.9-2.6-1.4-3.9c-0.4,0.6-0.5,1.1-0.4,1.6c1.6,11.1,7,20.5,13.4,29.2c5.7,7.7,12.9,14.2,19.3,21.3
		C319,204.5,321.5,207.5,324.1,210.5z"/>
	<path d="M320.1,209.3c-12.8-13.5-27.1-25.9-34.5-43.6C287.2,178.3,298.9,191.6,320.1,209.3z"/>
</g>
<g>
	<path d="M211.8,256.1c17,8.3,35,15,44.2,33.6c0.1-5.5-9.3-21.3-17.5-25.9C230.5,259.3,221.6,255.5,211.8,256.1z"/>
	<path d="M254,291.4c-7.7-13.2-17.7-22.3-32.1-26.3C232.3,273.7,242.8,282.2,254,291.4z"/>
	<path d="M254.5,276c0.4-6.1-4.2-9.5-7.3-13.3c-4.5-5.5-23.2-11.1-29.2-9.5C233.8,255,245.2,263.4,254.5,276z"/>
	<path d="M229.6,275.4c3.2,9.7,17.5,17.8,26.1,20.3C247,289,238.3,282.2,229.6,275.4z"/>
</g>
<g>
	<path d="M274.6,237.5c-0.2,0-0.4,0-0.6-0.1c-1.1,4.7-2.4,9.4-3.2,14.2c-1.3,7.2-3,14.4-3.4,21.7c-0.7,10.6,5.1,19,11.6,26.7
		c1.2,1.5,3.2,2.4,4.8,3.6c-1.4-2.4-3.4-4.1-4.8-6.2c-5.8-8.5-6.9-18.3-6.6-28.3c0.3-8.9,1.2-17.8,1.9-26.7
		C274.3,240.9,274.5,239.2,274.6,237.5z"/>
	<path d="M288.6,303c-1.5-2.7-2.6-4.8-3.8-6.9c-5.1-8.6-7.8-18-7.9-27.8c-0.1-7.4,1-14.9,1.9-22.3c0.6-5,0-9.6-1.9-13.1
		c0,4.6,0.2,10.1,0,15.5c-0.4,9.8-1.8,19.6-1.5,29.4C275.6,287.8,279.4,296.6,288.6,303z"/>
	<path d="M322.6,331.2c-1-2.8-1.7-5.6-3-8.1c-3.4-6.7-6.9-13.3-10.6-19.8c-3.7-6.4-4.3-13.6-5.9-20.5c-1.5-6.6-4.3-12.6-8-17.2
		c3.7,11.7,7.7,24.2,11.5,36.7C309.9,313,314.5,323,322.6,331.2z"/>
	<path d="M308.2,315c-5.8-17.8-11.7-35.6-17.5-53.5c-0.3,0.1-0.7,0.2-1,0.3C293.1,280.5,297,299,308.2,315z"/>
	<path d="M291.3,301.7c-1.6-5.3-3.9-11.5-5.3-17.7c-1.4-6.3-2.2-12.7-2.8-19.1c-0.6-6.3-0.8-12.7-1.2-19.4
		C277.7,266.1,278.6,285.4,291.3,301.7z"/>
	<path d="M301,310.6c-2.9-8.5-6.7-17.9-9.3-27.5c-2.7-9.7-4.3-19.6-6.5-30.3C285.1,277.8,291,300.4,301,310.6z"/>
	<path d="M277.3,302.3c-10.9-12.4-15.8-26-11.5-42.2C260.1,276.5,263.8,297.8,277.3,302.3z"/>
	<path d="M268,300c-8-14.4-8-14.4-5.3-40.1C253.9,272.5,257.7,294.1,268,300z"/>
</g>
<g>
	<path d="M453.7,467.6c-0.8-4.2-2.2-8.7-2.6-13.3c-0.7-8.8-0.7-17.6-1.3-26.3c-0.2-3.8-1-7.6-1.6-11.4c-0.6,1.9-0.8,3.6-0.9,5.4
		c-0.3,8.1-1.1,16.2-0.8,24.2C446.8,454.1,448.5,461.8,453.7,467.6z"/>
	<path d="M459.3,470.4c-1.4-7.7-3.3-16.2-4.3-24.9c-0.6-5.5,0.5-11.2,0-16.8c-0.4-4.1-2.1-8-3.2-12.1c-0.2,3.2,0.3,6.1,0.4,9.1
		c0.4,9.1,0.3,18.2,1.1,27.3C454,459.6,455.8,465.9,459.3,470.4z"/>
	<path d="M438.5,412.8c0,5.5,0.9,11.3-0.2,16.6c-2.2,10-1.5,19.6,2.9,28.6c2,4.1,5.5,7.5,8.4,11.3c0.8-0.7,0.8-0.9,0.7-1
		c-9-8.7-10.8-19.6-10-31.4C440.8,428.9,441.4,420.8,438.5,412.8z"/>
	<path d="M438.4,402.3c1.4,4.2,3.5,7.9,3.7,11.8c0.6,9.7,0.2,19.5,0.5,29.2c0.1,3.9,1.1,7.8,1.6,11.7c0-6.4-0.6-12.7-0.6-19
		c0-5.2,1.1-10.3,1.3-15.5C445.2,413.9,444.7,407.3,438.4,402.3z"/>
</g>
<g>
	<path d="M278.4,168.1c-7.8,12.2-8,43.4-4,47.3C275.7,199.9,277.1,184,278.4,168.1z"/>
	<path d="M280.5,176.3c-1.5,14.7-4.3,29.3-2.7,43.6c1.4-6.6,2.6-13.8,4.3-20.9C284.1,191.2,282.8,183.8,280.5,176.3z"/>
	<path d="M269.6,200.8c-0.2-2-0.8-4.1-0.6-6c0.6-5.2,1.4-10.4,2.5-15.5c0.8-3.5,2.2-6.8,3.3-10.2c1.5-4.4,2.9-8.8,4.4-13.1
		c-0.3-0.1-0.6-0.2-0.9-0.3c-2.9,7.2-4.9,14.9-8.8,21.5C264.8,185.3,269,192.9,269.6,200.8z"/>
</g>
<g>
	<path d="M157.6,134.4c-2.6-4.3-44.7-16.5-52.2-14.7C123.3,124.8,140.4,129.6,157.6,134.4z"/>
	<path d="M116.6,125.1c12.5,8.8,26.8,11.7,42.5,12.5C144.4,133.3,130.5,129.2,116.6,125.1z"/>
	<path d="M111,126.4c5.1,11.3,15.6,12.1,25.2,11.2C128.5,134.2,119.3,130.1,111,126.4z"/>
	<path d="M118.4,117.6c12.6,4,24.8,7.9,36.7,11.8C143.9,122.9,132.6,116.1,118.4,117.6z"/>
</g>
<g>
	<path d="M214.8,206.2c-1.2-0.9-2.5-1.8-3.7-2.8c-0.1,0.2-0.3,0.4-0.4,0.6C212.1,204.8,213.5,205.5,214.8,206.2
		c0.6,0.6,1.1,1.5,1.8,2c5.9,4.4,12.7,6.3,19.8,7c9.3,0.9,18.6,1.6,27.9,2.4c-1.8-1-3.7-1.9-5.7-2.1c-6-0.6-12.1-0.9-18.2-1.5
		C231.4,213.1,222.8,210.7,214.8,206.2z"/>
	<path d="M199.2,221.2c0.8,1.1,1.3,2,1.9,2.6c2.1,1.9,4.3,3.7,6.5,5.6c9.6,8.6,20.9,11.8,33.5,10c3.4-0.5,6.8-0.9,10.1-2
		c4.9-1.6,9.8-3.5,14.4-5.8c2.5-1.3,5.9-2.6,5.9-6.5c-2.4,0.3-4.6,0.5-6.7,1c-5.1,1.4-10.2,3.1-15.3,4.5c-9.2,2.5-18.6,3-27.9,1.6
		c-3.4-0.5-6.9-1.3-9.8-2.8C207.5,227.2,203.7,224.2,199.2,221.2z"/>
	<path d="M179.8,184.1c2.7,3.7,5.4,7.6,8.4,11.3c2.9,3.6,6.2,6.9,9.2,10.3c7.3,8.4,15.3,16,26.7,18.6c7.4,1.7,14.9,2.5,22.5,1.5
		c-1-0.3-2-0.4-2.9-0.6c-6.8-1.4-13.9-2-20.4-4.3c-10.1-3.6-16.6-12-23.2-20c-2.6-3.1-4.7-6.7-7.8-9.2
		C188.5,188.7,183.9,186.6,179.8,184.1z"/>
	<path d="M182.5,191.3c5.6,11.3,11.3,22.6,22,30.2c3.8,2.7,7.6,5.9,11.9,7.2c5.7,1.7,11.8,1.7,17.8,2.3c2,0.2,4-0.4,6-0.7
		c1.9-0.3,3.9-0.8,5.8-1.2c-0.8-0.2-1.6,0.1-2.3,0.1c-10-0.4-19.9-1-29-5.6c-9.8-4.9-16.2-13.5-23.3-21.4
		C188.2,198.7,185.4,195,182.5,191.3z"/>
	<path d="M268.4,222.1c0-0.3,0.1-0.5,0.1-0.8c-0.8-0.3-1.7-0.7-2.5-0.7c-9.6-0.9-19.1-1.5-28.7-2.7c-7.6-0.9-15.1-2.3-21.4-7.5
		c-3.4-2.8-7.1-5.3-10.6-8c0.3,0.8,0.8,1.3,1.2,1.9c7.1,9.3,16.1,16.1,27.9,17.3c10,1.1,20.2,0.9,30.3,1.2
		C265.9,222.9,267.1,222.4,268.4,222.1z"/>
	<path d="M265.7,201.3c-3.1-10.9-8.2-13.3-18.4-12.2c-5,0.5-9.7,2.5-14.6,3.7c-4.7,1.1-9.5,2.1-14.2,3.2c1.7,0.6,3.4,0.7,5,0.5
		c8.3-0.8,16.5-2,24.8-2.3c3.5-0.1,7.4,1.3,10.6,3c3.1,1.6,5.5,4.4,8.3,6.7"/>
	<path d="M213.4,202c8.9,6.1,18.6,9.3,29.1,9.9c5,0.3,10.1,0.7,15,1.5c4,0.6,7.9,1.8,12.6,3c-1.4-0.9-2.2-1.4-2.9-1.9
		c-8.3-5.6-18.1-5.1-27.4-6.6c-6.4-1-12.8-2.1-19.2-3.4C218.2,203.9,215.8,202.8,213.4,202z"/>
	<path d="M219.2,201.3c0,0.2-0.1,0.4-0.1,0.7c4.3,0.9,8.6,1.9,13,2.6c11.7,2.1,24.2,0.2,35.1,6.8c-4.3-5.4-9.8-8.7-16.6-9.1
		c-7-0.4-14,0-21-0.1C226.1,202.1,222.6,201.6,219.2,201.3z"/>
	<path d="M263.4,204.6c-3.2-5-7.1-8.2-12-8c-9.2,0.4-18.3,1.7-27.5,2.6C236.9,199.9,250.4,196.8,263.4,204.6z"/>
</g>
<g>
	<path d="M308.9,254.4c-1.3,19.9,13.8,43.9,31.9,51.1C327.3,290,313.3,275.2,308.9,254.4z"/>
	<path d="M339.4,308.9c-5.7-4.5-12.4-9.3-18.6-14.7c-6.4-5.6-8.6-13.9-11.9-22C309.7,292.3,323.8,303.4,339.4,308.9z"/>
	<path d="M307.7,282.4c-1.2,12,4,18.2,17,22.1C316.7,299.1,310.9,292.1,307.7,282.4z"/>
</g>
<g>
	<path d="M418.1,537.4c-0.4,0.2-0.9,0.3-1.3,0.5c-0.5,0.2-0.9,0.4-1.3,0.7c-7.2,4.2-15.1,5.7-23.2,4.3c-3.3-0.5-6.5-2.3-9.6-3.8
		c-3-1.5-6.1-3-8.5-5.2c-4.4-4-8.3-8.5-12.4-12.8c1.8,5,4.4,9.7,7.1,14.2c6.3,10.6,15.7,15,27.7,12.9
		C404.6,546.9,411.7,542.8,418.1,537.4z"/>
	<path d="M441.6,507.2c-0.3-0.5-0.5-0.9-0.8-1.4c-2.1,1-4.2,2-6.3,3c-7.1,3.4-14,7.2-21.4,9.9c-7.5,2.8-15.4,3.5-23.4,2.2
		c-4.2-0.7-8.3-1.3-13.4-2.1c3.6,1.8,6.4,3.1,9.2,4.5c9.7,4.6,19.8,5.8,29.4,0.6C424.1,518.9,432.7,512.8,441.6,507.2z"/>
	<path d="M360.6,511.4c5.5,11.7,14.1,18.5,24.8,22.5c6.7,2.5,21.8-1.3,27.1-6.1c-2.5,0.7-4.8,1.6-7.1,1.8c-10.6,0.9-20.1-2.2-29-7.7
		C371.4,518.8,366.5,515.3,360.6,511.4z"/>
	<path d="M387.3,538c-0.1,0.2-0.2,0.5-0.3,0.7c3.3,0.8,6.6,2,10,2.2c3.2,0.1,6.5-0.4,9.6-1.4c4.6-1.5,9.2-3,12.9-6.6
		c4-4,8.3-7.6,12.5-11.4c3.7-3.3,7.4-6.7,11.1-10c-2.8,1.4-5.5,3-8.2,4.7c-4,2.5-8.3,4.7-11.8,7.8c-6.4,5.6-13.3,9.8-21.6,11.6
		C396.9,536.5,392.1,537.2,387.3,538z"/>
	<path d="M426.1,509.3c0-0.2-0.1-0.5-0.1-0.7c-1.3-0.2-2.6-0.6-3.9-0.4c-4.4,0.5-8.1-3.2-13-1.2c-5.4,2.2-11.4,2.8-17.1,3.8
		c-7.4,1.2-14.9,2.6-22.2,0.1c-3-1-5.7-2.7-9.1-4.4c4.6,5.1,10.4,5.6,16,6.4c9.1,1.4,18.1,1.1,27.2-0.5
		C411.2,511.1,418.7,510.3,426.1,509.3z"/>
	<path d="M414.8,515.6c-10.2,0.4-22.8,0.8-34.5,1.3C400.5,520.9,403.3,518.6,414.8,515.6z"/>
</g>
<g>
	<path d="M416.8,452.4c0.2,0.1,0.5,0.2,0.7,0.3c0.4-0.9,1-1.8,1.3-2.8c0.6-2.5,1.5-5,1.4-7.5c0-4.3-0.3-8.7-1.1-12.9
		c-0.8-4.1-2.4-8.1-3.6-12.1c-0.9-3-1.8-6.1-2.7-9.1c-0.4,0.1-0.9,0.2-1.3,0.3C413.2,423.1,415,437.7,416.8,452.4z"/>
	<path d="M416.3,399.8c4.7,11.2,10.6,22.3,9.8,35.4c2-4,3.5-8.2,5.1-12.3c1.6-4.1,0-7.7-2.4-10.6C424.9,407.9,420.4,404,416.3,399.8
		z"/>
	<path d="M433.4,413.9c0.7-2.2,1.9-4.2,1.7-6.1c-0.4-2.8-1-6.7-3-8c-5.6-3.7-12-6.3-17.8-9.2c0.3,0.6,0.7,2,1.6,3
		C421.6,400.4,427.4,407,433.4,413.9z"/>
	<path d="M430.1,395.9c-6.9-11.8-16.4-21.3-28.5-28.3c2.4,3.1,5.6,5.9,7.5,9.2C414.2,385.6,420.8,392.3,430.1,395.9z"/>
	<path d="M409,409.9c-4.2,14.4,0.3,28.9,4.3,43.4c0.4,0,0.7-0.1,1.1-0.1C412.5,438.5,410.7,423.7,409,409.9z"/>
	<path d="M415.2,403.5c-0.4,0.1-0.8,0.2-1.1,0.3c2.9,9.7,5.9,19.4,8.8,29.1C424.2,422.1,419,413,415.2,403.5z"/>
</g>
<g>
	<path d="M252.1,179.8c-6-7.8-13.6-13-22.2-16.9c-5.8-2.6-23.3-4.4-26.5-2.5C219.9,165.6,237,169.7,252.1,179.8z"/>
	<path d="M185.4,167.3c7.3,5.5,14.2,10.3,20.5,15.7c9.2,7.9,19,9.6,30.3,4.7c-9.5-0.3-18.4-1.9-26.6-6.6
		C201.8,176.6,193.9,172.1,185.4,167.3z"/>
	<path d="M193.8,164.2c0,0.2-0.1,0.5-0.1,0.7c8.8,4,17.6,8.1,26.4,12.1c8.5,3.9,24.1,8,27.8,7.2c-1.1-0.5-2-1-2.9-1.3
		c-14.1-5.5-28.2-11-42.3-16.4C199.9,165.4,196.8,165,193.8,164.2z"/>
	<path d="M250.5,182.8c-13.8-11-30.7-14.4-46.9-19.4c2.4,1.6,4.9,3,7.5,4C224.2,172.6,237.4,177.7,250.5,182.8z"/>
	<path d="M176,168c10,12.2,20.1,24.2,38.1,25.7c-4.7-2.1-9.1-3.2-12.5-5.6c-6.7-4.7-12.9-10.2-19.3-15.4
		C180.2,171.1,178.1,169.6,176,168z"/>
	<path d="M231.7,184.6c-12.9-5.7-26.5-11.8-40.2-17.9C204.4,174.8,216.6,184.4,231.7,184.6z"/>
	<path d="M168.3,167.1c-0.2,0.3-0.4,0.5-0.6,0.8c4.1,6.5,18.9,18.8,22.9,19.8c-4.6-4.6-9.9-9.9-15.3-15.1
		C173.2,170.6,170.6,168.9,168.3,167.1z"/>
	<path d="M207.7,187.6c-7.5-5.8-14.9-11.5-22.4-17.3c-0.3,0.3-0.5,0.7-0.8,1C191.5,177.8,198.2,184.6,207.7,187.6z"/>
</g>
<g>
	<path d="M181.3,260.1c13.9-3.9,26.3-0.5,38.1,8.7C211.9,255,195.5,251.5,181.3,260.1z"/>
	<path d="M223.8,277.2c-13-15.3-28.4-19-41.2-14.4C198.8,260.8,211.6,268,223.8,277.2z"/>
	<path d="M206.7,269.1c-5.8-4.1-28.5-4.4-38.2-1.6C181.6,268.1,194.8,268.6,206.7,269.1z"/>
	<path d="M190,271.2c13.2,0.6,24.1,5.7,35.5,10.5C217,274.7,197.5,268.6,190,271.2z"/>
</g>
<g>
	<path d="M228.5,150.7c-3.8-4-8.9-7.3-14.7-8.7c-14.2-3.3-28-2-40.5,6.3c-6,4-12,8.1-18.1,12.2c0.2,0.4,0.5,0.8,0.7,1.2
		c3.4-1.8,6.7-3.7,10.1-5.4c5.7-2.9,11.2-6.3,17.2-8.4c9.7-3.3,20-3.6,30-2.1C218.7,146.7,223.8,149.1,228.5,150.7z"/>
	<path d="M165.2,163.1c0,0.2,0,0.3,0.1,0.5c0.8,0.1,1.6,0.3,2.4,0.3c3,0,6.1,0.2,9-0.3c5.4-1,11.1-1.7,16.1-3.8
		c6.2-2.5,12.3-3.5,18.8-3.1c4.9,0.3,9.8,1,15.3,1.6c-5.7-4.2-11.8-5.5-17.9-5.3c-9.5,0.3-18.7,2.1-27.6,5.5
		C176.2,160.5,170.6,161.6,165.2,163.1z"/>
	<path d="M162.8,161.2c1.4-0.3,2-0.4,2.5-0.5c9.9-2.8,19.8-5.9,29.9-8.3c7.7-1.8,15.7-2.9,23.5-0.5c4.6,1.4,9,3.6,12,4.8
		C219.7,145,189.7,142,162.8,161.2z"/>
	<path d="M195.7,137.9c-11.9-1.2-25.9,4.4-30.6,12.4C173.7,142.5,184.3,139.7,195.7,137.9z"/>
</g>
<g>
	<path d="M431.5,442.8c-0.1,0.8-0.2,1.7-0.4,2.5c-2.3,9,0.8,16.9,5.4,24.2c6.6,10.6,17.9,15.2,29.1,21.6c-2-3-3.1-5.5-5-7.4
		c-4.8-4.9-9.9-9.6-14.8-14.4C438.2,461.9,432.4,453.7,431.5,442.8z"/>
	<path d="M426.3,441.4c-0.4-0.1-0.9-0.3-1.3-0.4c-1.9,4.6-3.8,9.2-5.6,13.9c-2.8,7.5-1.1,14.5,2.8,21.1c3.5,5.9,9.3,8.9,15.4,11.6
		c-7.8-4.8-13.8-11.4-15.5-20.3C420.3,458.4,422.5,449.7,426.3,441.4z"/>
	<path d="M455.6,489.2c-17.4-7.7-26.4-21.3-28.9-39.9c-2.2,5.2-1.7,13.6,1.1,18.5C434,478.9,444.4,484.6,455.6,489.2z"/>
	<path d="M457,494.1c-5.6-3-11.2-5.4-16.1-8.7c-4.8-3.3-9-7.6-13-11C430.8,481.4,448.1,492.8,457,494.1z"/>
</g>
<g>
	<path d="M242.7,315.9C242.4,315.4,242.6,315.7,242.7,315.9c4.5,6.6,11.8,8.6,18.5,11.7c10.8,5.1,22.4,5.8,34,6.6
		c7.4,0.5,14.8,1.4,22.2,2.2c1.5,0.2,3,0.7,4.4,1.1c0.2-0.4,0.3-0.8,0.5-1.1c-4.1-2.1-8-4.7-12.3-6.3c-10.1-3.9-20.9-3.1-31.5-3.7
		c-6.9-0.4-14-0.8-20.6-2.7C252.3,322.1,247.4,318.3,242.7,315.9z"/>
	<path d="M246.8,325.7c0.7,1.3,1.3,2.7,2.3,3.8c4.6,5.5,10.3,9.4,16.9,12.4c8.4,3.9,16.8,5.7,26,4.2c4.5-0.7,9.2-0.7,13.8-0.6
		c6.4,0.1,12.8,0.5,19.1,0.7c-4.2-2.1-8.8-3.3-13.8-3.3c-4.7,0-9.3-1.3-14-1.2c-6.7,0-13.3,0-19.9-1.3
		C265.8,338.1,256.1,332.6,246.8,325.7z"/>
	<path d="M321.7,349.5c-1.6-0.4-2.3-0.8-3.1-0.8c-7.3-0.2-14.7-1-21.9-0.2c-8.7,0.9-17.3,2-25.6-1.5c-6.4-2.7-12.6-6.1-18.1-8.8
		c1.6,4.4,8.8,11,16,12.7c6.4,1.6,13,2.4,19.5,3C299.6,355,310.3,352.7,321.7,349.5z"/>
	<path d="M243.3,312.3c2.8,2.1,5.8,4.8,9.2,6.8c8.2,5,17.7,4.3,26.8,5.1c8.9,0.7,17.7,1.4,26.6,2.3c2.5,0.3,5,1.2,8.2,1.9
		c-1.1-0.9-1.6-1.3-2.1-1.7c-4.4-4.4-9.7-7.1-16-7c-7.2,0.1-14.4,0.7-21.6,0.8c-4.3,0.1-8.9,0.4-13-0.8
		C255,317.9,249.1,314.8,243.3,312.3z"/>
	<path d="M294.3,316.8c0-0.4,0.1-0.8,0.1-1.3c-6.6-0.6-13.1-1.5-19.7-1.7c-10.7-0.3-20.7-2.7-29.9-8.3c-3.4-2.1-6.6-4.4-9.9-6.6
		c3.8,4.3,8.2,8,12.5,11.7c5.9,5.1,12.9,7.4,20.5,7.3c6.6,0,13.3-0.8,19.9-1.2C290,316.7,292.1,316.8,294.3,316.8z"/>
	<path d="M225.3,283.9c14.6,18.7,36.1,30,50.1,27.1c-0.7-0.2-1.1-0.3-1.4-0.4c-10.1-1.6-18.8-5.9-26.9-12
		C240,293.4,232.6,288.8,225.3,283.9z"/>
	<path d="M327.8,345.3c0.2-0.4,0.4-0.7,0.6-1.1c-2.6-1.4-5-3.3-7.7-4.1c-9.9-3.1-20.4-2.6-30.6-3.6c-7.6-0.8-15.1-2.1-22.6-3.7
		c-3.7-0.8-7.3-2.7-10.9-4.1c2.9,2.2,5.9,4.5,9.2,5.8c9.2,3.8,19,4.9,28.9,5.4C305.8,340.5,317.5,338.6,327.8,345.3z"/>
	<path d="M296.8,313.8c-3.1-4.4-14.8-7.2-19-4.5C284.2,310.8,290.5,312.3,296.8,313.8z"/>
</g>
<g>
	<path d="M263.2,22.3c-0.2,0-0.4,0-0.6,0c-1.1,4.9-2.2,9.9-3.4,14.8c-2.5,11.1-6.7,21.7-7,33.3c-0.3,9.8,1.9,18.8,6.6,27.2
		c5.2,9.2,10.9,18.1,16.4,27.2c1.1,1.8,2.1,3.6,3.2,5.4c0.4-0.2,0.8-0.4,1.1-0.5c-2.8-6.8-5.3-13.8-8.5-20.5
		c-3-6.2-7.3-11.9-10.1-18.2c-4.2-9.6-5.8-20.1-4.8-30.4c1-10.3,3.8-20.3,5.8-30.5C262.5,27.4,262.9,24.9,263.2,22.3z"/>
	<path d="M295.6,111.8c-4.8-29.8-11-59-25.1-84.9c3.4,12.3,7.1,25.6,10.8,38.8c1.4,5.1,2.7,10.2,4.2,15.3c2.5,8.8,5.1,17.7,7.8,26.5
		C293.7,109.1,294.8,110.4,295.6,111.8z"/>
	<path d="M280.9,125.5c0.3-0.1,0.7-0.2,1-0.3c-1.5-5.5-2.8-11.1-4.5-16.6c-1.8-5.7-4-11.2-5.8-16.9c-2.7-8.9-4.1-18.1-4.4-27.4
		c-0.2-6.5-0.2-13.1-0.2-19.7c0-6.8,0-13.7,0-20.5c-0.3,0-0.6,0-0.9,0c-1.5,17.8-3.2,35.7-0.9,53.5
		C267.3,94.6,275.5,109.6,280.9,125.5z"/>
	<path d="M270.3,21c15.1,26.6,21.9,56,27.8,86.4C299.8,74.6,287.4,47.1,270.3,21z"/>
	<path d="M257,36.3c-5.1,9.3-9.8,18.7-10,29.4c-0.1,6.9-0.4,13.9,0.7,20.6c1.4,8.1,7.4,14,12.3,20.3c0.7,0.9,1.3,1.7,2,2.6
		c0.6,0.8,1.3,1.5,1.9,2.2c0.3-0.1,0.6-0.2,1-0.4C245.4,87.8,247.1,62.5,257,36.3z"/>
	<path d="M280,104.2c0.4-9.2,1.8-18.4,0.9-27.5c-0.9-9.1-4.2-18-6.4-27c-0.4,0.1-0.7,0.1-1.1,0.2C276.6,67.9,274.8,86.4,280,104.2z"
		/>
	<path d="M262,38.6c-6.6,16.1-3.9,45.6,4.3,57c-1.2-8-3.4-17.6-4.1-27.3C261.5,58.4,262,48.5,262,38.6z"/>
	<path d="M270.2,39.9c-2.6,17.2,1.3,47.4,4.5,51.3C273.2,74,271.7,57,270.2,39.9z"/>
	<path d="M281.6,34.5c7,13.5,14.8,26.7,16.3,42.3C296.9,61,291.6,46.8,281.6,34.5z"/>
	<path d="M275.1,20.3c6.7,10,13.5,20,19.6,29.1C292.3,37.9,283.5,29.3,275.1,20.3z"/>
	<path d="M302.1,71.9c-0.4-8.3,0.1-16.9-5.2-24.7C298.7,55.8,300.4,63.8,302.1,71.9z"/>
</g>
<g>
	<path d="M439.7,501.5c-16.8-0.6-33.2-2.7-49.1-9.3c0.3,0.4,0.4,0.7,0.5,0.8c9.4,4.7,18.5,10,29,12.3
		C427.2,506.7,433.4,504.1,439.7,501.5z"/>
	<path d="M345.9,488c-0.1,0.2-0.2,0.5-0.3,0.7c7.3,4.3,14.4,8.9,21.9,12.9c7.6,4.1,19.6,6.1,23.5,5.2
		C376.6,500.7,361.2,494.3,345.9,488z"/>
	<path d="M358.2,484.8c0,0.3-0.1,0.5-0.1,0.8c2.6,0.7,5.3,1,7.7,2.1c9.4,4.2,18.8,8.6,28.1,13c5.1,2.4,10.5,3.4,13.8,2
		c-14.1-5.6-28-11.3-42-16.7C363.4,485.1,360.7,485.1,358.2,484.8z"/>
	<path d="M346.9,485.9c16.4,4.2,30.1,15.7,47.4,17.6C379,496.4,364.3,487.5,346.9,485.9z"/>
	<path d="M380.5,509.1c-5.8-2.3-12.4-4.4-18.5-7.4c-6.1-3.1-11.7-7.3-18.2-11.5C351,500.2,372.3,510.6,380.5,509.1z"/>
	<path d="M377.9,486.5c-8.3-2.8-17.7-7.3-27.3-5.9C359.6,482.5,369.4,484.7,377.9,486.5z"/>
</g>
<g>
	<path d="M290,364.1c10,10.7,18.5,21.6,33,24.5c13.1,2.7,32.8,0.9,39.4-3.7c-10.2,0.2-20.6,3.9-31.4,0.4c-7.3-2.4-14.7-4.2-21.2-8.5
		c-3.5-2.4-7-4.6-10.6-6.9C296.4,368.1,293.6,366.4,290,364.1z"/>
	<path d="M336.7,396.6c-3.9,0-8.1,0-12.2,0c-7.3,0-14.1-2.5-19.5-6.8c-8-6.4-15.2-14-22.7-21c-0.6-0.6-1.3-1-1.9-1.5
		c-0.2,0.2-0.5,0.4-0.7,0.7c4.1,5.8,8,11.8,12.5,17.4c5,6.3,11.3,10.9,19.3,13.2C320.2,401,328.6,399.2,336.7,396.6z"/>
	<path d="M381.4,379.9c0-0.2,0-0.5,0-0.7c-5.6,0-11.2,0.1-16.8,0c-6.4-0.1-13.1,0.8-19.1-0.9c-9.5-2.7-18.5-7.1-27.6-10.8
		c-4.6-1.9-9.1-4-13.6-5.9c5.4,4,11,7.5,16.4,11.2c8.5,5.8,17.6,9.9,28,9.4C359.6,381.6,370.5,380.6,381.4,379.9z"/>
	<path d="M272.6,356.2c-0.1,0.2-0.1,0.4-0.2,0.5c4.7,4.4,9.3,8.7,14,13.1c4.3,4.1,8.7,8.2,13,12.3c5.8,5.7,12.6,9.5,20.5,11.3
		c5.7,1.3,11.4,1.7,17.7-0.8c-1.8-0.2-2.9-0.3-3.9-0.4c-1.2-0.1-2.3-0.2-3.5-0.3c-12.6-0.5-22.7-6.1-31.5-14.7
		c-6-5.8-12.1-11.4-18.3-16.8C278.2,358.6,275.2,357.6,272.6,356.2z"/>
	<path d="M305.9,359.6c2.8,1.2,5.7,2.3,8.5,3.5c12.1,5.2,23.5,12.3,37.1,13.2c4.3,0.3,8.6,0,12.9,0c-9.1-0.2-17.2-3.9-25.1-7.3
		C328.5,364.4,317.8,360.2,305.9,359.6z"/>
	<path d="M284.1,357.8c5.4,3.3,10.9,6.8,16.5,10.2c7.2,4.4,13.7,9.8,22,12.2c5.7,1.6,11.4,3.2,17.1,4.7c-6.3-3.1-12.6-5.9-18.7-9.3
		c-6.2-3.4-12.2-7.1-18-11C297.1,360.7,291.1,357.6,284.1,357.8z"/>
	<path d="M343.5,368c-2.3-2.2-4.8-4.9-7.6-7.3c-1.6-1.4-3.5-2.7-5.5-3.4c-2.4-0.8-5.1-1-7.6-1.4c-4.6-0.8-9.2-1.5-14.1,0.6
		C321.4,358.1,332.8,363.1,343.5,368z"/>
	<path d="M321.9,353c3.6,0.5,6.7,0.9,9.7,1.3C331.1,350.1,329.3,349.8,321.9,353z"/>
</g>
<g>
	<path d="M184.4,324.1c-6.5-4.3-13-8-18.6-12.6c-5.6-4.7-10.6-10.1-15.4-15.6c-4.7-5.5-8.8-11.5-13.2-17.3c1.9,4.1,4.6,7.9,6.1,12.1
		c3.7,10.2,10.7,17.5,18.8,24.1C168.5,320,176.3,321.9,184.4,324.1z"/>
	<path d="M130.1,263.8c3.1,4.1,6.3,8.3,9.4,12.4c7,9.4,13.8,18.8,20.9,28.1c1.4,1.9,3.7,3.2,5.5,4.8
		C155.4,292.8,145.1,276.5,130.1,263.8z"/>
	<path d="M147.5,306.8c-0.2,1-0.3,1.2-0.3,1.4c1.2,11.3,13.5,22.1,22.7,24c3.1,0.6,6.4,0.7,9.5,1c4.7,0.4,9.5,0.7,14.2,1.1
		C174.9,331.3,157.1,326.4,147.5,306.8z"/>
	<path d="M155.9,327.8c4.8,8.2,12.2,11.2,20.3,11.9c7.7,0.7,15.4-0.2,23.2-0.5c3.1-0.1,6.2-0.6,9.3-0.8c-1.8-0.8-3.6-0.7-5.4-0.8
		c-7.1-0.4-14.1-0.6-21.2-1.4c-5.7-0.6-11.7,0.3-17.1-2.7C162.1,331.8,159.3,329.9,155.9,327.8z"/>
	<path d="M150.7,307.9c1.4,1.9,2.6,3.5,3.6,5.1c3.5,5.7,8.5,10.1,14.7,12.2c8.7,2.9,17.8,4.8,26.7,7c1.2,0.3,2.4,0.4,3.5,0.6
		c0.1-0.8-0.2-0.9-0.5-1.1c-5.4-1.8-10.8-3.8-16.3-5.4c-7.6-2.2-15.1-4.2-21.3-9.4C157.7,314.1,154.4,311.1,150.7,307.9z"/>
</g>
<g>
	<path d="M175.8,364.5c-0.2-0.3-0.4-0.5-0.6-0.8c-5.3,3.5-10.3,7.6-15.9,10.4c-9.2,4.7-18.6,9-28.2,12.9
		c-12.4,5.1-23.9,11.6-34.5,19.8c-4.4,3.4-8.6,7-12.9,10.5c6.5-3.6,12.6-7.6,18.9-11.2c6.4-3.7,12.9-7.1,19.4-10.5
		c2.7-1.4,5.7-2,8.5-3.3c8.3-4,16.9-7.6,24.7-12.4C162.5,375.5,169,369.7,175.8,364.5z"/>
	<path d="M186,355.2c-5.3,3.8-6.7,9.1-7.3,14.5c-0.9,8.2-3.5,15.9-8.6,22.3c-4.2,5.1-9.4,9.4-13.5,13.4c8.5-0.3,18.7-7.7,22-17.2
		c1.9-5.7,3.2-11.5,4.6-17.4C184.2,365.8,185,360.7,186,355.2z"/>
	<path d="M177.4,368.6c-0.3-0.2-0.7-0.3-1-0.5c-9.3,21-25.5,34-46.8,41.5c9.1-2.2,18.1-4.6,26.7-7.8c3.6-1.3,6.9-4.1,9.5-6.9
		c2.4-2.6,4.1-6.1,5.5-9.4C173.7,379.9,175.5,374.2,177.4,368.6z"/>
	<path d="M170.8,374.6c-0.1,0-0.2-0.1-0.3-0.1c-3.8,3.6-7.4,7.6-11.6,10.7c-7.2,5.2-14.5,10.6-22.4,14.5c-7.9,4-16.7,6.4-25,9.5
		c-2.9,1.1-5.9,2.1-8.8,3.2c1.6,0.6,2.9,0.5,4.2,0.1c4.6-1.3,9.1-2.8,13.7-4c2.4-0.7,5.1-0.7,7.4-1.6c5.5-2.2,11-4.6,16.4-7.2
		c5.1-2.5,10.4-4.6,14.1-9.4c1.9-2.5,4.3-4.6,6.2-7.1C166.8,380.5,168.8,377.5,170.8,374.6z"/>
	<path d="M165.4,376.1c-2.4,1.7-4.7,3.6-7.3,5c-7.8,4.1-15.7,8-23.7,11.8c-7.5,3.6-15.1,6.8-22.5,10.4c-3.6,1.8-6.8,4.2-10.1,6.3
		c11.6-3.9,23.1-7.7,34.2-12.6C147.1,392.2,156.4,384.2,165.4,376.1z"/>
	<path d="M185.8,389.8c0.2,0.1,0.4,0.1,0.6,0.2c1.6-3.7,3.3-7.3,4.7-11.1c1.9-5.2,3.4-10.6,5.5-15.8c3.1-7.9,7-15.4,13-21.7
		c-1.3,0.1-2.4,0.3-3.4,0.7c-7,2.9-10.7,8.9-12.6,15.5C190.3,368.2,188.3,379,185.8,389.8z"/>
	<path d="M216.5,339.2c-9.7,13.3-14.9,28.1-21.2,42.8C201.7,379.7,217.1,348.3,216.5,339.2z"/>
	<path d="M169.5,403.9c2.3-1.7,4.2-3.4,6.4-4.6c4.7-2.5,7.3-6.4,8.3-11.4c0.8-4.1,1.2-8.4,2.1-12.5c0.7-3.4,2.2-6.6,2.8-10
		c1.3-6.7,2.9-13.1,8.8-18.8c-5.5,2.8-9,6.1-10.1,11.5c-1.5,7.5-2.8,15-4.6,22.4c-1.6,6.7-4.3,13.1-9.3,18.1
		C172.4,400.2,171.1,401.9,169.5,403.9z"/>
	<path d="M211.6,341.8C200.8,353,196,368,191.9,383.4C198.6,369.3,205.3,355.3,211.6,341.8z"/>
</g>
<g>
	<path d="M175.6,352.5c-0.8-0.1-1.1-0.2-1.4-0.2c-8.5,0-17,0.1-25.5-0.1c-8.3-0.1-16.5-0.7-24.8-0.7c-3,0-6,1.3-8.9,2
		c0.1,0.4,0.2,0.8,0.2,1.2c2.9,0,5.8-0.2,8.7,0c10.9,1,21.7,2.5,32.6,3.1C163.1,358.2,169.6,357.1,175.6,352.5z"/>
	<path d="M190.1,345.5c0-0.3-0.1-0.7-0.1-1c-20,4.4-40.6-0.9-60.5,4.4c8.4,0.4,16.8,0.9,25.2,1.1c6.1,0.2,12.2,0.5,18.2-0.3
		C178.7,349.1,184.4,347,190.1,345.5z"/>
	<path d="M106.6,361.9c1.5,0.4,3.2,1,5,1.5c8.6,2.7,16.9,6.5,26.4,5.5c5.3-0.6,10.3-1.6,14.1-4.4
		C137.1,363.6,121.7,362.8,106.6,361.9z"/>
	<path d="M155,360c-5.3-0.4-10.6-0.9-15.8-1.3c-5.3-0.4-10.5-1.1-15.8-1.3c-5.3-0.2-10.7,0-16,0c0,0.5,0,1,0,1.5
		C123.2,359.9,139,363.2,155,360z"/>
	<path d="M101,363.1c10.8,6.7,22.2,11.5,35.4,8.6C123.5,373.1,113,365.2,101,363.1z"/>
</g>
</svg>
