<?xml version="1.0" encoding="utf-8"?>
<!-- Generator: Adobe Illustrator 21.0.2, SVG Export Plug-In . SVG Version: 6.00 Build 0)  -->
<!DOCTYPE svg PUBLIC "-//W3C//DTD SVG 1.1//EN" "http://www.w3.org/Graphics/SVG/1.1/DTD/svg11.dtd">
<svg version="1.1" id="Layer_1" xmlns="http://www.w3.org/2000/svg" xmlns:xlink="http://www.w3.org/1999/xlink" x="0px" y="0px"
	 viewBox="0 0 222 471.3" enable-background="new 0 0 222 471.3" xml:space="preserve">
<path fill="#414042" d="M116.4,258.3c-1.3-2.4-3.7-3.9-4.6-6.6c-0.1-0.3-0.4-0.7-0.6-0.9c-2.6-2.8-4.4-6.1-6.6-9.2
	c-2.6-3.6-4-7.8-6.3-11.6c-0.6-0.9-0.8-2.1-1.2-3.2c-0.4-1.2-0.9-2.5-1.3-3.7c-0.2-0.5-0.2-1-0.3-1.5c-0.2-0.9-0.4-1.7-0.6-2.6
	c-0.2-0.8-0.4-1.6-0.5-2.4c-0.4-2.2-0.8-4.5-1.2-6.7c-0.3-1.7-0.8-3.3-1.1-5c-0.7-3.5-1.6-6.8-2.8-10.2c-1.3-3.7-2.8-7.2-4.6-10.7
	c-1.7-3.4-4-6.6-5.8-9.9c-1.3-2.3-2.7-4.5-4.1-6.7c-0.8-1.3-1.9-2.4-2.7-3.6c-1.4-2.4-3-4.6-4.7-6.9c-0.2-0.3-0.4-0.6-0.6-1
	c-1.7-3.6-4-6.9-6-10.2c-2.2-3.5-4.6-7-6.6-10.6c-2.2-3.8-4.1-7.8-5.5-12c-1-3-2.2-6-3.2-9.1c-0.2-0.6-0.3-1.2-0.5-2
	c0.3,0.2,0.5,0.3,0.5,0.4c0.6,2.2,1.8,4.1,3.1,6c0.9,1.4,1.7,2.8,2.6,4.2c0.5,0.7,1,1.4,1.6,2.1c1.1,1.4,2.3,2.8,3.5,4.2
	c0.5,0.6,0.8,1.3,1.2,1.9c1.9,3.2,3.8,6.4,5.7,9.6c0.8,1.3,1.3,2.7,2.5,3.7c0.4,0.3,0.6,0.8,0.9,1.2c1.7,3,3.5,5.8,5.5,8.6
	c2.8,3.9,5.3,8,7.9,12c2.9,4.4,5.6,9,7.9,13.8c1.1,2.2,1.9,4.5,2.8,6.8c0.1,0.4,0.2,0.7,0.4,1.1c1.5,3.1,1.9,6.5,2.5,9.8
	c0.3,1.7,0.8,3.3,1.2,4.9c0.4,2,0.7,4.1,1.1,6.1c0.4,2,1.1,3.9,1.3,5.9c0.3,3.3,1.6,6.3,2.2,9.5c0.1,0.8,0.5,1.6,0.8,2.3
	c1.5,3.5,3,7,4.6,10.5c0,0.1,0.1,0.1,0.1,0.2c1.7,2.8,3.5,5.5,5.2,8.3c0.6,1,1.2,2.1,1.8,3.1c1.6,2.8,3.1,5.6,4.7,8.4
	c0.2,0.3,0.3,0.7,0.5,1C116.6,258.1,116.5,258.2,116.4,258.3z"/>
<path fill="#414042" d="M46,123.1c0.2,0.4,0.4,0.7,0.6,1.1c1,2.4,2,4.9,3.1,7.3c0.9,1.9,2,3.8,3,5.6c0.6,1.2,1.2,2.3,2,3.4
	c2,3.1,4,6.2,6,9.4c0.5,0.8,1,1.8,1.5,2.6c1.5,2.4,2.9,4.8,4.5,7.2c1.4,2.3,2.9,4.5,4.4,6.8c1.1,1.7,2.3,3.4,3.5,5.2
	c0.5,0.7,0.9,1.5,1.3,2.3c1.7,2.8,3.5,5.7,5.2,8.5c0.4,0.6,0.8,1.3,1.1,2c1.7,3.8,3.5,7.5,5.1,11.3c0.7,1.7,0.9,3.5,1.4,5.3
	c1,3.5,1.3,7.2,2,10.7c0.5,2.5,1.3,4.9,1.6,7.3c0.3,2.2,0.9,4.3,1.8,6.3c1.2,2.9,2.5,5.8,3.8,8.6c0.8,1.9,1.6,3.8,2.8,5.6
	c2,2.9,3.8,5.9,5.8,8.9c1.7,2.6,3.5,5.1,5.3,7.6c0.8,1.1,1.7,2.1,2.6,3.2c0.7,0.9,1.6,1.6,2.1,2.6c1.1,2.1,2.8,3.9,4.1,5.9
	c2,2.9,4.1,5.9,5.3,9.3c0.4,1.2,1.1,2.2,1.7,3.4c0.2,0.5,0.3,1,0.5,1.5c-0.1,0.1-0.2,0.1-0.3,0.2c-0.6-0.6-1.2-1.2-1.8-1.8
	c-1.9-2.1-3.7-4.3-5.6-6.4c-0.5-0.6-1-1.1-1.5-1.7c-1.3-1.7-2.7-3.3-4.1-4.9c-1.4-1.6-2.9-3.1-4.2-4.8c-2-2.6-3.8-5.3-5.7-8
	c-1.4-2.1-2.8-4.2-4.2-6.3c-0.5-0.8-0.9-1.8-1.5-2.6c-0.6-0.9-1.2-1.8-1.8-2.6c-0.3-0.4-0.7-0.7-0.9-1.2c-1-2.7-2.5-5.1-2.8-8
	c-0.1-1.1-0.5-2.1-0.7-3.1c-0.3-1.2-0.5-2.5-0.7-3.7c-0.4-2-0.8-3.9-1.2-5.9c-0.1-0.4-0.3-0.8-0.3-1.3c-0.1-3.6-1.4-7-1.7-10.6
	c-0.2-2.3-0.7-4.5-1.3-6.7c-0.1-0.5-0.3-1-0.4-1.4c-0.5-1.3-1.2-2.6-1.7-4c-1-2.8-2-5.6-3.7-8.1c-1.3-1.8-2.1-4-3.2-6
	c-0.9-1.6-2.1-3.1-2.9-4.8c-0.8-1.8-1.9-3.2-3.1-4.7c-3.3-4.2-6.1-8.8-8.9-13.3c-0.1-0.1-0.1-0.2-0.2-0.3c-2.2-2.2-3.3-5.2-4.8-7.9
	c-1.4-2.5-3-4.9-4.5-7.4c-0.7-1.3-1.3-2.7-2-4c-2.5-5-4.3-10.4-6.2-15.6c-0.2-0.6-0.3-1.2-0.4-1.8C45.8,123.2,45.9,123.2,46,123.1z"
	/>
<path fill="#414042" d="M83,27.8c2,1.3,4,2.5,5.9,4c3.9,3,8,5.6,12.3,8.1c2.8,1.6,5.5,3.4,8.2,5c1.5,0.9,3.1,1.7,4.6,2.6
	c3.8,2.2,7,5.3,10.1,8.4c1.8,1.8,3.3,3.8,4.7,5.9c2.4,3.4,5,6.7,7.2,10.1c2.2,3.3,4.3,6.5,6.9,9.4c1.4,1.7,3.1,3.1,4.6,4.7
	c1.5,1.5,3,3,4.4,4.7c2.1,2.5,4.3,4.9,6.5,7.4c1.6,1.8,3,3.7,4.6,5.5c0.3,0.3,0.6,0.6,0.9,0.9c0.3,0.3,0.4,0.7,0.6,1.1
	c-1.9-1.3-4-2-5.6-3.8c-1.1-1.2-2.6-1.8-3.9-2.8c-1.4-1-3-2-4.2-3.2c-2.4-2.4-4.8-4.8-7-7.4c-3.5-4.1-6.8-8.5-10.4-12.5
	c-3.4-3.7-6-8.1-9.3-11.9c-1.6-1.9-3.4-3.5-5.1-5.3c-1.1-1.2-2.1-2.5-3.2-3.7c-1.1-1.2-2.2-2.4-3.4-3.5c-2-1.7-4.2-3.2-6.3-4.8
	c-3.2-2.4-6.4-4.8-9.7-7.2c-1.2-0.9-2.6-1.6-3.7-2.5c-1.6-1.3-3.1-2.7-4.6-4.1c-1.5-1.4-3-2.8-4.5-4.3c-0.2-0.2-0.4-0.4-0.6-0.6
	C82.9,27.9,83,27.9,83,27.8z"/>
<path fill="#414042" d="M145.9,351.5c-0.3-0.1-0.5-0.2-0.5-0.3c-1.7-2.4-3.3-4.9-4.3-7.8c-0.5-1.4-1.1-2.7-1.6-4
	c-0.4-0.9-0.8-1.9-0.9-2.9c-0.2-2-1-3.9-1.7-5.8c-0.4-1.2-0.9-2.4-1.2-3.6c-0.7-2.7-2-5-4-7c-0.1-0.1-0.2-0.2-0.3-0.3
	c-1.4-2.4-3.7-3.9-5.8-5.6c-1.1-0.9-2.4-1.6-3.7-2.2c-2.8-1.5-5.7-2.9-8.7-4c-1.7-0.6-3.4-1.1-5-1.6c-0.5-0.2-1.1-0.2-1.6-0.5
	c-1.9-0.7-3.7-1.5-5.6-2.3c-1.7-0.8-3.4-1.7-5.1-2.5c-1-0.5-2.1-0.9-3.1-1.3c-0.9-0.4-1.7-0.6-2.4-1.4c-0.4-0.5-1.3-0.5-1.8-0.8
	c-1.5-1-3.1-1.9-4.5-3.1c-1.9-1.7-3.6-3.5-5.4-5.3c-2-2.1-3.6-4.5-4.8-7.2c-1-2.2-2.3-4.2-3.5-6.2c-2-3.7-4.1-7.3-6.2-11
	c-0.2-0.3-0.3-0.7-0.2-1.2c0.4,0.5,0.8,1,1.1,1.6c1.2,1.8,2.4,3.6,3.5,5.4c0.9,1.4,1.6,3,2.6,4.4c2.8,3.9,5.6,7.7,9.2,11
	c1.9,1.7,4,3,6,4.5c0.2,0.1,0.3,0.2,0.4,0.4c1.7,1.8,4,2.8,6,4.2c0.3,0.2,0.6,0.4,1,0.5c2.1,0.6,4,1.8,6.1,2.3
	c2.7,0.6,5.3,1.8,8.1,2.4c4.4,0.9,8.6,2.5,12.5,4.5c5,2.5,9.1,6.3,12.3,10.9c1.2,1.7,2,3.6,3,5.4c0.7,1.2,1.1,2.7,1.4,4.1
	c0.7,3.4,2.3,6.5,3.3,9.8c0.4,1.3,0.8,2.5,1.2,3.8c0.8,2.5,2.1,4.8,2.6,7.5c0.1,0.7,0.3,1.5,0.5,2.2
	C145.1,349.5,145.5,350.4,145.9,351.5z"/>
<path fill="#414042" d="M105.8,32.9c2.1,0.6,4.2,1.2,6.3,2c2.8,1.1,5.5,2.3,8.2,3.5c1.9,0.9,3.7,1.9,5.5,3c3.9,2.4,7.2,5.4,10.6,8.4
	c3,2.7,5.1,6,7.2,9.4c0.6,1,1.4,1.9,2,3c0.8,1.5,1.6,3,2.4,4.5c0.7,1.3,1.3,2.6,1.9,3.9c0.1,0.2,0.3,0.4,0.4,0.6
	c1,1.4,2.1,2.7,3,4.1c1.8,2.9,4.2,5.3,6.6,7.8c2.1,2.2,12.1,17.3,12.6,20.1c0.4,2.2,0.4,4.5,0.2,6.9c-0.3-0.8-0.7-1.5-1-2.3
	c-0.9-2.8-2.3-5.5-3.8-8c-1.1-1.8-2.4-3.4-3.7-5c-2.9-3.5-5.8-7-8.9-10.3c-3.7-4-7-8.4-10.1-12.8c-1.4-1.9-2.4-4.1-3.8-6.1
	c-1.7-2.4-3.6-4.7-5.4-7c-0.9-1.1-1.7-2.2-2.6-3.3c-3.5-4.5-7.4-8.5-11.7-12.3c-2.1-1.9-4.6-3.5-7-5
	C111.8,36.1,108.7,34.6,105.8,32.9C105.7,33,105.8,33,105.8,32.9z"/>
<path fill="#414042" d="M139.2,345.8c-0.6-0.8-1.2-1.5-1.8-2.3c-0.9-1.4-1.9-2.8-2.7-4.3c-0.4-0.7-0.5-1.7-0.5-2.5
	c0.2-4.1-1-7.7-3.5-10.9c-0.3-0.4-0.7-0.8-0.9-1.2c-1.2-2.3-3.4-3.3-5.5-4.5c-1.4-0.7-2.9-1.3-4.4-1.7c-2.1-0.6-4.2-1.1-6.4-1.6
	c-2.6-0.6-5.3-1.3-7.9-1.6c-3-0.3-5.9-1.1-8.7-2.2c-1.5-0.6-2.9-1.5-4.3-2.3c-1.9-1-3.7-2-5-3.8c-0.8-1.1-2.1-1.7-3.1-2.7
	c-0.8-0.7-1.5-1.5-2.3-2.3c-0.6-0.6-1.3-1.2-1.9-1.8c-0.4-0.3-0.8-0.7-1-1.1c-0.8-1.5-2.1-2.7-3.1-4c-0.5-0.7-0.8-1.4-1.3-2.1
	c-0.6-0.9-1.2-1.8-1.7-2.7c-1.1-1.9-2.3-3.8-3.3-5.7c-1.5-2.9-2.8-5.9-4.1-8.9c-1.3-2.9-2.5-5.9-3.8-8.8c-0.3-0.7-0.5-1.4-0.7-2.2
	c0.7,0.4,0.9,1.2,1.3,1.8c1.5,2.9,3,5.8,4.6,8.7c1.1,2.1,2.4,4.1,3.6,6.2c0.9,1.7,1.7,3.5,2.7,5.1c2.2,3.7,5,6.9,8.2,9.7
	c2.5,2.2,5.3,3.9,8.3,5.4c2.3,1.1,4.5,2.2,6.8,3.1c3,1.2,6,2.3,9,3.4c0.9,0.4,1.8,0.8,2.8,1.2c2.7,1.1,5.3,2.4,8,3.1
	c3,0.8,5.4,2.7,7.9,4.3c1.9,1.2,3.3,3.1,4.8,4.7c0.4,0.4,0.8,0.9,1.1,1.5c0.7,1.2,1.4,2.4,2,3.6c0.3,0.5,0.4,1.2,0.6,1.8
	c1.1,2.1,1.7,4.4,2.3,6.7c0.1,0.5,0.4,0.9,0.6,1.4c0.4,1.3,0.7,2.5,1.1,3.8c0.2,0.7,0.4,1.4,0.7,2.1c0.5,1.1,1,2.1,1.5,3.2
	C139.4,345.6,139.3,345.7,139.2,345.8z"/>
<path fill="#414042" d="M44.2,104.4c0.2,0.3,0.5,0.5,0.7,0.8c1.1,1.8,2.3,3.6,3.3,5.5c2.3,4.3,5.5,8,8.2,11.9c1.6,2.3,3.4,4.5,5,6.8
	c2.1,3,4,6.1,6,9.1c1.6,2.4,3.2,4.8,4.8,7.2c1,1.5,2,2.9,3.1,4.3c3,4.2,5.9,8.3,8.9,12.5c3.1,4.3,5.5,9,7.5,13.9
	c0.9,2.2,2,4.3,2.9,6.5c0.5,1.2,0.8,2.5,1.1,3.8c1,4.2,1.9,8.5,2.8,12.7c0.6,2.7,1.3,5.5,1.9,8.2c0.8,3.8,1.5,7.6,2.4,11.4
	c0.8,3.8,1.8,7.6,3.4,11.1c1.4,3.2,2.6,6.4,4,9.6c0.3,0.6,0.8,1.1,1.1,1.7c1.6,3.1,3.2,6.3,4.6,9.5c-0.2-0.3-0.5-0.5-0.7-0.8
	c-2.9-4.9-5.9-9.8-8.7-14.8c-3-5.6-5.6-11.4-6.8-17.7c-0.7-3.6-1.5-7.3-2.2-10.9c-0.7-3.6-1.4-7.3-2.1-10.9c-0.3-2-0.4-4-1.4-5.8
	c-0.5-3.8-2.6-6.9-4.1-10.3c-2.1-4.7-4.7-9.2-7.4-13.6c-2.1-3.4-4.4-6.6-6.5-9.9c-2.8-4.3-5.7-8.6-8.5-12.9c-1.9-3-3.6-6.1-5.6-9
	c-1.7-2.6-3.7-4.9-5.5-7.4c-2-2.8-4-5.6-5.8-8.6c-1.6-2.5-3-5.1-4.3-7.8c-0.9-2-1.6-4.2-2.4-6.3C44.1,104.5,44.1,104.4,44.2,104.4z"
	/>
<path fill="#414042" d="M46.5,103c3,3,5.9,6,8.9,9c3,3.1,6,6.3,9,9.4c0.7,0.7,1.3,1.5,1.9,2.3c2.2,3,4.4,6,6.5,9
	c1.6,2.2,3,4.5,4.6,6.6c2.6,3.5,4.7,7.3,7,11c0.9,1.6,2,3.1,2.8,4.7c2,3.9,4,7.8,5.7,11.9c2.3,5.6,4,11.4,5,17.3
	c0,0.1,0,0.2-0.1,0.8c-0.4-1.1-0.6-1.9-0.9-2.6c-0.9-2.2-1.8-4.4-2.9-6.5c-1.7-3.6-3.5-7.1-5.4-10.6c-1.1-2-2.5-3.9-3.8-5.8
	c-1.8-2.6-3.6-5.3-5.5-7.9c-1.2-1.7-2.8-3.1-4-4.8c-2.2-3.2-4.4-6.4-6.3-9.8c-1.3-2.4-2.9-4.5-4.5-6.7c-1.8-2.5-3.8-4.9-5.5-7.5
	c-1.5-2.3-3.1-4.4-4.7-6.6C51.3,112,48.3,107.8,46.5,103z"/>
<path fill="#414042" d="M24.5,19.4c0.5,0.7,1,1.4,1.5,2.1c2,2.6,4,5.1,6.1,7.7c3.6,4.5,7.7,8.6,11.6,12.8c2.6,2.8,5.1,5.6,7.3,8.6
	c0.3,0.5,0.7,0.9,1.1,1.3c2.1,2.3,4.1,4.6,6.2,6.9c1.3,1.5,2.7,3,3.9,4.6c2.7,3.5,4.9,7.2,6.5,11.4c1.2,3.3,1.7,6.7,2.6,10
	c0.4,1.3,0.1,2.8-0.1,4.3c-1-2.9-2.9-5.4-4.2-8.1c-0.4-0.8-0.9-1.6-1.4-2.4c-2.5-4.1-5.5-7.8-8.6-11.4c-2.3-2.6-4.8-5.2-7.1-7.8
	c-1.5-1.8-2.9-3.7-4.3-5.5c-0.9-1.2-1.7-2.5-2.7-3.7c-3.6-4.6-7-9.1-9.4-14.5c-1.3-2.9-3.2-5.5-4.8-8.3c-1.4-2.4-2.9-4.9-4.3-7.3
	c-0.1-0.1,0-0.4-0.1-0.5C24.4,19.5,24.4,19.5,24.5,19.4z"/>
<path fill="#414042" d="M140.7,230.3c0.3,0.7,0.6,1.4,0.9,2.1c0.9,2.2,1.8,4.4,2.7,6.6c0,0.1,0,0.1,0.1,0.2c1.4,2.9,2.8,5.8,4.2,8.6
	c0.7,1.4,1.5,2.8,2.2,4.2c1.3,2.7,2.5,5.5,3.8,8.2c2.5,5.2,4.5,10.6,6.6,16c0.5,1.3,1.3,2.6,1.8,4c2.1,6.2,2.6,12.7,2.4,19.2
	c-0.1,1.8-0.3,3.5-0.5,5.3c-0.1,1.1-0.2,2.1-0.2,3.2c0,5.2-0.5,10.3-1.5,15.4c-0.9,4.3-1.7,8.6-2.7,12.9c-0.6,2.6-1.6,5.1-2.5,7.8
	c-0.6-0.8-0.3-1.4-0.1-2c1-3.6,1.7-7.3,2.1-11.1c0-0.4,0.1-0.7,0.2-1.1c0.8-2.7,1-5.6,1.1-8.4c0.1-2.8,0.3-5.6,0.5-8.5
	c0-0.6,0.1-1.2,0.1-1.9c0-2.7-0.1-5.4-0.1-8.1c0-0.3,0-0.5,0-0.8c0.8-2.9-0.3-5.6-1-8.3c-0.7-2.6-1.1-5.2-1.6-7.8
	c-0.4-1.6-0.8-3.2-1.3-4.7c-1.2-4-2.4-7.9-3.6-11.9c-0.2-0.8-0.5-1.6-0.8-2.3c-0.8-2-1.6-4.1-2.4-6.1c-0.4-0.9-0.6-1.9-0.9-2.9
	c-0.2-0.7-0.4-1.5-0.7-2.2c-0.9-2.3-1.8-4.6-2.8-6.8c0-0.1,0-0.1-0.1-0.2c-1.1-3.6-2.3-7.2-3.4-10.8c-0.4-1.4-1-2.7-1.4-4.1
	c-0.4-1.3-0.7-2.6-1.1-3.9C140.6,230.3,140.7,230.3,140.7,230.3z"/>
<path fill="#414042" d="M157.5,186.4c0-1.2,0-2.3,0-3.5c0.1-2.2-0.3-4.4-0.8-6.5c-0.8-3.8-1.9-7.6-2.5-11.4
	c-0.9-5.3-3.2-10.2-5.5-14.9c-2-4-4.2-7.9-6.5-11.7c-2.4-4.1-4.9-8-7.4-12c-0.7-1.1-1.5-2-2.2-3c-1.9-2.7-3.9-5.5-5.7-8.4
	c2,0.9,3.9,2.1,5.3,3.7c1.5,1.7,3.3,2.9,4.9,4.3c2.9,2.5,5.9,4.8,8.1,7.9c1.7,2.3,3.3,4.7,4.7,7.3c1.9,3.8,4,7.5,5,11.7
	c0.2,0.8,0.6,1.7,1,2.4c1.5,3,2.2,6.2,2.9,9.5c0.6,2.7,0.7,5.3,0.7,8c0,1.3,0,2.6-0.1,3.9c-0.3,3.8-0.7,7.5-1.1,11.3
	c0,0.5-0.2,0.9-0.2,1.4C157.8,186.4,157.6,186.4,157.5,186.4z"/>
<path fill="#414042" d="M64.9,106.8c-3.1-1.7-6.2-3.3-9.2-5c-3.9-2.2-7.8-4.4-11.6-6.6c-0.4-0.2-0.8-0.6-1.1-1
	c-1.5-1.7-2.9-3.5-4.3-5.2c-0.5-0.6-7-11.9-7.8-13.9c-0.2-0.4-0.4-0.8-0.5-1.2c-0.2-1.6-0.9-3-1.6-4.4c-0.2-0.4-0.3-0.8-0.4-1.2
	c-0.3-1.1-0.6-2.2-0.8-3.3c-0.3-1.2-0.6-2.4-0.8-3.7c-0.1-0.6-0.2-1.1-0.3-1.7c-0.4-1.8-1-3.5-1.3-5.3c-0.6-3.7-1.1-7.3-1.5-11
	c-0.1-0.7-2-13.2-2.1-15.2c0-1.2-0.3-2.3-0.4-3.7c0.8,0.5,1,1.2,1.1,1.9c0.6,2.4,4.8,19.7,5.6,22.8c1,3.9,4.5,17.2,5.4,19.8
	c0.6,1.6,1.4,3.1,2,4.7c1.3,3.4,3.3,6.4,5.1,9.4c0.4,0.7,1.2,1.3,1.8,1.9c2.1,2.6,4.6,4.8,7,7.1c1.9,1.7,3.8,3.5,5.7,5.3
	c0.7,0.6,1.5,1.1,2.2,1.7c1.5,1.4,3.5,2.3,4.7,4.2c0.2,0.4,0.7,0.6,1,0.9c0.8,0.8,1.7,1.7,2.5,2.5C65.1,106.7,65,106.7,64.9,106.8z"
	/>
<path fill="#414042" d="M134.8,204.7c0.6,2.1,1.2,4.2,1.9,6.3c1.3,3.9,2.9,7.6,5.2,11c0.6,0.9,1.1,2,1.7,2.9
	c2.9,4.5,5.1,9.4,7.6,14.1c1,1.8,1.9,3.7,2.4,5.7c0.4,1.6,0.8,2.8,2,3.9c0.9,0.9,1.4,2.2,2,3.4c1.9,3.5,3.4,7.2,4.7,10.9
	c1.3,3.7,2.8,7.4,4,11.2c1.6,5,2.7,10.2,3.2,15.5c0.3,3.5,0.1,6.9-0.2,10.4c-0.3,3.9-0.6,7.9-1.8,11.7c-0.7,2.2-1,4.4-1.5,6.6
	c0,0.2-0.1,0.4-0.5,0.6c0.2-1.8,0.5-3.6,0.6-5.4c0.3-2.7,0.5-5.4,0.7-8.1c0.2-2.8,0.4-5.5,0.6-8.3c0.1-1.1,0.1-2.3,0-3.4
	c-0.3-2.9-0.6-5.9-1.1-8.8c-0.4-2.2-0.9-4.5-1.7-6.6c-2.5-6.4-5.2-12.7-7.9-19c-0.5-1.1-1.1-2.1-1.6-3.2c-1.4-3.1-2.7-6.2-4.2-9.3
	c-1.4-3-3.1-5.9-4.5-8.9c-1.6-3.4-3.2-6.9-4.8-10.3c-1.4-3-2.9-6-4.2-9.1c-1.6-3.7-2.9-7.5-3-11.6c0-0.9-0.1-1.7-0.2-2.6
	C134.6,204.7,134.7,204.7,134.8,204.7z"/>
<path fill="#414042" d="M139.6,300.5c-0.9-1.4-1.9-2.6-2.4-3.8c-0.7-1.4-1.6-2.8-1.2-4.6c0.2-0.9-0.1-1.9-0.2-2.8
	c-0.2-2.2-0.7-4.3-0.4-6.5c0.3-2.1-0.1-4.4-0.2-6.6c0-0.3-0.1-0.6,0-0.9c0.4-4.1-0.1-8.1-0.4-12.2c-0.2-2.4-0.2-4.8-0.2-7.2
	c0-5,0-9.9,0.2-14.9c0.1-4.2,0.4-8.4,0.7-12.6c0-0.7,0-1.3,0.2-2c0.3,0.9,0.6,1.7,0.8,2.6c1.1,5.5,2.2,11.1,3.2,16.7
	c0.5,2.7,0.6,5.4,1.1,8c0.5,2.8,0,5.6,0.1,8.5c0.1,3.3,0,6.5-0.1,9.8c-0.1,4,0,8-0.5,11.9c-0.5,3.6-0.5,7.3-0.9,10.9
	c-0.1,0.9,0.1,1.8,0.1,2.6C139.5,298.3,139.5,299.3,139.6,300.5z"/>
<path fill="#414042" d="M36.6,164c1.3,0.6,1.9,1.4,2.5,2.2c2.5,3.8,5.1,7.6,7.6,11.5c1.1,1.7,1.9,3.6,3.1,5.2
	c1.6,2.2,2.6,4.7,3.7,7.2c0.9,2.1,1.7,4.2,2.6,6.3c0.8,1.8,1.7,3.6,2.5,5.5c1,2.4,1.9,4.9,2.9,7.4c1.6,3.8,3.2,7.6,4.7,11.5
	c1.3,3.1,2.5,6.3,3.8,9.5c1.5,3.5,3,7.1,4.5,10.6c0.9,2.1,1.7,4.2,2.8,6.2c1.3,2.3,2,4.9,3.6,7c0.1,0.1,0.2,0.3,0.3,0.5
	c0.8,2.6,2.8,4.6,4.2,6.9c0.1,0.2,0.3,0.4,0.5,0.6c1.2,0.9,1.9,2.1,2.6,3.5c1,2.3,2.9,3.9,4.6,5.7c0.4,0.4,0.8,0.9,1.4,1.5
	c-1.7-0.6-2.9-1.4-3.9-2.5c-1.9-2-3.5-4.2-5.4-6.2c-1.3-1.4-2.4-2.9-3.5-4.4c-0.3-0.4-0.6-0.8-0.9-1.2c-1.4-2.8-2.8-5.7-4.1-8.5
	c-1.8-3.7-3.5-7.5-5.3-11.3c-1.7-3.6-3.6-7-5.3-10.6c-1.2-2.6-2.2-5.2-3.3-7.8c-1.9-4.7-3.7-9.4-5.6-14c-1.5-3.5-2.9-7.1-4.7-10.5
	c-2.2-4.3-4.1-8.7-6.2-13.1c-1.5-3-3.2-6-4.7-9C39.7,170.4,38.2,167.4,36.6,164z"/>
<path fill="#414042" d="M72.3,21.6c0.8,0.8,1.7,1.5,2.4,2.3c2.2,2.5,4.6,4.6,7.1,6.8c2.2,1.9,4.2,4,6.3,5.9c1.2,1.1,2.4,2.2,3.7,3.2
	c2.4,1.8,5,3.4,7.4,5.2c4.7,3.6,9.6,6.8,13.8,11.1c1,1,2.1,2,3.1,3c0.6,0.6,1,1.3,1.5,1.9c0.2,0.3,0.4,0.7,0.7,0.9
	c2.1,1.4,3.5,3.4,5,5.4c3.3,4.3,6.5,8.8,9.9,13.1c2.4,3.1,5,6,7.5,9c1.9,2.2,3.9,4.4,5.9,6.5c2,2.1,4.2,3.9,6.6,5.5
	c0.1,0.1,0.3,0.2,0.3,0.5c-0.5-0.2-1-0.4-1.5-0.5c-1.2-0.4-2.4-0.7-3.6-1.2c-0.6-0.2-1.1-0.5-1.6-1c-2.5-2.6-5-5.3-7.6-7.9
	c-1.2-1.2-2.2-2.4-2.7-4c-0.1-0.3-0.4-0.6-0.6-0.9c-1.6-2.1-3.2-4.3-4.9-6.4c-0.2-0.3-0.5-0.6-0.6-0.9c-1-2.3-2.8-4-4.5-5.8
	c-0.9-1-1.7-2-2.6-2.9c-0.9-0.9-1.9-1.8-2.9-2.7c-3.1-2.6-6.1-5.3-9.3-7.7c-2.8-2-5.2-4.3-7.9-6.4c-1.3-1-2.4-2.2-3.6-3.3
	c-1.6-1.3-3.2-2.6-4.9-3.8c-2.3-1.7-4.5-3.6-6.4-5.8c-1-1.1-2.3-2-3.3-3.1c-2.1-2.3-4.1-4.6-6.2-6.9c-1.5-1.7-2.7-3.6-4.4-5.1
	c-1.1-1-1.8-2.3-2.4-3.7C72.1,21.8,72.2,21.7,72.3,21.6z"/>
<path fill="#414042" d="M128.9,122.8c1,1.2,1.8,2,2.4,2.9c2.1,3,4.1,6,6.1,9c0.2,0.4,0.5,0.7,0.7,1.1c0.4,0.6,0.9,1.2,1.3,1.9
	c2.2,4.1,4.4,8.2,6.5,12.3c1.5,3,3.1,6.1,4.3,9.2c1.2,3.2,2.3,6.4,2.8,9.8c0.7,4.9,2.1,9.7,2.3,14.7c0.2,4.6,0.1,9.3-0.2,13.9
	c-0.2,3.1-0.5,6.1-0.7,9.2c0,0.6-0.2,1.2-0.3,1.8c-0.2,0-0.2,0.1-0.3,0.1c0,0-0.1-0.1-0.1-0.2c-0.1-2.1-0.2-4.2-0.3-6.2
	c-0.3-3.9-0.4-7.9-0.9-11.8c-0.7-5.2-1.8-10.4-2.7-15.6c-0.5-2.6-0.8-5.2-1.3-7.8c-0.3-1.3-0.8-2.5-1.3-3.7c-0.8-2-1.8-4-2.5-6.1
	c-1.4-4-3.5-7.7-5.3-11.5c-1.3-2.6-2.8-5-4.2-7.5c-1-1.9-1.7-3.9-2.5-5.9c-1.1-2.7-2.2-5.5-3.3-8.2
	C129.1,123.9,129,123.5,128.9,122.8z"/>
<path fill="#414042" d="M55.8,242.4c0.2,0.3,0.5,0.5,0.7,0.8c1.8,3.6,4.3,6.8,6.1,10.4c1.5,3.2,3.2,6.4,5,9.5
	c1.3,2.3,2.8,4.5,4.3,6.7c1.3,1.8,2.5,3.7,4.1,5.2c2.1,2,4,4.4,6.5,6c2.4,1.5,4.9,2.9,7.3,4.3c1.7,1,3.5,1.8,5.3,2.5
	c3.1,1.2,6.1,2.7,9.1,4.1c1.1,0.5,2.2,0.9,3.3,1.3c0.2,0.1,0.4,0.1,0.5,0.2c3.3,1.5,6.5,3,9.7,4.5c2.4,1.1,4.8,2.3,7,3.6
	c2.3,1.4,4.5,2.9,6.4,4.8c2.8,2.9,5,6.2,6.6,9.8c1.3,3,2.2,6.2,3.2,9.3c0,0.1-0.1,0.3-0.1,0.8c-0.8-2.1-1.6-4-2.2-5.9
	c-0.5-1.7-1.4-3.3-2.4-4.7c-1.6-2.2-3.3-4.4-5.3-6.4c-2.1-2-4.1-3.9-6.6-5.3c-3.3-1.9-6.7-3.5-10.4-4.5c-3.3-0.9-6.5-1.9-9.8-2.9
	c-2.2-0.7-4.3-1.3-6.5-2c-1.4-0.5-2.8-1.1-4.1-1.9c-2-1.2-3.8-2.7-5.6-4.1c-1.5-1.1-2.9-2.4-4.5-3.4c-2.2-1.4-3.8-3.3-5.4-5.2
	c-2-2.2-3.7-4.6-5.5-6.9c-0.7-0.9-1.3-2-1.8-3.1c-0.8-1.6-1.7-3.1-2.7-4.5c-1.2-1.5-2-3.3-3-5c-1-1.7-2-3.4-3-5c0-0.1,0-0.1-0.1-0.2
	c-2.2-2.2-2.9-5.3-4.4-7.9C56.7,246.1,55.9,244.4,55.8,242.4z"/>
<path fill="#414042" d="M40.6,161.7c3.3,1.4,5.6,3.4,7.8,5.6c1.5,1.5,2.9,3.1,4.3,4.7c1.3,1.5,2.5,3.1,3.7,4.8
	c1.1,1.5,2.1,3,3.1,4.5c1.5,2.4,2.9,4.9,4.2,7.4c1,2.1,1.7,4.3,2.6,6.5c1.2,3,2.3,5.9,3.5,8.9c0.6,1.6,1.1,3.3,1.7,5
	c2.5,6.8,5,13.6,7.5,20.4c1,2.7,1.9,5.5,2.8,8.2c0.1,0.2,0.1,0.5,0.3,0.7c1.1,1,1.3,2.4,1.9,3.7c0.6,1.2,1.3,2.3,1.9,3.5
	c0.1,0.1,0.2,0.2,0.2,0.3c0.8,1.7,1.6,3.4,2.4,5.1c1,2,1.8,4,2.9,5.9c2.3,4,4.8,8,7.2,11.9c0.9,1.4,2,2.6,3.2,4.1
	c-0.6-0.4-1-0.5-1.2-0.8c-1.7-1.9-3.4-3.7-5-5.7c-1.5-1.8-2.9-3.6-4.2-5.5c-1-1.4-1.8-2.9-2.6-4.3c-1.5-2.8-2.9-5.6-4.3-8.4
	c-1.2-2.5-2.3-5.2-3.5-7.7c-1.1-2.5-2.4-4.9-3.4-7.4c-1.3-3.1-2.5-6.2-3.8-9.3c-0.5-1.2-1.1-2.4-1.5-3.6c-1.5-4.3-2.9-8.7-4.4-13.1
	c-1.2-3.6-2.5-7.3-3.8-10.8c-1-2.6-2.1-5.1-3.3-7.6c-2.5-5.4-5.1-10.7-8.9-15.3c-2.4-2.8-5-5.5-7.5-8.2
	C43.1,164.1,42,163.1,40.6,161.7z"/>
<path fill="#414042" d="M88.5,221c-0.2-0.6-0.5-1.2-0.7-1.8c-0.4-1.8-1.1-3.5-1.9-5.1c-1.1-2.2-1.8-4.6-2.7-6.8
	c-1.2-3.2-2.6-6.4-3.7-9.7c-0.8-2.5-1.7-4.8-2.9-7.1c0-0.1-0.1-0.1-0.1-0.2c-0.4-3.3-2.8-5.6-4.4-8.2c-1.6-2.5-3.4-4.8-5.6-6.8
	c-0.3-0.3-0.6-0.7-1-0.9c-2.6-1.7-3.7-4.5-5.1-7.1c-0.3-0.5-0.5-1-0.8-1.5c-2-2.7-3.4-5.7-4.8-8.7c-1.1-2.4-2.3-4.8-3.2-7.2
	c-0.7-1.9-1.6-3.8-1.8-5.9c-0.1-0.8-0.6-1.5-0.9-2.3c-0.5-1.3-0.9-2.6-1.3-3.9c-0.3-1-0.5-2.1-0.8-3.4c0.3,0.3,0.4,0.4,0.5,0.5
	c1.5,3.4,2.8,6.9,4.5,10.2c1.6,3.1,3.6,5.9,5.5,8.8c0.7,1.1,1.3,2.2,2,3.2c1,1.7,2.1,3.4,3.2,5.1c1.3,2.1,2.6,4.3,4.1,6.3
	c1.7,2.3,3.1,4.7,4.6,7.1c1.4,2.3,3.1,4.4,4.6,6.7c0.6,0.9,1.1,1.8,1.5,2.8c1.2,2.6,2.7,4.9,4,7.5c2.2,4.4,3.6,9.1,5.1,13.7
	c0.6,1.9,0.9,3.7,1.1,5.7c0.2,2.1,0.7,4.1,1.1,6.1c0.2,0.9,0.3,1.8,0.4,2.7C88.8,220.9,88.6,221,88.5,221z"/>
<path fill="#414042" d="M135.4,157.8c0.8,2.1,1.7,4.3,2.5,6.4c0.4,1,0.9,2.1,1.3,3.1c0.2,0.6,0.5,1.2,0.7,1.8c0.7,2,1.4,3.9,2,5.9
	c0.1,0.4,0.2,0.7,0.3,1.1c0.7,3.7,1.5,7.4,2.2,11.1c0.5,2.8,0.8,5.7,1.3,8.6c0.6,3.3,1.2,6.7,1.9,10c0.8,3.9,1.6,7.9,2.4,11.8
	c0.3,1.5,0.3,3.1,0.5,4.7c0.2,1.9,0.3,3.8,0.4,5.7c0,0.4,0,0.8-0.3,1.3c-1-2.1-2.1-4.1-2.9-6.2c-1.5-4.1-3.3-8.1-4.4-12.4
	c-0.7-2.7-1.4-5.5-2-8.2c-0.5-2.2-0.9-4.4-1.1-6.7c-0.2-1.9-0.3-3.9-0.4-5.8c-0.3-3.4-0.6-6.9-0.9-10.3c-0.2-2.3-0.5-4.6-0.6-7
	c-0.2-2.6-0.5-5.2-1.3-7.8c-0.7-2.2-1.1-4.6-1.7-6.9C135.3,157.9,135.4,157.8,135.4,157.8z"/>
<path fill="#414042" d="M24.3,25c3.4,4.8,6.5,9.7,8.9,14.9c1.6,3.4,3.7,6.4,6,9.3c1.9,2.4,3.7,4.9,5.6,7.3c1.9,2.4,4.1,4.6,6,7
	c1.1,1.3,2.2,2.8,3.3,4.1c0.1,0.1,0.2,0.3,0.4,0.4c2.1,1.8,3.6,4.2,5.2,6.4c3,3.9,5.3,8.2,7.5,12.6c0.4,0.7,0.6,1.5,0.7,2.3
	c0.3,2.1,0.4,4.2,0.6,6.4c0,0.3-0.1,0.6-0.2,1.2c-0.9-1.5-1.7-2.7-2.3-3.9c-2.1-4.7-4.7-9-7.9-13c-2.4-3.1-5-6-7.4-9.1
	c-1.7-2.2-3.3-4.4-4.9-6.7c-1.6-2.2-3.3-4.4-4.8-6.7c-1.5-2.3-2.7-4.7-4.1-7c-2.6-4.7-5.2-9.5-7.8-14.2c-0.7-1.2-1.2-2.5-1.9-3.7
	c-0.3-0.7-0.7-1.3-1.1-1.9c-0.1-0.2-0.3-0.4-0.4-0.6C25.3,28.5,24.8,26.8,24.3,25z"/>
<path fill="#414042" d="M168.3,249.2c-0.2-1.7-0.3-3.5-0.6-5.2c-0.2-2.1-0.7-4.2-0.8-6.4c-0.1-3.1,0.1-6.2-0.4-9.2
	c0-0.1,0-0.3,0-0.4c0.6-4.6,0.3-9.3,0.3-13.9c0-1.6,0.2-3.3,0.3-4.9c0.1-0.9,0.1-1.9,0.1-2.8c0.1-1.4,0-2.9,0.3-4.3
	c0.5-2.6,0.2-5.1,0.4-7.7c0-0.3,0-0.5,0-0.8c0.7-2,0.3-4.1,0.4-6.2c0-1.4,0.3-2.9,0.3-4.3c0.1-1.3,0.1-2.5,0.1-3.8
	c0-1.6-0.1-3.1,0.6-4.9c0.3,0.6,0.7,0.9,0.7,1.2c0.4,3.4,0.9,6.9,1.1,10.3c0.1,2.9-0.2,5.9-0.2,8.8c0,2.3,0.1,4.5,0.3,6.8
	c0.5,5.3,0.1,10.7,0.4,16c0.3,6.1-0.3,12.2-0.9,18.2c-0.4,4-0.8,8.1-1.9,12.1c-0.1,0.4-0.3,0.8-0.4,1.3
	C168.6,249.2,168.5,249.2,168.3,249.2z"/>
<path fill="#414042" d="M167,174.1c-0.4,5.1-0.7,10.3-1.1,15.4c0,0.2-0.1,0.4-0.1,0.6c0,5.8-0.5,11.5-1.1,17.3
	c-0.2,1.8-0.1,3.6-0.1,5.4c-0.1,4-0.3,8.1-0.3,12.1c0.1,5.7,0.3,11.5,0.6,17.2c0.3,4.3,0.9,8.6,1.3,12.9c0.2,1.7,0,3.5,0,5.4
	c-0.6-0.4-0.7-0.9-0.9-1.5c-0.6-2.2-1.4-4.4-1.9-6.7c-0.5-2.1-0.9-4.3-1.4-6.4c-0.2-0.9-0.4-1.8-0.6-2.8c-0.1-0.3-0.2-0.6-0.2-0.9
	c-0.1-2.7-0.4-5.4-1-8c-0.1-0.6-0.2-1.3-0.1-1.9c0.4-2.1,0-4.3-0.1-6.4c0-5.1,0.3-10.3,0.8-15.4c0.3-2.4,0.4-4.9,0.7-7.3
	c0.4-2.9,1-5.7,1.6-8.5c0.1-0.7,0.2-1.4,0.4-2c0.5-2.8,1-5.6,1.5-8.3c0.1-0.6-0.1-1.3,0-1.9c0.4-2.8,0.9-5.6,1.3-8.4
	C166.6,174.1,166.8,174.1,167,174.1z"/>
<path fill="#414042" d="M103.3,179.2c-0.1-2.7-0.3-5.4-0.4-8.1c-0.1-1.6-0.2-3.3-0.2-4.9c-0.1-7.6-0.3-15.2-0.2-22.8
	c0.1-4.4,0-8.8,0.8-13.2c0.3-1.8,0.2-3.7,0-5.5c-0.5-5.1-1.1-10.1-2.5-15.1c-0.9-3-2-6-3-8.9c-0.8-2.4-1.8-4.8-2.6-7.2
	c1,0.6,1.5,1.6,2,2.5c1.6,3,3.4,5.9,4.7,9c1.3,3.1,2.2,6.3,2.9,9.5c1.2,5,1.6,10,2,15.1c0.3,4.5,0.2,8.9-0.1,13.4
	c-0.2,3.2-0.3,6.4-0.5,9.6c-0.1,1.7-0.3,3.4-0.4,5.1c-0.1,0.8-0.1,1.6-0.1,2.4c-0.3,3.4-0.7,6.9-1,10.3c-0.2,2.3-0.4,4.5-0.6,6.8
	c-0.1,0.6-0.2,1.2-0.3,1.8C103.5,179.1,103.4,179.2,103.3,179.2z"/>
<path fill="#414042" d="M176.1,110.2c0.6,2.4,1.1,4.8,1.7,7.3c0.1,0.2,0,0.5,0.1,0.7c1.9,4.7,3.8,9.4,5.7,14.1
	c0.2,0.6,0.7,1.1,1,1.6c0.5,0.8,1,1.5,1.4,2.3c1.7,3.7,3.5,7.4,5.2,11.1c1.3,2.8,2.4,5.7,3.6,8.5c0.1,0.2,0.2,0.5,0.3,0.7
	c2.1,2.9,3.4,6.1,4.3,9.5c0.5,1.8,0.3,3.5-0.3,5.2c-0.2,0.6-0.4,1.3-0.4,2c-0.1,1.2-0.6,2.3-1.5,3.4c-0.5-0.9-0.6-1.8-0.6-2.6
	c0-1.2-0.1-2.4-0.8-3.4c-0.1-0.2-0.2-0.3-0.2-0.5c-0.7-2.7-1.9-5.3-3-7.9c-0.8-1.9-1.9-3.6-2.7-5.4c-1-2.3-1.8-4.7-2.7-7.1
	c-0.8-2.1-1.5-4.3-2.4-6.3c-1.2-3.1-2.6-6.1-3.8-9.2c-0.4-1.1-0.7-2.3-1-3.4c-0.1-0.5-0.2-1-0.5-1.4c-0.6-1-0.8-2.1-1.4-3.1
	c-0.9-1.8-1.3-3.8-1.9-5.7c-0.2-0.5-0.2-1-0.2-1.5c-0.1-0.5,0.1-1.1-0.1-1.5c-0.7-1.4-0.6-2.8-0.2-4.2c0.1-0.6,0.1-1.2,0.1-1.9
	c0-0.4,0-0.8,0.1-1.2C175.9,110.3,176,110.3,176.1,110.2z"/>
<path fill="#414042" d="M167.4,104.5c-0.4-0.5-0.8-0.9-1.2-1.4c-1.4-1.7-2.7-3.4-4.2-5.1c-1.8-2-3.7-3.8-5.4-5.7
	c-1.1-1.2-1.9-2.6-3-3.9c-1-1.1-2.1-2.1-3.2-3.2c-2-2.1-4.1-4-6-6.2c-1.4-1.6-2.4-3.5-3.6-5.3c-0.5-0.7-1.1-1.4-1.6-2.1
	c-1.6-2.6-3.5-5-5.4-7.4c-0.5-0.6-0.9-1.2-1.3-1.9c-0.8-1.2-1.6-2.5-2.5-3.7c-1.9-2.4-3.9-4.7-6.2-6.9c-2.3-2.2-4.7-4-7.4-5.5
	c-4-2.3-8.1-4.6-12-7.1c-3.7-2.3-7.3-4.6-11-7c-0.5-0.3-0.8-0.7-1.1-1.4c0.4,0.1,0.9,0.1,1.3,0.2c3.1,1.3,6.3,2.6,9.4,3.9
	c3.9,1.7,7.8,3.4,11.1,5.9c3.4,2.6,6.8,5.1,9.9,8.1c5.2,5.2,9.8,10.9,14.4,16.7c0.9,1.1,1.5,2.5,2.2,3.7c0.5,0.8,1.2,1.6,1.7,2.5
	c2,2.9,4,5.8,6.1,8.6c0.4,0.6,1,1.2,1.5,1.7c1.5,1.5,3,3,4.2,4.8c0.7,1,1.7,1.8,2.5,2.8c2.4,2.8,4.9,5.6,7.2,8.5
	c1.2,1.5,2.2,3.2,3.3,4.8c0.2,0.3,0.3,0.8,0.4,1.2C167.6,104.5,167.5,104.5,167.4,104.5z"/>
<path fill="#414042" d="M130.1,211c0,0.7,0,1.3,0,2c-0.1,2.5-0.3,5-0.4,7.5c-0.1,3.9-1.1,7.7-1.9,11.5c-0.4,2-0.7,4-1.1,5.9
	c-0.8,3.7-0.7,7.5-1.1,11.2c0,0.4,0,0.9,0,1.3c0,1.2,0,2.5,0,3.7c0,1.2,0.1,2.4,0.3,3.6c0.4,3.4,0.8,6.7,1.2,10.1
	c0.2,1.1,0.6,2.1,0.8,3.3c-1-0.7-1.3-1.9-1.7-3c-0.5-1.2-1-2.3-1.5-3.5c-0.5-1.3-1.3-2.4-1.3-3.9c0-0.4-0.2-0.7-0.3-1.1
	c-1.2-3.9-1.7-8-2.5-12c-0.1-0.7,0.1-1.5,0.1-2.2c0-1.2-0.3-2.4-0.2-3.5c0.3-2.7,0.5-5.5,1.1-8.2c1.1-4.6,2.8-9.1,4.7-13.5
	c0.8-2,1.7-4.1,2.5-6.1c0.4-1,0.7-2.1,1-3.2C129.8,211,130,211,130.1,211z"/>
<path fill="#414042" d="M153,354.5c-0.6-0.9-1.3-1.9-1.8-2.8c-1.1-2.1-1-4.3-0.4-6.5c1.4-4.9,3.1-9.7,3.3-14.8
	c0.1-1.9,0.5-3.7,0.7-5.6c0.1-1.1,0-2.1,0.1-3.2c0.2-4.8,0.5-9.6,0.6-14.3c0-1-0.3-2-0.2-3c0.3-2.8-0.1-5.5,0.1-8.2
	c0.1-2.1,0.2-4.3,0-6.4c-0.2-2.6-0.6-5.2-1.1-7.8c-0.4-2.2-1.1-4.4-1.6-6.6c-0.2-0.9-0.3-1.8,0-2.8c0.3,1,0.6,2,0.8,3
	c0.7,2.4,1.4,4.8,2,7.3c0.8,3.1,1.5,6.2,2.2,9.4c0.6,2.6,1.1,5.3,1.6,8c0,0.2,0.1,0.4,0.1,0.6c-0.6,3,0.1,6-0.1,9
	c-0.2,3.4-0.1,6.8-0.4,10.1c-0.4,5-0.7,10-2.3,14.9c-0.4,1.2-0.4,2.5-0.6,3.7c-0.2,1.4-0.4,2.7-0.8,4.1c-0.7,2.4-1.1,4.8-1.1,7.2
	c0,1.7-0.3,3.3-0.5,5C153.3,354.5,153.1,354.5,153,354.5z"/>
<path fill="#414042" d="M66.9,255.6c1.3,2,2.7,3.9,4,5.9c0.1,0.2,0.2,0.3,0.3,0.5c2,2,3.9,4.1,5.9,6.1c0.1,0.1,0.2,0.2,0.3,0.3
	c3,1.6,5.7,3.8,9,5c2.7,1,5.4,2,8,3.1c3,1.3,6,2.4,9,3.6c1.6,0.7,3.2,1.5,4.7,2.3c1.6,0.8,3.3,1.6,4.9,2.4c0.9,0.5,5.7,1.7,6.2,2
	c1,0.7,5.1,1.7,6.2,2.5c1.3,1,2.7,1.8,4.1,2.7c0.2,0.2,0.4,0.4,0.5,0.9c-0.5-0.2-1.1-0.5-1.6-0.7c-3.9-1.3-7.7-2.7-11.7-3.9
	c-4.5-1.3-9.1-2.3-13.7-3.6c-4-1.2-8.1-2.4-11.9-4.2c-2.9-1.3-5.7-2.7-8.2-4.6c-2.2-1.6-4.5-3.2-6.6-5.1c-1.3-1.1-2.2-2.7-3.2-4.1
	c-0.1-0.1-0.1-0.4-0.2-0.5c-2.1-2.3-3.1-5.3-4.8-7.9c-0.6-0.9-1-1.8-1.5-2.8C66.7,255.7,66.8,255.6,66.9,255.6z"/>
<path fill="#414042" d="M151,208.2c-0.7-3.3-1.3-6.7-2-10c-0.4-2.1-1-4.3-1.4-6.4c-0.1-0.7-0.2-1.4-0.2-2c-0.1-0.7,0-1.4-0.2-2.1
	c-0.7-2.2-1-4.4-1.3-6.7c-0.2-1.5-0.7-2.9-1.1-4.4c-0.6-2.2-0.9-4.6-2.3-6.5c-0.1-0.2-0.2-0.5-0.3-0.7c-0.4-2.5-2-4.6-2.6-7
	c-0.8-3.3-2.8-6.1-3.8-9.4c-0.7-2.3-1.7-4.6-2.5-6.9c-0.7-1.7-1.4-3.3-2-5c-0.3-0.9-0.6-1.9-0.8-2.9c-0.4-1.9-0.7-3.8-1-5.7
	c0-0.1,0.1-0.2,0.2-0.5c0.3,0.6,0.5,1.1,0.7,1.6c0.6,1.3,1.1,2.7,1.7,4c1.9,3.6,3.9,7.2,5.7,10.9c1.7,3.4,3.2,6.8,4.7,10.3
	c2.7,6.4,4.7,13,5.7,19.9c0.5,3.4,1.2,6.8,1.8,10.2c0.2,1.4,0.4,2.9,0.5,4.3c0.2,2.6,0.3,5.3,0.4,7.9c0.1,1.7,0.3,3.4,0.4,5.1
	c0,0.7,0,1.4,0,2.1C151.2,208.2,151.1,208.2,151,208.2z"/>
<path fill="#414042" d="M91.8,147.9c-1-1.7-1.9-3.4-2.9-5c-1.1-1.7-2.1-3.7-3.5-5.1c-2.1-2-3.7-4.4-5.4-6.8c-0.5-0.7-1-1.3-1.5-1.8
	c-2.5-2.5-4.9-5.1-7.4-7.5c-1.2-1.1-2.5-2.1-3.8-3.1c-2.4-1.9-4.7-4-6.8-6.3c-2.2-2.5-4.7-4.7-7.1-7c-0.9-0.9-1.7-1.9-2.5-2.8
	c-0.6-0.6-1.3-1.2-1.9-1.8c-0.7-0.6-1.4-1.2-1.9-2.1c0.8,0.4,1.6,0.9,2.4,1.4c4.7,3.1,9.5,5.8,14.3,8.7c1.4,0.9,2.8,1.9,4,3.1
	c4.6,4.3,8.6,9.2,12.3,14.2c1.7,2.3,3.5,4.4,5.1,6.7c3.1,4.4,5.6,9.1,7,14.3c0.1,0.2,0,0.5,0,0.7C92,147.8,91.9,147.9,91.8,147.9z"
	/>
<path fill="#414042" d="M107.8,271.6c-1.1-1.4-2.3-2.8-3.3-4.3c-2.4-3.4-4.8-6.9-7-10.4c-1-1.6-1.7-3.5-2.5-5.3
	c-2-4.6-4-9.1-5.8-13.7c-2.4-6.4-4.7-12.9-7-19.4c-1.8-5.1-3.7-10.2-5.6-15.3c-1.3-3.5-2.5-7.1-3.9-10.6c-1.3-3.1-2.6-6.1-4.2-9.1
	c-0.9-1.6-2.2-3-3.4-4.5c-1.8-2.1-3.7-4.2-5.4-6.6c2,1.8,4.1,3.5,5.9,5.4c3.3,3.4,5.6,7.4,8,11.4c0.6,1,0.8,2.1,1.2,3.2
	c1.4,3.6,2.9,7.1,4.3,10.7c1.3,3.5,2.5,7,3.8,10.5c0.9,2.5,2,4.9,2.9,7.4c0.4,1.2,0.6,2.4,0.8,3.6c0.1,0.5,0.2,1.1,0.4,1.6
	c0.7,1.7,1.5,3.4,1.8,5.3c0.3,1.6,1,3.1,1.7,4.6c2.5,5.6,5.2,11.1,7.7,16.6c1.6,3.6,3.6,7,5.3,10.6
	C104.8,266.1,106.5,268.7,107.8,271.6z"/>
<path fill="#414042" d="M173.5,233.3c0.1-0.8,0.1-1.7,0.2-2.5c0.2-2.6,0.5-5.1,0.7-7.7c0.1-0.7,0-1.5,0-2.3c-0.1-1.5-0.3-3-0.3-4.5
	c0-3.3,0.1-6.7,0-10c0-2.6-0.2-5.2-0.3-7.7c-0.1-2.1-0.2-4.2-0.4-6.4c0-0.3-0.1-0.7,0-0.9c1-3.6-0.5-7.1-0.1-10.7
	c0.1-0.7-0.2-1.4-0.3-2c-0.2-1-0.3-2-0.5-3c-0.1-0.7-0.2-1.5-0.5-2.2c-0.9-1.8-1.2-3.8-1.4-5.8c-0.1-1-0.4-2-0.5-3
	c-0.1-0.6-0.1-1.3-0.2-2.3c0.4,0.5,0.5,0.6,0.6,0.7c1.3,4.6,2.6,9.2,3.9,13.8c0.5,1.8,1.1,3.6,1.6,5.4c0.9,3.9,1.8,7.8,2.6,11.8
	c0.3,1.3,0.1,2.7,0.2,4.1c0,0.8-0.1,1.6-0.1,2.4c-0.1,2.3-0.2,4.5-0.2,6.8c-0.1,1.8,0,3.5-0.2,5.3c-0.3,2.8-0.5,5.6-1.2,8.4
	c-0.6,2-0.6,4.1-1.1,6.1c-0.5,2.2-1.3,4.3-2,6.4C173.7,233.4,173.6,233.3,173.5,233.3z"/>
<path fill="#414042" d="M114,89.7c2.3,1.1,4.4,2.5,6.8,3.1c3,0.8,5.8,2.3,8.9,3.1c3.6,0.9,7.1,2.1,10.6,3.3c1.7,0.6,3.2,1.6,4.8,2.2
	c1.4,0.6,3,1,4.4,1.5c3.3,1.1,6.5,2.6,9.7,4.2c2.5,1.2,4.8,2.6,6.9,4.5c1.2,1.1,2.2,2.3,3,3.6c0.4,0.7,0.7,1.4,1.2,1.9
	c1.7,1.9,1.3,4.2,1.3,6.9c-1-1.5-1.7-2.7-2.6-3.7c-2.3-2.4-4.4-5-7.3-6.8c-1.2-0.8-2.2-1.8-3.4-2.7c-0.9-0.7-1.8-1.4-2.7-2
	c-4-2.5-8.3-4.1-12.9-5.3c-2.6-0.7-5.2-1.2-7.8-1.9c-1.1-0.3-2.1-0.8-3.2-1.1c-2.4-0.9-4.9-1.7-7.2-2.6c-0.7-0.3-1.3-0.8-1.9-1.2
	c-1.6-1.2-3.5-2-4.7-3.7c-0.3-0.4-1-0.6-1.4-1c-0.9-0.7-1.7-1.4-2.6-2.1C113.8,89.8,113.9,89.7,114,89.7z"/>
<path fill="#414042" d="M129.8,113c3,2,6.1,3.9,9.1,6c1.9,1.3,3.7,2.8,5.5,4.3c1.5,1.2,3,2.3,4.4,3.5c3.6,3.2,6.3,7,8.3,11.3
	c0.6,1.4,1.5,2.7,2.2,4.2c1.6,3.5,2.7,7.2,3.7,10.8c0.9,3.2,1.2,6.4,0.9,9.7c-0.2,2.1-0.1,4.3-0.3,6.4c-0.2,1.9-0.6,3.8-1,5.7
	c-0.3,1.6-0.8,3.1-1.5,4.6c0.1-1,0.2-1.9,0.3-2.9c0.4-3.2,0.6-6.5,0.4-9.8c-0.1-2.3-0.2-4.6-0.7-6.9c-0.5-2.2-1-4.3-1.9-6.3
	c-1.2-2.8-2.3-5.6-3.4-8.4c-1.7-4.2-3.4-8.4-5.9-12.2c-2.3-3.5-4.8-6.7-8.1-9.4c-0.7-0.6-1.4-1.3-2.1-1.9c-2.2-2-4.4-3.9-6.7-5.9
	c-1.1-1-2.4-1.8-3.6-2.7C129.6,113.2,129.7,113.1,129.8,113z"/>
<path fill="#414042" d="M129.5,192c-0.1,2.8,0,5.7-0.4,8.4c-0.7,5-2.1,10-3.7,14.8c-0.9,2.8-2.2,5.4-3.3,8.2
	c-0.9,2.3-2.1,4.5-2.5,6.9c-0.7,3.4-1.9,6.8-1.7,10.4c0.1,0.8-0.2,1.6-0.2,2.4c0,1.8,0,3.5,0,5.7c-0.8-1-1.1-1.7-1.4-2.6
	c-0.2-1-0.5-1.9-0.7-2.9c-0.2-0.8-0.4-1.6-0.4-2.4c0.1-2.6,0.1-5.2,0.4-7.7c0.4-2.9,0.9-5.7,1.6-8.5c0.7-3,1.6-5.9,3.1-8.6
	c0.1-0.2,0.1-0.5,0.1-0.7c0.8-3,1.9-5.9,3.2-8.8c1.2-2.8,2.5-5.6,3.6-8.5c0.8-2,1.5-4.1,2.2-6.2C129.3,191.9,129.4,191.9,129.5,192z
	"/>
<path fill="#414042" d="M106.6,274c-1.8-1-2.7-2.6-3.8-4.1c-0.3-0.4-0.6-1-1-1.3c-1.6-1.2-2.5-2.8-3.3-4.5c-0.5-1.1-1.4-2.1-2-3.2
	c-0.7-1.2-1.3-2.4-2-3.6c-0.6-1.1-1.3-2.2-1.9-3.2c-0.2-0.3-0.4-0.5-0.5-0.8c-1.3-2.7-2.5-5.5-3.8-8.2c-0.8-1.7-1.8-3.3-2.5-5
	c-0.9-2.2-1.7-4.4-2.9-6.5c-0.2-0.4-0.2-1-0.3-1.5c-0.1-0.4-0.1-0.8-0.3-1.1c-1.8-3.3-2.1-7.2-4.1-10.5c-0.4-0.6-0.7-1.4-0.8-2.1
	c-0.3-2.6-1.9-4.8-2.5-7.2c-0.5-2.3-1.7-4.2-2.4-6.3c0-0.1,0-0.1-0.1-0.2c-0.2-2.2-1.3-4-2.2-5.9c-0.5-1.1-0.9-2.2-0.8-3.5
	c0-0.5-0.4-1-0.6-1.5c-1-1.7-2-3.3-2.1-5.4c0-0.5-0.4-1-0.7-1.5c-1.1-1.4-2.2-2.8-2.8-4.4c-0.6-1.7-2-2.9-3.1-4.3
	c-0.5-0.6-0.9-1.3-1.4-2c0.3,0,0.4-0.1,0.4,0c2.7,3.1,5.7,5.9,7.7,9.5c1.6,2.9,3.1,5.8,4.3,8.8c2.1,5.1,4,10.3,5.9,15.5
	c1,2.7,1.7,5.4,2.6,8.1c0.3,1,1,1.9,1.4,2.8c0.5,1.2,0.8,2.4,1.2,3.6c0.5,1.5,1,3,1.6,4.4c0.9,2.4,1.8,4.7,2.7,7
	c0.1,0.3,0.1,0.6,0.3,0.9c1.4,2.4,2.1,5.1,3,7.7c0.4,1.1,0.9,2.2,1.4,3.3c0.8,1.8,1.6,3.6,2.4,5.3c1.3,2.7,2.6,5.3,4,7.9
	c0.5,0.9,1.2,1.6,1.7,2.5c0.5,0.9,0.9,1.8,1.4,2.7c0.3,0.5,0.5,1.1,0.9,1.4c1.3,1.1,2.1,2.5,3,3.9
	C105.1,272.3,105.9,273.1,106.6,274z"/>
<path fill="#414042" d="M129.6,149.8c0.4,1.4,0.9,2.7,1.2,4c1.2,3.9,2.2,7.7,3.5,11.5c0.9,2.6,1.2,5.3,1.7,7.9
	c0.1,0.4,0.1,0.7,0.1,1.1c0,4.2,0.7,8.3,1.1,12.4c0.2,1.6,0.1,3.1,0.2,4.7c0.1,0.9,0.2,1.7,0.3,2.6c0.2,2.7,0.4,5.5,0.7,8.2
	c0.2,1.4,0.5,2.7,0.9,4c1.4,4.6,2.8,9.1,4.2,13.6c0,0.1,0,0.2-0.1,0.5c-1.5-2.1-2.3-4.4-3.3-6.6c-1.5-3.6-2.7-7.3-3.4-11.2
	c-0.4-1.7-0.5-3.5-0.8-5.2c-0.7-4.2-1.4-8.3-2.3-12.4c-0.4-1.9-0.5-3.9-0.7-5.8c0-0.4,0-0.8-0.2-1.1c-1.4-2-1.1-4.5-1.7-6.7
	c-0.6-2.5-1-5-1.3-7.6c-0.3-2.1-0.3-4.3-0.4-6.4c0-0.5,0-1-0.1-1.5c0-0.6-0.1-1.3,0-1.9C129.2,152.7,129.4,151.3,129.6,149.8z"/>
<path fill="#414042" d="M148.4,272.2c0.9,0.2,0.9,0.9,1,1.5c0.6,5.6,1,11.3,0.4,16.9c-0.4,3.9-0.7,7.8-1,11.7
	c-0.1,1.7-0.2,3.4-0.2,5.1c0,3.9-0.7,7.8-1.2,11.6c-0.5,3.3-0.7,6.6-0.8,10c0,0.2-0.1,0.4-0.3,0.6c-0.4-1.6-0.9-3.1-1.2-4.7
	c-0.5-2.3-0.8-4.6-1.2-6.9c-0.1-0.4-0.2-0.9-0.4-1.3c-0.3-0.9-0.3-1.6,0.1-2.5c0.4-0.8,0.2-2,0.2-2.9c0-0.7-0.1-1.5,0-2.2
	c0.2-2.2,0.3-4.4,0.6-6.5c0.2-2.1,0.5-4.1,0.9-6.1c0.3-1.7,0.9-3.4,1.3-5.1c0.3-1.6,0.5-3.2,0.7-4.8c0.2-1.9,0.2-3.8,0.3-5.6
	c0.1-2.4,0.3-4.8,0.5-7.2C148.1,273.1,148.3,272.6,148.4,272.2z"/>
<path fill="#414042" d="M204.6,164.9c-0.2-2.6-0.3-4.7-0.5-6.8c0-0.3,0-0.5-0.1-0.7c-1.6-4.6-2.7-9.3-5.1-13.6
	c-1.6-2.9-3.2-5.7-4.6-8.7c-1.3-2.6-2.4-5.2-3.7-7.8c-1.4-2.9-2.9-5.7-4.4-8.6c-0.4-0.8-0.8-1.6-1.3-2.3c-0.8-1.4-1.7-2.8-2.6-4.2
	c-0.4-0.7-0.8-1.5-1-2.5c0.3,0.3,0.6,0.5,0.8,0.9c2,2.9,4.1,5.7,6.1,8.6c1.6,2.3,3,4.6,4.5,7c0.4,0.7,1,1.3,1.4,2
	c1.9,2.6,3.8,5.2,5.6,7.8c1.6,2.3,3,4.7,4.4,7c0.3,0.5,0.5,1,0.7,1.5c0.5,1.3,0.4,2.7,1.4,3.8c0.1,0.1,0.1,0.4,0.1,0.5
	c0.2,1.5,0.2,3,0.5,4.5c0.3,2,0.1,3.9-0.1,5.8C206.8,161.2,205.8,162.9,204.6,164.9z"/>
<path fill="#414042" d="M29.7,42.6c1.1,1.9,2.1,3.8,3.2,5.7c2.6,4.6,5.1,9.2,8.1,13.6c1.9,2.8,4.1,5.4,6.3,8
	c0.2,0.2,0.3,0.4,0.5,0.6c1.5,2.6,3.5,4.8,5.3,7.1c2.2,2.7,4.3,5.5,6.5,8.3c0.3,0.3,0.5,0.7,0.7,1.1c1.1,2,2.2,4.1,3.3,6.1
	c0.2,0.4,0.4,0.9,0.3,1.5c-1-1.2-2.1-2.4-3.1-3.7c-2.2-2.6-4.3-5.3-6.9-7.5c-1.4-1.2-2.8-2.3-4.2-3.5c-1-0.9-1.9-2-2.8-3.1
	c-0.3-0.4-0.6-0.8-1-1.1c-1.1-1.1-2.2-2.2-3-3.6c-0.5-1-1.5-1.8-1.9-2.8c-0.9-2.1-2.2-4-3.1-6c-1.4-3.4-3.5-6.5-4.7-10
	c-0.6-1.9-1.8-3.6-2.4-5.5c-0.6-1.7-1-3.4-1.4-5.1C29.5,42.7,29.6,42.6,29.7,42.6z"/>
<path fill="#414042" d="M21.4,11c0.7,0.9,1.5,1.7,2.1,2.6c2.1,3.1,4.7,5.7,7.6,8.1c1,0.8,1.9,1.8,2.9,2.7c1,0.9,2.1,1.8,3.1,2.7
	c0.3,0.3,0.7,0.5,1,0.8c3.9,3.8,7.8,7.5,11.6,11.4c5.3,5.3,9.8,11.1,13.4,17.7c0.5,0.8,0.9,1.7,1.2,2.6c0.1,0.3-0.1,0.7-0.3,1.5
	c-1.7-1.7-3.1-3.1-4.4-4.6c-1.7-1.8-3.2-3.7-4.9-5.5c-2.8-2.9-5.3-6-7.8-9.2c-1.2-1.5-2.7-2.8-4-4.2c-1.8-1.9-3.5-3.8-5.2-5.7
	c-1.4-1.5-2.8-2.9-4.2-4.3c-0.2-0.2-0.4-0.3-0.6-0.5c-1.5-2.5-3.4-4.7-5.3-6.8c-0.7-0.8-1.5-1.7-2.3-2.5c-1.8-1.9-3.2-4-4.3-6.3
	C21.2,11.2,21.3,11.1,21.4,11z"/>
<path fill="#414042" d="M121.9,100.5c2,1.1,4,2.2,6,3.4c1.2,0.7,2.4,1.4,3.6,2c1,0.6,1.9,1.2,2.9,1.7c2.6,1.4,5.2,2.7,7.9,4.1
	c2.8,1.4,5.6,2.7,8.4,4.3c2.7,1.5,5.4,3.2,8,5c2.3,1.7,4,3.9,5.9,6.1c1.5,1.8,2.4,3.7,2.9,5.8c0.5,2.1,0.7,4.3,0.2,6.5
	c-0.1,0.6-0.1,1.2,0,1.8c0.1,1.3,0.2,1.3-0.5,2.7c-0.7-2.2-1.5-4.1-2.1-6.2c-1-3.4-2.7-6.5-5.2-9c-2.3-2.3-4.4-4.8-6.7-7.1
	c-1.4-1.4-3.1-2.5-4.7-3.7c-1.8-1.3-3.6-2.5-5.5-3.6c-3.2-2-6.5-4-9.8-6c-3.1-1.9-6.2-3.8-9.3-5.7c-0.7-0.5-1.3-1.1-2-1.6
	C121.7,100.8,121.8,100.6,121.9,100.5z"/>
<path fill="#414042" d="M90.7,131.7c-0.6-1.3-1.3-2.5-1.8-3.8c-1.3-3.2-2.5-6.4-3.9-9.6c-0.5-1.2-1.2-2.3-1.8-3.5
	c-1.3-2.6-2.5-5.2-3.7-7.8c-0.4-1-0.5-2.1-0.7-3.1c-0.7-4-1.5-7.9-2.2-11.9c-0.2-1.1-0.1-2.3,0.1-3.6c1,1.6,2,3.1,3,4.7
	c2.6,4.2,4.3,8.8,6.2,13.3c1.4,3.4,1.8,7.1,2.6,10.6c0.7,3.1,1.4,6.1,2.1,9.2c0.4,1.8,0.5,3.6,0.8,5.4
	C91.1,131.6,90.9,131.6,90.7,131.7z"/>
<path fill="#414042" d="M40.5,179.7c1.7,3.2,3.3,6.4,4.2,9.9c0.2,0.7,0.5,1.3,0.8,1.9c0.3,0.6,0.6,1.1,0.8,1.7
	c1.2,3.4,2.4,6.9,3.6,10.3c1.8,4.8,3.3,9.8,5.4,14.5c1.3,3,2.3,6.1,3.5,9.2c1.2,3.1,2.5,6.2,3.9,9.2c1.8,3.9,3.8,7.7,5.6,11.5
	c0.5,1,1,2,1.5,3.1c1.5,3,3,5.9,4.6,8.9c0.5,0.9,1.1,1.7,1.4,2.8c-0.4-0.4-0.8-0.8-1.1-1.2c-1.4-1.8-2.6-3.7-4.1-5.4
	c-3.3-3.8-5.2-8.4-7.4-12.9c-1.9-4-3.8-8-5.5-12c-2.6-6-4.7-12.2-6.4-18.5c-0.7-2.8-1.9-5.4-2.9-8.2c-0.8-2.4-1.6-4.8-2.4-7.2
	c-1.8-5.4-3.5-10.9-5.2-16.4C40.7,180.5,40.6,180.1,40.5,179.7z"/>
<path fill="#414042" d="M58.8,239.7c-0.9-1-1.9-1.8-2.6-2.9c-2.6-3.4-5.6-6.5-7.3-10.5c-0.7-1.7-1.7-3.3-1.7-5.3
	c0-0.5-0.4-1.1-0.6-1.6c-0.2-0.7-0.7-1.4-0.7-2.1c0-2.3-0.7-4.4-1.4-6.6c-0.3-1.1-0.5-2.2-0.7-3.3c-0.8-4.6-1.6-9.3-2.5-13.9
	c-0.5-2.8-1.1-5.5-1.7-8.3c-0.2-1.1-0.4-2.2-0.4-3.4c0.2,0.3,0.4,0.6,0.5,1c1.1,3.7,2.2,7.5,3.3,11.2c1.1,3.7,2.3,7.5,3.5,11.2
	c0.3,1,0.6,1.9,0.9,2.9c1.4,4.3,2.8,8.6,4.2,12.9c0.2,0.5,0.3,1.1,0.5,1.6c1.6,4.3,3.3,8.6,5,12.9c0.6,1.4,1.3,2.7,2,4
	C58.9,239.6,58.9,239.7,58.8,239.7z"/>
<path fill="#414042" d="M45.1,170.3c2.4,2.3,4.7,4.9,6.6,7.7c2.6,3.8,5,7.8,6.9,12.1c1.7,3.8,3.6,7.6,5.1,11.6c1.5,4,2.6,8.1,4,12.2
	c1.2,3.5,2.5,7,3.9,10.4c1.2,3.2,2.6,6.3,4,9.4c1.9,4.5,3.8,8.9,5.8,13.3c0.4,0.9,1,1.7,1.5,2.6c1.6,3.2,3.1,6.4,4.7,9.8
	c-0.9-0.4-1.2-1.1-1.6-1.8c-1.2-2.2-2.3-4.5-3.5-6.7c-0.5-0.9-1.2-1.6-1.8-2.4c-0.7-1-1.2-2.1-1.3-3.3c-0.1-0.5-0.2-1-0.5-1.4
	c-0.9-1.5-1.8-2.9-2.1-4.6c-0.1-0.4-0.4-0.8-0.6-1.2c-0.7-1.3-1.5-2.6-2.2-3.9c-0.3-0.6-0.7-1.3-0.7-1.9c-0.1-2-1-3.6-1.9-5.3
	c-0.8-1.4-1.1-3.1-1.7-4.6c-1.3-3.1-2.7-6.2-4-9.3c-0.1-0.3-0.2-0.6-0.3-0.9c-0.5-1.8-1.1-3.6-2.1-5.2c-0.7-1.1-1.2-2.4-1.1-3.8
	c0.1-1.2-0.9-2-1.5-3c-0.9-1.4-1.5-2.7-1.8-4.3c-0.1-0.8-0.6-1.5-1-2.2c-0.8-1.7-2-3.2-2.1-5.2c-0.1-0.8-0.8-1.5-1.2-2.3
	c-0.6-1.1-1.1-2.3-1.7-3.4c-0.4-0.8-0.9-1.5-1.4-2.2c-1.4-2.2-2.7-4.4-4.1-6.6c-0.8-1.2-1.7-2.3-2.5-3.5
	C44.9,170.4,45,170.4,45.1,170.3z"/>
<path fill="#414042" d="M184.1,108.2c2.7,2.9,5.4,5.8,8.1,8.6c1.6,1.7,3.4,3.2,5,4.9c2.2,2.4,4.5,4.7,6.5,7.3
	c2.5,3.3,5,6.5,6.3,10.4c0.9,2.5,1.4,5,1.2,7.7c-0.1,2-0.9,3.8-1.4,5.8c-0.3-1.7-0.7-3.3-1-5c-0.2-1.2-0.5-2.4-1-3.6
	c-1.2-2.6-2.4-5.2-4.3-7.5c-1.7-2.1-3.2-4.3-4.8-6.5c-0.4-0.5-0.6-1.1-0.9-1.6c-0.3-0.4-0.4-0.9-0.8-1.3c-2.4-2.2-3.9-5.1-5.5-7.8
	c-1.9-3.3-4.4-6.3-6.8-9.3c-0.4-0.6-0.8-1.2-1.2-1.8C183.8,108.3,184,108.3,184.1,108.2z"/>
<path fill="#414042" d="M32.4,57.6c0.2,0.4,0.4,0.8,0.6,1.2c2.5,4.7,4.9,9.5,7.5,14.2c1,1.8,2.6,3.2,4,4.7c0.5,0.6,1.1,1.2,1.6,1.8
	c0.8,0.9,1.6,1.7,2.5,2.6c0.7,0.7,1.5,1.4,2.2,2.1c1.3,1.3,2.5,2.6,3.8,3.9c1.9,1.8,3.6,3.8,5.2,6c1,1.4,2.1,2.8,3.2,4.2
	c1,1.2,1.5,2.6,2,4.1c-0.2-0.1-0.4-0.1-0.5-0.1c-3.4-2.9-6.7-5.8-10.1-8.8c-2.2-1.9-4.4-3.8-6.4-5.8c-2.1-2.1-4-4.3-6-6.5
	c-0.3-0.3-0.5-0.6-0.7-0.9c-3.1-5.6-6.3-11.1-7.9-17.3c-0.3-1.1-0.7-2.1-1-3.2c-0.2-0.6-0.3-1.2-0.5-1.8
	C32.2,57.7,32.3,57.7,32.4,57.6z"/>
<path fill="#414042" d="M100.3,167.7c-0.5-2.1-1.1-4.3-1.4-6.4c-0.3-2.2-0.4-4.5-0.4-6.8c0-4.2,0.2-8.3,0.2-12.5
	c0-1.2-0.2-2.4-0.2-3.6c0-4.3,0.1-8.7,0-13c0-1.9-0.4-3.9-0.5-5.8c0-3.5-1-6.8-1.4-10.3c-0.2-1.4-0.4-2.9-0.8-4.2
	c-0.5-1.7-1.2-3.4-2-5c-1.6-3.3-3.4-6.6-5.1-9.9c-0.9-1.8-1.9-3.5-2.9-5.3c-0.1-0.2-0.2-0.5-0.1-0.9c0.3,0.2,0.6,0.5,0.9,0.8
	c3.7,4.7,6.6,9.8,8.5,15.6c0.9,2.6,2,5.2,2.8,7.8c1.7,5.2,2.5,10.7,3.1,16.1c0.4,3,0,5.9-0.3,8.8c-0.1,0.6-0.1,1.3-0.1,1.9
	c-0.1,2.9-0.3,5.8-0.3,8.7c0,1.2,0.3,2.4,0.3,3.6c0,3.6-0.2,7.2-0.2,10.7c0,2.8,0.2,5.5,0.2,8.3c0,0.5,0,1,0,1.5
	C100.5,167.7,100.4,167.7,100.3,167.7z"/>
<path fill="#414042" d="M94.8,284.4c1.5,0.5,2.9,1,4.4,1.5c2.2,0.6,4.3,1.2,6.5,1.8c2.3,0.7,4.6,1.4,6.9,2.1c0.7,0.2,1.3,0.4,2,0.6
	c3.7,1,7.3,2.4,10.9,3.6c2.7,0.8,5.1,2.2,7.2,4c1.9,1.7,3.4,3.6,4.3,6.1c1.3,3.7,2.4,7.4,3.2,11.2c0,0.2,0,0.4-0.2,0.6
	c-0.4-1-0.9-2-1.3-3c-1.4-3.2-3.6-6-6-8.6c-1.9-1.9-4.1-3.3-6.2-4.9c-0.4-0.3-0.8-0.6-1.3-0.8c-3.6-1.7-7.3-3.4-10.9-5.1
	c-2.5-1.2-5.1-2.4-7.7-3.6c-2.1-1-4.3-1.8-6.4-2.7c-1.8-0.8-3.7-1.6-5.5-2.4C94.8,284.6,94.8,284.5,94.8,284.4z"/>
<path fill="#414042" d="M74.2,91.4c0.1,0.2,0.2,0.3,0.2,0.5c0.5,6.7,2,13.2,4.4,19.4c1,2.4,2.3,4.7,3.4,7.1c0.7,1.5,1.4,2.9,2,4.5
	c1.9,4.4,3.7,8.8,5.4,13.3c-0.2-0.2-0.3-0.4-0.5-0.6c-2.1-4-4.6-7.6-7.4-11.1c-2.2-2.7-4.3-5.6-6.7-8.1c-0.2-0.2-0.3-0.4-0.5-0.6
	c-1.7-1.3-2-3.1-2.4-5.1c-0.9-4.5,0.4-8.9,1-13.3c0.2-1.6,0.3-3.1,0.5-4.7c0-0.4,0.1-0.9,0.1-1.3C74,91.4,74.1,91.4,74.2,91.4z"/>
<path fill="#414042" d="M132.3,278.9c-0.4-1.5-0.9-3-1.2-4.5c-0.8-5.1-1.7-10.2-2.3-15.3c-0.6-4.8-0.6-9.5-0.3-14.3
	c0.1-2.1,0.6-4.1,0.9-6.1c0.2-1.2,0.3-2.4,0.6-3.5c0.2-1.1,0.4-2.3,0.7-3.3c0.9-2.7,1.3-5.5,1.5-8.3c0-0.4,0.1-0.8,0.3-1.2
	c0.4,1.2,0.6,2.4,0.4,3.8c-0.2,1.7,0,3.4-0.1,5.1c-0.1,3.8-0.1,7.6-0.5,11.4c-0.4,4.5-0.3,8.9-0.2,13.4c0.1,3,0.1,5.9,0.3,8.8
	c0.1,2.6,0.4,5.3,0.6,7.9c0,0.5,0,1,0,1.5c-0.1,1.6-0.3,3.1-0.5,4.7C132.4,278.9,132.4,278.9,132.3,278.9z"/>
<path fill="#414042" d="M179.8,112.8c1.6,3,3.3,5.9,4.8,8.9c1.5,2.8,3,5.7,4.4,8.5c1.6,3.1,3.2,6.3,4.7,9.4c0.3,0.6,0.7,1.1,1,1.6
	c3.1,5.5,5.5,11.3,6.8,17.5c0.3,1.5,0.6,3.1,0.1,5c-0.4-1.2-0.8-2.2-1.1-3.2c-0.1-0.4-0.2-0.9-0.5-1.2c-1.2-1.8-2.1-3.8-3.1-5.8
	c-1.5-3.2-3-6.3-4.6-9.5c-1.2-2.5-2.4-5-3.6-7.5c-0.1-0.2-0.2-0.5-0.3-0.7c-1-2-1.9-4-2.9-5.9c-1.9-3.6-3.4-7.4-4.4-11.4
	c-0.2-1-0.7-1.9-1-2.9c-0.3-0.9-0.6-1.9-0.8-2.8C179.5,112.8,179.6,112.8,179.8,112.8z"/>
<path fill="#414042" d="M193.2,182c-0.3-1.2-0.4-2-0.6-2.7c-0.4-1.5-0.8-3-1.3-4.5c-0.3-1-0.7-2-1-3c-0.2-0.6-0.5-1.3-0.7-1.9
	c-0.5-1.3-1.2-2.6-1.6-4c-1-3-2.7-5.8-3.2-9c-0.1-0.8-0.6-1.5-0.9-2.3c-0.4-1.1-0.9-2.2-1.3-3.3c-0.1-0.2-0.1-0.5-0.2-0.7
	c-1.9-3.3-2.5-7.1-3.6-10.7c-0.2-0.6-0.6-1.1-0.7-1.7c-0.3-1.5-0.5-3-0.8-4.4c-0.3-1.6-0.8-3.2-1.1-4.8c-0.2-0.7-0.3-1.4-0.2-2.2
	c0.6,1.6,1.4,3.2,1.9,4.8c1.2,3.9,2.7,7.7,4.4,11.4c1.3,2.9,2.1,5.9,3.3,8.8c1.3,3.2,2.4,6.4,4,9.6c1.7,3.4,3.3,6.9,3.9,10.8
	c0.3,1.7,0.7,3.3,0.7,5C194.2,178.8,193.7,180.2,193.2,182z"/>
<path fill="#414042" d="M67.3,121.2c1.3,1.2,2.5,2.4,3.8,3.7c1.8,1.8,3.7,3.6,5.4,5.5c1.1,1.2,2.1,2.5,3.1,3.8
	c1.5,1.9,2.9,3.8,4.4,5.7c1.9,2.5,3.7,5.1,5,8c1.1,2.5,2.3,4.9,3.5,7.3c1.5,3.2,1.9,6.8,3.1,10.1c0.5,1.4,0.9,2.9,1.3,4.3
	c0.2,0.8,0.4,1.7,0.7,2.5c0.2,0.6,0.5,1.2,0.8,1.8c0.3,0.6,1.5,6,1.7,8.2c0,0.1-0.1,0.2-0.3,0.5c-0.5-1.9-0.8-3.6-1.3-5.2
	c-0.9-3-1.6-6-2.8-9c-0.4-1.1-0.7-2.3-1.1-3.5c-1.9-5.2-4.9-9.8-7.5-14.6c-1.3-2.6-2.8-5-4.5-7.4c-1.6-2.5-3.5-4.8-5.3-7.1
	c-0.2-0.2-0.4-0.4-0.5-0.6c-3-4.7-6.6-9-9.7-13.7C67.2,121.5,67.2,121.5,67.3,121.2z"/>
<path fill="#414042" d="M161.3,254.9c-0.5-1-1-2-1.5-3c-0.6-1.1-1.2-2.2-1.8-3.3c-0.2-0.3-0.4-0.7-0.5-1c-0.7-4.3-1.9-8.6-2-13
	c-0.1-2.4-0.6-4.9-0.6-7.3c0.1-3.3,0.5-6.5,0.8-9.8c0.1-0.6,0.2-1.1,0.2-1.7c0-3.4,1.2-6.5,1.7-9.8c0.4-2.5,1-4.9,1.3-7.4
	c0.2-1.3,0.4-2.6,0.9-3.8c0.6-1.4,0.9-3,1.6-4.4c-0.1,1.2-0.3,2.3-0.4,3.5c-0.7,4.2-1.6,8.4-2.1,12.6c-0.5,3.6-0.6,7.2-0.9,10.8
	c-0.1,0.8-0.2,1.6-0.2,2.4c-0.4,4.5,0.1,9.1,0.1,13.6c0,4.2,1.1,8.2,1.4,12.3c0.1,1.3,0.6,2.6,0.9,3.8c0.5,1.8,0.9,3.5,1.4,5.3
	C161.5,254.8,161.4,254.8,161.3,254.9z"/>
<path fill="#414042" d="M180.7,213.4c0-0.7,0-1.4,0-2.1c0.2-3.6,0.4-7.2,0.6-10.7c0-0.3,0-0.6,0-0.9c-0.1-1.9-0.1-3.8-0.2-5.7
	c0-0.5,0.1-1.1-0.1-1.5c-1-2.3-1.3-4.8-1.7-7.3c-0.3-1.8-0.9-3.6-1.4-5.4c-0.8-3.1-1.7-6.2-2.6-9.3c-0.6-2.2-1.3-4.5-2-6.7
	c-1.1-3.6-2.1-7.2-2.5-11c-0.1-0.7-0.3-1.5-0.5-2.2c-0.1-0.6-0.2-1.2,0-1.9c0.1,0.3,0.3,0.6,0.4,1c0.3,2,0.9,4,1.3,6.1
	c0.7,3,1.7,5.9,2.8,8.8c2,4.9,3.1,10.1,4.9,15c0.3,0.9,0.8,1.7,1,2.6c0.9,3.3,1.6,6.7,2.5,10.1c0.8,3.1,1.2,6.2,1,9.3
	c-0.1,1.6-0.5,3.2-0.8,4.8c-0.1,0.4-0.2,0.7-0.3,1.1c-0.3,2.1-1.5,3.9-2,6C180.9,213.4,180.8,213.4,180.7,213.4z"/>
<path fill="#414042" d="M172.7,137.7c0.1,0.2,0.2,0.3,0.2,0.5c0.6,3.5,1.3,7,1.9,10.6c0.1,0.8,0.5,1.5,0.7,2.3
	c1.1,4.2,2.3,8.4,3.7,12.5c0.9,2.7,1.6,5.4,2.4,8.1c0.4,1.4,0.9,2.7,1.5,4.1c1.8,4.6,3.6,9.1,4,14.1c0.1,0.8,0.2,1.6,0.4,2.4
	c0.5,1.6-0.1,2.9-0.7,4.4c-0.1-0.6-0.1-1.2-0.2-1.8c-0.2-0.6-0.5-1.2-0.7-1.8c-0.6-2.5-1.2-5-1.7-7.5c-0.4-1.8-0.8-3.5-1.6-5.2
	c-0.6-1.2-0.8-2.6-1.2-3.9c-0.1-0.4-0.3-0.8-0.4-1.3c-0.4-1.3-0.7-2.5-1.1-3.8c-0.5-1.7-1.1-3.3-1.7-5c-0.4-1.1-0.9-2.2-1.3-3.3
	c-0.2-0.6-0.6-1.2-0.6-1.8c-0.1-1.5-0.6-2.8-1.3-4.1c-0.4-0.8-0.5-1.7-0.7-2.5c-0.3-1.3-0.6-2.7-0.9-4c-0.2-1.2-0.3-2.5-0.5-3.7
	c-0.3-2.3-0.6-4.6-0.9-6.9c-0.1-0.8,0.2-1.6,0.4-2.3C172.5,137.7,172.6,137.7,172.7,137.7z"/>
<path fill="#414042" d="M175.7,138.5c0.5,1.5,1.2,3,1.5,4.6c0.4,1.9,0.9,3.8,1.6,5.6c2.1,5.4,3.9,10.8,6.1,16.2
	c1.7,4.1,3.3,8.1,4.4,12.4c0.4,1.6,0.8,3.2,1.1,4.8c0.5,2.3,0.2,5.4-0.9,7.7c-0.2-1.3-0.4-2.3-0.6-3.3c-0.2-1.1-0.5-2.2-0.6-3.3
	c-0.2-2.9-1.9-5.3-2.9-7.9c-1.7-4-2.6-8.3-3.8-12.4c-0.2-0.8-0.6-1.7-0.9-2.5c0-0.1-0.1-0.2-0.2-0.3c-0.9-3.1-1.8-6.3-2.7-9.4
	c-0.5-1.8-0.9-3.7-1.2-5.5c-0.4-2.1-0.8-4.3-1.3-6.4C175.5,138.6,175.6,138.6,175.7,138.5z"/>
<path fill="#414042" d="M115.3,407.7c0.4-3.4,0.7-6.7,1.1-10.1c0.3-3,1.3-5.7,2-8.6c0.1-0.5,0.1-1,0.1-1.5c-0.1-1.6,0.2-3.1,1.2-4.4
	c0.8-0.9,1.5-1.9,2.1-2.9c0.7-1.2,1.3-2.4,1.9-3.6c0.4-0.7,0.6-1.5,1.3-2.2c0,0.3,0.1,0.5,0.1,0.8c-0.3,2.4-0.8,4.7-0.9,7.1
	c-0.3,4.5-1.8,8.6-3.1,12.8c-1,3.3-2.3,6.5-3.8,9.6c-0.5,1.1-1.2,2-1.8,3C115.5,407.8,115.4,407.8,115.3,407.7z"/>
<path fill="#414042" d="M152.9,291c0,2.1,0,4.3,0,6.4c0,1.4,0.2,2.8,0.2,4.1c0,2.6-0.2,5.3-0.3,7.9c-0.1,4.2-0.1,8.4-0.4,12.6
	c-0.1,2.5-0.5,5-0.9,7.5c-0.3,2.1-0.7,4.2-1.1,6.3c-0.2,1.3-0.7,2.5-1.6,3.7c-0.4-4.2-0.6-8.1-0.1-12c0.2-1.4,0.2-2.9,0.3-4.3
	c0.3-2.6,0.6-5.2,0.9-7.9c0.4-3.6,1-7.2,1.1-10.9c0.1-3.4,0.6-6.8,1-10.1c0.1-0.8,0.1-1.5,0.2-2.3c0-0.4,0.2-0.8,0.3-1.2
	C152.6,290.9,152.7,291,152.9,291z"/>
<path fill="#414042" d="M96.9,422.2c0-0.5-0.1-1,0-1.5c0.4-3.6,0.8-7.3,1.9-10.8c0.7-2.2,1.6-4.4,2.5-6.5c0.9-2.1,1.8-4.3,2.8-6.4
	c0.7-1.3,1.6-2.6,2.4-3.8c0.3-0.5,0.7-1.1,0.9-1.7c0.8-3,2.4-5.6,3.9-8.3c0.8-1.5,1.7-3.1,2.3-4.7c0.1-0.4,0.5-0.7,1-0.9
	c-0.2,0.9-0.5,1.8-0.7,2.6c-0.2,0.8-0.3,1.6-0.5,2.4c-0.6,3-1.6,5.8-2.9,8.6c-1.8,3.8-3.5,7.5-5.3,11.3c-0.8,1.7-1.7,3.4-2.7,5
	c-1.8,3.2-3.1,6.6-3.9,10.2c-0.4,1.6-1,3.1-1.5,4.6C97,422.2,96.9,422.2,96.9,422.2z"/>
<path fill="#414042" d="M103.4,256.9c1.9,3.5,4.7,6.2,7.1,9.3c2,2.5,4.1,4.7,6.2,7.1c1.8,2,3.6,4,5.4,6.1c1,1.1,1.8,2.4,2.8,3.5
	c0.5,0.6,1.2,1,1.7,1.5c1.2,1.4,2.3,2.8,3.3,4.4c-2-1.2-3.8-2.5-5.9-3.5c-3-1.5-5.2-3.9-7.5-6.1c-0.2-0.2-0.4-0.5-0.6-0.7
	c-1.1-1.8-2.3-3.6-3.9-5.1c-0.1-0.1-0.2-0.2-0.2-0.3c-1.3-2.5-2.6-5-4.1-7.4c-0.8-1.3-1.4-2.8-2.3-4.1
	C104.4,260.2,103.8,258.6,103.4,256.9z"/>
<path fill="#414042" d="M169.6,131.1c-0.2-0.7-0.3-1-0.4-1.3c-0.6-2.2-1.7-4-3.2-5.7c-1.7-1.8-3.4-3.5-5.3-5.1
	c-0.4-0.4-0.9-0.7-1.4-1c-3.5-1.9-6.7-4.1-10.4-5.6c-1.3-0.5-2.5-1.5-3.7-2.2c-0.9-0.5-1.9-1-2.9-1.4c-1.5-0.7-3-1.2-4.3-2.4
	c-0.3-0.3-0.8-0.4-1.2-0.5c-1-0.2-1.8-0.7-2.5-1.4c0.1-0.1,0.1-0.3,0.2-0.4c4.3,1.2,8.7,2.4,13,3.7c3.1,0.9,5.8,2.6,8.4,4.5
	c2.8,2.1,5.6,4.1,8.1,6.4c3,2.8,5.3,6.1,5.8,10.3c0,0.3,0.1,0.6,0.1,0.9C169.9,130.5,169.8,130.6,169.6,131.1z"/>
<path fill="#414042" d="M98.6,455.6c-0.2-3.1-0.5-6.2-0.6-9.3c0-1.2,0.3-2.5,0.4-3.7c0.1-0.4,0.2-0.9,0.2-1.3
	c0.1-3.3,1.5-6.2,2.6-9.2c1.4-3.7,2.8-7.4,4.4-11c0.2-0.4,0.3-0.8,0.5-1.2c2.3-3.9,3.6-8.2,5-12.4c0.1-0.2,0.2-0.3,0.4-0.7
	c0.1,0.6,0.2,0.9,0.1,1.1c-0.8,3.7-1.5,7.5-3.2,11c-0.9,1.9-1.7,3.9-2.4,5.9c-1,2.9-1.9,5.8-3,8.7c-0.7,2-1.3,4-1.3,6.2
	c0,1-0.4,2-0.6,2.9c-0.5,3.1-1,6.2-1.5,9.3c-0.2,1.2-0.5,2.4-0.8,3.6C98.9,455.6,98.8,455.6,98.6,455.6z"/>
<path fill="#414042" d="M134.7,353.3c0.7,1.2,1.3,2.4,2,3.6c1.2,2,2.5,3.9,3.6,6c3.1,6,4.5,13.7-0.8,20.4c-0.6,0.8-0.9,1.8-1.5,2.6
	c-2,2.6-4.1,5.1-6.3,7.7c0.3-1.4,0.5-2,1.3-2.9c2-2.3,3.4-5.1,4.9-7.8c0.3-0.6,0.4-1.3,0.5-2c0.3-2.1,0.7-4.2,1-6.3
	c0-0.3,0.1-0.6,0-0.9c-0.6-3.8-1.1-7.6-1.9-11.3c-0.4-2.1-1.4-4-2.1-6c-0.3-0.9-0.6-1.9-0.8-2.8
	C134.6,353.4,134.6,353.3,134.7,353.3z"/>
<path fill="#414042" d="M129.8,365c1.5,5.5,1.2,10.7,0.9,15.8c-0.1,1.8-0.2,3.6-0.9,5.3c-0.1,0.3,0,0.6-0.1,0.9
	c-0.2,0.9-0.2,1.9-0.6,2.7c-0.6,1.4-1.3,2.7-2.1,4c-0.7,1.1-1.6,2.1-2.4,3.1c-0.5,0.7-1.1,1.3-1.9,1.9c0.1-0.4,0.2-0.9,0.3-1.3
	c0.4-1.4,0.9-2.7,1.4-4.1c1-3,1.6-6,2.2-9.1c0.5-2.5,0.7-5,1-7.5c0.4-3,0.7-6.1,1.2-9.1C128.8,366.9,129.3,366.2,129.8,365z"/>
<path fill="#414042" d="M109.6,335.5c1.3,1.8,2.4,3.4,3.4,5c0.9,1.3,1.8,2.6,2.6,3.9c0.9,1.5,1.8,3.2,2.7,4.7
	c1.5,2.4,1.9,5.2,2.6,7.8c0.9,3.6,0.6,7.2,0.2,10.8c-0.1,0.4-0.3,0.9-0.2,1.3c0.6,2.6-1.1,4.7-1.1,7.1c-0.1,0-0.3,0-0.4,0
	c0.1-0.8,0.1-1.7,0.3-2.5c0.4-2.1,0.5-4.2,0-6.4c-0.5-2.1-0.8-4.3-1.2-6.5c-0.4-1.8-0.8-3.7-1.3-5.5c-0.1-0.3-0.2-0.6-0.3-0.9
	c-1.5-3.4-2.9-6.8-4.1-10.3c-0.8-2.2-1.7-4.3-2.8-6.3C109.5,337.3,109.1,336.7,109.6,335.5z"/>
<path fill="#414042" d="M79.7,262.5c-0.3-0.4-0.6-0.8-0.9-1.2c-1-1.5-2-2.9-2.9-4.4c-1.3-2.4-2.4-4.9-3.7-7.4
	c-0.7-1.4-1.6-2.7-2.4-4.1c-0.3-0.5-0.6-1-0.8-1.5c-0.5-2-1.5-3.7-2.6-5.4c-0.4-0.6-0.7-1.3-1-2c-0.5-1.3-1-2.6-1.5-3.9
	c-1.4-3.4-2.9-6.8-4.1-10.3c-1.1-3-2.6-5.7-3.6-8.7c-1.1-3.3-2.9-6.3-3.1-10c0.3,0.3,0.5,0.4,0.6,0.6c1.2,2.8,2.3,5.6,3.5,8.4
	c0.4,1,0.9,1.9,1.3,2.9c1.8,4.5,3.6,9,5.5,13.4c0.1,0.3,0.2,0.6,0.4,0.9c1.8,3.6,3.6,7.2,5.4,10.8c1.3,2.6,2.5,5.2,3.7,7.8
	c0.3,0.6,0.4,1.2,0.5,1.8c0.1,0.4,0.2,0.9,0.4,1.2c1.8,2.8,2.7,6.1,4.5,8.9c0.4,0.6,0.8,1.3,1.1,1.9
	C79.9,262.3,79.8,262.4,79.7,262.5z"/>
<path fill="#414042" d="M98,433.3c0.3-1.8,0.5-3.6,0.9-5.3c0.7-3.1,1.5-6.2,2.3-9.3c0.7-2.5,1.5-4.9,2.3-7.4
	c0.6-1.7,1.4-3.3,2.3-4.9c1.8-3.1,3.5-6.2,4.6-9.6c0.3-1.1,0.8-2,1.8-2.8c-0.2,1.3-0.2,2.7-0.6,4c-1.3,3.9-2.6,7.7-4.1,11.6
	c-1,2.7-2,5.3-3.1,7.9c-0.6,1.4-1.3,2.9-2,4.2c-1,1.8-1.3,3.8-2,5.7c-0.7,2.1-1.4,4.1-2.2,6.2C98.2,433.3,98.1,433.3,98,433.3z"/>
<path fill="#414042" d="M142,297c0-1.1-0.1-1.9-0.1-2.7c0.2-3.5,0.5-7,0.7-10.5c0.2-2.4,0.4-4.7,0.5-7.1c0.1-3.7,0.2-7.4,0.2-11.1
	c0-3.9-0.2-7.9-0.4-11.8c0-0.1,0.1-0.2,0.1-0.4c1.8,2.2,1.9,4.8,2.2,7.4c0.6,5.1,0.6,10.1,0,15.2c-0.3,2.4-0.2,4.9-0.4,7.3
	c-0.2,2.4-0.7,4.9-1.1,7.3c-0.3,1.9-0.8,3.8-1.2,5.7C142.5,296.4,142.3,296.5,142,297z"/>
<path fill="#414042" d="M136,114c0.7,0,1,0,1.3,0.1c0.8,0.4,1.5,0.9,2.3,1.3c2.7,1.7,5.5,3.3,8,5.3c2.4,1.9,5,3.5,6.8,6.2
	c0.7,1.1,1.9,1.8,2.8,2.8c1.1,1.2,2.1,2.5,3,3.9c0.5,0.7,0.8,1.6,1.1,2.4c0.1,0.2,0.1,0.5,0.3,0.7c2.2,3.3,2.4,7.3,3.5,10.9
	c0.3,0.9,0,2-0.2,3c-0.5-1.5-1.2-2.9-1.5-4.4c-0.4-2.2-1.5-4.1-2.5-6.1c-1.8-3.8-4.1-7.3-6.8-10.6c-3.2-3.8-6.9-6.9-10.8-9.9
	c-1.1-0.8-2.1-1.8-3.2-2.6c-1-0.8-2.1-1.4-3.1-2.1C136.8,114.7,136.6,114.5,136,114z"/>
<path fill="#414042" d="M83.3,85.5c0.2,0.4,0.5,0.7,0.7,1.1c1.5,2.7,3,5.4,4.3,8.2c1.7,3.6,3.5,7.1,4.9,10.8
	c0.9,2.4,1.2,5.1,1.6,7.7c0.4,3.2,0.6,6.5,0.9,9.7c0.2,1.9,0.3,3.9,0.3,5.8c0,7.2,0,14.3,0,21.9c-0.7-0.9-0.6-1.6-0.6-2.3
	c0-3.7,0-7.3-0.1-11c0-2.9,0-5.9-0.3-8.8c-0.3-3.4-0.7-6.9-1.3-10.3c-0.7-4.1-1.5-8.2-2.4-12.2c-0.5-2.4-1.2-4.7-2-7
	c-1.4-4.3-4.1-8-5.7-12.2c-0.2-0.4-0.3-0.8-0.5-1.2C83.1,85.6,83.2,85.5,83.3,85.5z"/>
<path fill="#414042" d="M132.5,354.1c0.2,0.6,0.3,1.3,0.5,1.9c0.7,2.4,1.7,4.7,2.2,7.2c0.6,2.9,1.1,5.9,1.3,8.9
	c0.2,2.2,0.2,4.5-0.4,6.7c-0.7,2.3-1.2,4.6-2.6,6.6c-0.1,0.1-0.2,0.3-0.4,0.4c0,0-0.1,0-0.3,0c0-0.9,0-1.7,0.1-2.6
	c0.5-3.7,0.7-7.5,0.6-11.3c0-0.9-0.1-1.8-0.3-2.6c-0.7-2.5-0.7-5.1-0.8-7.7c-0.1-2.3-0.2-4.6-0.3-7c0-0.2,0-0.4,0.1-0.6
	C132.3,354.2,132.4,354.2,132.5,354.1z"/>
<path fill="#414042" d="M108.5,341.4c0.4,1,0.9,1.9,1.3,2.9c1.2,2.9,2.2,5.8,3.4,8.6c1.4,3.2,1.9,6.6,2.9,9.9c0.8,2.6,0.6,5.4,1,8
	c0.1,0.9-0.2,2-0.4,3.3c-0.4-1.7-0.8-3.1-1.2-4.6c-0.1-0.5-0.1-1-0.3-1.5c-0.6-1.4-1.4-2.8-1.9-4.3c-1.3-4.1-3-8.1-3.5-12.5
	c-0.2-2.4-0.9-4.8-1.3-7.2c-0.2-0.8-0.2-1.7-0.3-2.5C108.2,341.4,108.3,341.4,108.5,341.4z"/>
<path fill="#414042" d="M128.5,354.8c-0.3-0.8-0.7-1.4-0.7-2.1c-0.2-2.2-1.1-4.3-1.9-6.3c-0.9-2.2-1.9-4.4-3.4-6.3
	c-2.6-3.4-5.6-6.6-8.4-9.9c-0.5-0.6-1.2-0.9-1.7-1.4c-0.7-0.6-1.3-1.3-2-1.9c0.1-0.1,0.1-0.2,0.2-0.3c0.3,0.1,0.7,0.1,0.9,0.3
	c1.7,1.8,4,2.9,6,4.2c3.6,2.2,6.3,5.3,8.5,8.9c0.7,1.2,1.2,2.6,1.6,4c0.4,1.4,0.7,2.8,1.1,4.2C129.1,350.2,128.8,352.4,128.5,354.8z
	"/>
<path fill="#414042" d="M109.9,329.7c1.8,2,3.6,4,5.3,6c1.3,1.5,2.7,3,3.9,4.6c1.1,1.4,2.1,3,3,4.6c1.3,2.3,1.9,4.9,2.6,7.5
	c0.9,3.2,0.9,6.4,0.3,9.7c-0.2,0.8-0.3,1.7-0.4,2.6c-0.2-0.2-0.3-0.2-0.3-0.3c0.2-6.7-1.5-12.9-4.7-18.7c-1.3-2.4-3-4.6-4.5-6.9
	c-1-1.5-1.9-3.1-2.8-4.6c-0.9-1.4-1.8-2.7-2.6-4C109.7,329.9,109.8,329.8,109.9,329.7z"/>
<path fill="#414042" d="M91.5,119.9c-1.1-3.8-2.4-7.5-2.7-11.5c-0.1-1.8-1.1-3.3-1.8-4.9c-1.2-2.9-2.4-5.8-3.6-8.7
	c-0.2-0.5-0.3-1-0.7-1.3c-1.9-2.2-2.8-4.9-4.3-7.3c-1.1-1.6-2-3.3-2.9-5c-1.1-1.9-2.1-3.9-3.2-5.9c1.1,0.6,1.2,0.8,2,1.9
	c0.7,1,1.5,2,2.4,2.9c0.9,0.9,1.6,1.9,2.1,3.1c0.4,1,1.2,1.7,1.7,2.7c0.5,0.9,0.9,1.8,1.3,2.7c0.6,1.2,1.1,2.4,1.7,3.6
	c1,2,1.9,4.1,3.1,6c1.1,1.7,1.7,3.5,2.1,5.4c0.5,2.2,0.8,4.5,1.3,6.7c0.4,2.1,0.8,4.2,1.3,6.3C91.5,117.6,91.6,118.8,91.5,119.9z"/>
<path fill="#414042" d="M142.8,355c0.4,0.5,0.8,0.9,1.2,1.4c2.3,2.9,5,5.5,6.8,8.8c0.9,1.6,1.9,3.3,2.6,5c0.7,1.9,0.8,3.9,0,5.9
	c-0.1,0.2-0.2,0.5-0.2,0.7c-0.5,3.2-2.2,5.5-4.6,7.6c-1.9,1.6-3.6,3.3-5.7,4.7c0.5-0.6,1-1.3,1.6-1.8c1.9-1.7,3.4-3.7,4.2-6.2
	c0.6-1.7,1.3-3.4,1.9-5.1c0.5-1.2,0.7-2.5,0.5-3.9c-0.3-2.5-0.9-4.9-2.3-7.1c-1.5-2.3-2.6-4.8-4.3-6.9c-0.5-0.6-1-1.3-1.4-2
	c-0.2-0.3-0.4-0.7-0.6-1C142.7,355,142.8,355,142.8,355z"/>
<path fill="#414042" d="M137.6,351.6c2,2.9,4.1,5.8,6.1,8.8c1.3,2,2.7,4,3.5,6.2c1.3,3.3,1.8,6.7,0.2,10.1c-0.1,0.2-0.1,0.3-0.2,0.5
	c-0.9,3.2-2.7,5.8-4.9,8.2c-1,1.1-1.9,2.3-3.1,3.3c1.1-1.7,2.2-3.4,3.4-5c1.6-2.2,2.6-4.5,2.9-7.2c0.3-2.4,0.4-4.9,0-7.3
	c-0.4-2.7-1.6-5.1-2.9-7.5c-1.7-3-3.3-5.9-5-8.9c-0.2-0.3-0.3-0.7-0.4-1C137.4,351.7,137.5,351.6,137.6,351.6z"/>
<path fill="#414042" d="M109,321.6c3.2,1.2,6.5,2.2,9.7,3.6c4.6,2,7.7,5.5,9.5,10.1c0.3,0.7,0.2,1.5,0.4,2.6c-0.8-1-1.4-1.5-1.8-2.2
	c-2.2-3.2-5-5.5-8.4-7.4c-2.1-1.1-3.9-2.7-5.9-4.1c-1.2-0.8-2.4-1.7-3.6-2.5C109,321.7,109,321.7,109,321.6z"/>
<path fill="#414042" d="M130.8,420.9c-0.3,0.6-0.6,1.2-0.9,1.8c-0.5,1-1.2,1.9-1.7,3c-1.1,2.3-3,4-4.5,6c-1.9,2.4-4,4.6-6.2,6.6
	c-0.5,0.5-0.9,1.1-1.3,1.6c-0.3,0.3-0.5,0.8-0.9,0.9c-2.1,1.1-3.4,3.1-5.3,4.4c-0.2,0.2-0.5,0.3-0.9,0.3c1-1.3,1.8-2.6,2.9-3.8
	c1.6-1.8,3.2-3.5,4.6-5.5c0.8-1.2,2.1-2.1,3.2-3.1c1.3-1.2,2.7-2.2,3.9-3.5c1.4-1.5,2.6-3.2,3.9-4.8c1-1.3,2-2.7,2.9-4.1
	C130.6,420.7,130.7,420.8,130.8,420.9z"/>
<path fill="#414042" d="M112.5,427.5c0.3-2.4,0.6-4.9,2.1-6.9c0.3-0.5,0.5-1.1,0.7-1.7c0.8-2.4,2.7-3.9,4.3-5.6
	c0.7-0.8,1.5-1.5,2.1-2.4c1.2-1.6,2.7-2.7,4.6-4.2c-0.4,1.5-1,2.4-1.6,3.3c-1.4,2.3-3,4.5-4.5,6.7c-0.2,0.4-0.6,0.6-0.9,1
	c-1.5,1.8-3.1,3.6-4.5,5.5C113.9,424.4,113.3,426,112.5,427.5z"/>
<path fill="#414042" d="M111,438c0.3-0.6,0.7-1.3,1-1.9c1.3-2.1,2.8-4,4.5-5.8c3.5-3.8,7-7.5,10.5-11.3c0.7-0.8,1.4-1.6,2.1-2.5
	c0.1,0.8-0.3,1.4-0.6,2c-1.1,1.7-2.1,3.4-3.3,5c-1.9,2.5-3.8,5.2-6.4,7.1c-1.1,0.8-1.9,2.2-3,3.1c-1.6,1.3-2.8,3.1-4.3,4.6
	C111.2,438.2,111.1,438.1,111,438z"/>
<path fill="#414042" d="M109.4,425.4c-0.4,1.2-0.9,2.5-1.2,3.7c-0.4,1.5-0.5,3.1-0.9,4.6c-0.6,2.2-0.4,4.6-1,6.8
	c-0.2,0.7-0.4,1.4-0.7,2.1c-0.9,2.2-1.8,4.4-2.7,6.6c-0.7,1.6-1.3,3.2-2,4.8c-0.1,0-0.2-0.1-0.4-0.1c0.3-0.8,0.4-1.6,0.8-2.2
	c0.9-1.7,1.2-3.6,1.4-5.4c0.2-1.5,0.4-3,0.4-4.5c0-1.6,0.8-2.9,1.3-4.3C106,433.3,107.2,429.1,109.4,425.4z"/>
<path fill="#414042" d="M107,318.4c1.2,0.2,2.3,0.3,3.5,0.6c2.6,0.6,5.2,1,7.7,1.8c2.3,0.7,4.5,1.8,6.8,2.7c0.5,0.2,0.9,0.8,1.3,1.2
	c0.5,0.5,0.9,1.1,1.4,1.6c1.9,1.8,2.6,4,2.9,6.5c-0.5-0.9-1-1.7-1.5-2.6c-1.1-1.7-2.5-3-4.2-4.3c-4.1-3.1-8.9-4.2-13.5-6
	c-1.4-0.5-2.9-0.9-4.3-1.3C107,318.6,107,318.5,107,318.4z"/>
<path fill="#414042" d="M113.6,428.7c0.6-0.7,1-1.5,1.7-2.2c2.5-2.7,5.1-5.4,7.6-8.1c0.2-0.2,0.4-0.5,0.5-0.8
	c1.1-2.5,2.8-4.6,4.2-6.8c0.7-1.1,1.2-2.2,1.9-3.3c0.4-0.7,0.9-1.4,1.4-2.1c0.1,0.1,0.2,0.1,0.4,0.2c-1.1,2.3-2,4.6-3.2,6.8
	c-1,1.8-2.3,3.5-3.4,5.2c-0.1,0.2-0.3,0.4-0.5,0.6c-3,2.4-5.2,5.6-7.9,8.3c-0.8,0.8-1.5,1.7-2.2,2.5
	C113.9,428.9,113.8,428.8,113.6,428.7z"/>
<path fill="#414042" d="M129.9,109.9c0.9,0.6,1.9,1.1,2.8,1.7c-0.1,0.1-0.1,0.2-0.2,0.3c-1.1-0.4-2-0.9-2.8-1.7
	C129.8,110.1,129.8,110,129.9,109.9z"/>
</svg>
