<?xml version="1.0" encoding="utf-8"?>
<!-- Generator: Adobe Illustrator 21.0.2, SVG Export Plug-In . SVG Version: 6.00 Build 0)  -->
<!DOCTYPE svg PUBLIC "-//W3C//DTD SVG 1.1//EN" "http://www.w3.org/Graphics/SVG/1.1/DTD/svg11.dtd">
<svg version="1.1" id="Layer_1" xmlns="http://www.w3.org/2000/svg" xmlns:xlink="http://www.w3.org/1999/xlink" x="0px" y="0px"
	 viewBox="0 0 172.7 209.7" enable-background="new 0 0 172.7 209.7" xml:space="preserve">
<g>
	<path fill="#414042" d="M96.2,63.4c0.2-0.1,0.3-0.2,0.5-0.2c-0.3-0.8-0.4-1.6-0.8-2.2c-2-3.2-4-6.5-6.3-9.6
		c-4.2-5.7-9.1-10.9-15.7-13.7c-8.1-3.5-16.3-7-24.8-9.4C37.7,25,25.8,23.2,15.5,16.7c-1.1-0.7-2.3-1.2-3.5-1.9
		c1.2,2.1,2.8,3.8,4.3,5.4c7.1,7.2,16.2,10.6,25.8,12.2c9.8,1.6,19.4,3.7,28.7,7.2c9.7,3.7,17.4,9.8,22.8,18.8
		C94.5,60,95.3,61.7,96.2,63.4z"/>
	<path fill="#414042" d="M93.9,75.1c0.3-0.1,0.5-0.2,0.8-0.2c-2.1-1.6-4.1-3.4-6.3-4.8c-5.2-3.3-10.4-6.9-16-9.5
		c-5.3-2.5-11-4.2-16.6-5.9c-5.5-1.7-11.2-2.9-16.7-4.4c-1.4-0.4-2.7-1.3-4-1.9c1.7,2.2,3.7,3.9,5.8,5.4c2.4,1.7,4.6,3.9,7.3,4.6
		c2.3,0.6,4.4,1.6,6.5,2.5c5,2,10.2,3.6,15.3,5.5C78,69.1,85.9,72.1,93.9,75.1z"/>
	<path fill="#414042" d="M80.2,123.6c0.3,0.8,0.4,1.3,0.6,1.7c3.5,9.5,11.9,14.4,19.1,20.3c4.4,3.5,9.9,5.7,14.4,9.2
		c8.1,6.2,15.7,12.9,23.6,19.4c0.5,0.4,0.9,0.8,1.4,1.2c0.2-0.2,0.4-0.4,0.6-0.6c-3-3.7-5.6-7.8-9.1-11c-5.6-5.1-11.6-9.8-17.6-14.3
		c-3.7-2.8-8.1-4.7-11.9-7.4c-3.1-2.2-5.9-4.8-8.8-7.3C88.4,131.2,84.5,127.6,80.2,123.6z"/>
	<path fill="#414042" d="M97.7,76.1c-0.1-0.7,0-1.1-0.1-1.4c-2.2-4.7-4.3-9.4-6.5-14.1c-4.8-10.4-13.8-16-24.2-19.1
		c-7-2-14.5-2.6-21.8-3.6c-4.1-0.6-8.3-0.7-12.4-1c3.5,1.5,7.1,2.3,10.6,3.2c9.9,2.7,20.1,4.1,29.6,8.5c8.8,4,14.9,10.3,19.8,18.1
		C94.7,69.6,96,72.8,97.7,76.1z"/>
	<path fill="#414042" d="M14.6,12.7c8.1,1.8,15.9,3.1,23.5,5.3c8.8,2.6,17.5,5.5,26,9c8.8,3.5,16.8,8.5,22.9,16.1
		c-2.8-3.6-5.8-7.2-9.1-10.4c-7.8-7.5-17.3-12.5-27.3-16.3C39.1,11.9,26.9,13.2,14.6,12.7z"/>
	<path fill="#414042" d="M60.2,130.8c0,0-0.1,0.6,0.2,0.9c4.1,5.8,8,11.7,12.5,17.2c5.3,6.4,10.6,12.6,14.7,20
		c1.5,2.7,3.5,5.1,5.2,7.6c-0.1-2.3-0.8-4.2-1.3-6.1c-1.2-4.5-0.8-9.4-4.2-13.2c-3-3.4-5.6-7.3-8.9-10.5c-2.2-2.2-5.4-3.4-7.7-5.5
		C67,137.8,63.6,134.1,60.2,130.8z"/>
	<path fill="#414042" d="M136.1,174.8c0,0,0.1-0.1,0.1-0.1c-2.9-2.3-5.7-4.7-8.6-7c-5.2-4.1-10.3-8.3-15.7-12.1
		c-8.7-6.2-17.6-12.1-26.4-18.1c1,0.9,2.1,2,2.8,3.3c3,5.7,7.6,9.9,12.9,13.2c6.3,4,13,7.4,19.5,11.2
		C125.8,168.3,130.9,171.6,136.1,174.8z"/>
	<path fill="#414042" d="M141.3,190.8c0-0.3,0-0.6,0-0.9c-2.7-0.7-5.3-1.5-8.1-1.9c-6.4-1-13-1.1-19.2-2.7
		c-6.9-1.7-13.4-4.7-18.9-9.8c1.4,2.6,3.3,4.8,5.1,7.1c4.5,6,10.8,8.1,17.9,8.2C125.9,190.9,133.6,190.8,141.3,190.8z"/>
	<path fill="#414042" d="M84.5,64c-1.8-1.5-3.4-3.4-5.4-4.4c-7.5-3.7-15-7.5-22.8-10.5c-8.1-3.2-16.5-5.5-24.8-8.3
		c-0.9-0.3-1.8-0.7-2.6-1.1c1.5,2.3,3.2,4.7,5.4,5.6c5.5,2.4,11.2,4.8,17,6.1C63.1,54,74.1,57.9,84.5,64z"/>
	<path fill="#414042" d="M18.7,15.7c7,5,15.2,6.9,23.2,8.8c10.2,2.4,20,5.7,29.6,9.9c2.3,1,4.4,2.4,6.6,3.5
		C60.5,24.7,39.8,19.6,18.7,15.7z"/>
	<path fill="#414042" d="M57.4,81.5c-15.6-8.6-28.1-19.7-31.9-38.2C25.6,67,40.5,78.3,57.4,81.5z"/>
	<path fill="#414042" d="M143.2,184.8c-0.8-1-1.1-1.4-1.4-1.8c-7.4-8-16.9-13-26.3-18.2c-7.4-4.1-15.4-7.6-21.5-13.8
		c-0.2-0.2-0.5-0.4-0.7-0.6C106.7,166,125.3,174.1,143.2,184.8z"/>
	<path fill="#414042" d="M95.8,106.7c0.8,1.8,1.6,3.6,2.3,5.5c2.4,6.1,4.9,12.1,7.3,18.2c2.3,5.9,3.6,12.4,9.5,16.2
		c2.2,1.4,4.2,3.2,6.6,5c-5-8.6-10-16.7-14.6-25c-1.7-3.1-3.1-6.6-3.8-10.1C102.1,111.8,98.6,109.6,95.8,106.7z"/>
	<path fill="#414042" d="M108.8,143.8c-1.2-2.8-2.5-5.3-3.5-7.9c-3-7.8-5.6-15.7-8.8-23.4c-1.4-3.3-3.9-6-5.9-9
		c0.9,3.7,2.4,7,3.5,10.5c1.7,5.3,3.1,10.7,4.8,16C100.7,135.5,102.9,140.8,108.8,143.8z"/>
	<path fill="#414042" d="M94.1,133.3c-4.6-12.7-7.1-26.5-18.7-35.4c3.5,8.1,7.1,16.2,10.4,24.3C87.6,126.7,90.6,130.1,94.1,133.3z"
		/>
	<path fill="#414042" d="M102.6,103.1c0.3-0.2,0.6-0.4,0.9-0.5c-0.4-2.7-0.6-5.5-1.1-8.2c-1-5.1-2.5-10.2-6.7-13.6
		c-3.2-2.6-6.8-4.8-10.6-6.6c-4.5-2.1-9.2-3.5-13.9-5.2c-0.2,0.3-0.4,0.6-0.6,0.8C87.7,74.8,98,86.2,102.6,103.1z"/>
	<path fill="#414042" d="M80.7,143.4c0.3-0.1,0.5-0.2,0.8-0.4c-8.9-16-8.9-34.4-14.3-51.4c0.2,3.1,0.8,6.1,0.7,9.1
		c-0.4,8.2,0.4,16.3,3.6,23.8C74.1,131.1,77.6,137.2,80.7,143.4z"/>
	<path fill="#414042" d="M63.1,81.8c-2.2-3.8-4.3-7.8-6.7-11.5c-2-3.1-3.3-6.5-7.1-8.4c-3.9-1.9-7.3-4.8-11-7.3
		c-0.6-0.4-1.3-0.7-1.9-1.1C45.4,63,52.7,73.9,63.1,81.8z"/>
	<path fill="#414042" d="M130.3,185.4c0.1-0.3,0.2-0.5,0.2-0.8c-14.6-3.6-29.5-6.9-37.5-21.9c0.2,5.3,2.2,9.5,6,12.7
		c5.1,4.2,10.9,6.9,17.5,7.8C121.2,183.7,125.8,184.6,130.3,185.4z"/>
	<path fill="#414042" d="M99.1,137.2c0.1-0.1,0.2-0.2,0.4-0.3c-0.5-1.3-1.2-2.7-1.6-4.1c-2.4-7.4-4.9-14.8-7.1-22.3
		c-2.8-9.3-9.6-14.6-18.1-18.3c1.5,1.8,3.2,3.2,4.9,4.8c6.3,6.1,11.2,13.1,14,21.5c1.8,5.1,3.6,10.2,5.5,15.3
		C97.5,135,98.4,136.1,99.1,137.2z"/>
	<path fill="#414042" d="M140.4,187c0.1-0.2,0.2-0.4,0.3-0.5c-1.6-0.8-3.2-1.6-4.8-2.3c-10-4.8-20.1-9.2-29.8-14.4
		c-4.3-2.3-7.9-6.1-11.3-8.9c4,8.8,11.5,14.5,21.1,17.7c5.8,1.9,11.7,3.5,17.5,5.4C135.7,184.8,138,186,140.4,187z"/>
	<path fill="#414042" d="M90.4,67.4c0.1-0.1,0.2-0.2,0.3-0.3c-2.5-3-4.9-6.1-7.6-9.1c-2.8-3.2-6.1-5.5-10.4-6.9
		c-4.6-1.4-8.8-3.8-13.4-5.5c-2.6-0.9-5.4-1.2-8.1-1.8c-5.1-1.2-10.2-2.4-15.3-3.6c0.4,0.5,0.8,0.7,1.3,0.9c5.6,1.6,11.2,3.1,16.7,5
		c5.9,2,11.7,4.2,17.3,6.8c3.9,1.8,7.5,4.2,10.9,6.8C85.2,62,87.7,64.8,90.4,67.4z"/>
	<path fill="#414042" d="M86.4,169c-7.8-9.9-15.6-19.8-23.7-30C63.8,146.1,74,163.3,86.4,169z"/>
	<path fill="#414042" d="M95,100.4c-7.7-13.2-18-23.7-30.9-31.8c-0.3,0.3-0.5,0.5-0.8,0.8C73.8,79.8,84.4,90.1,95,100.4z"/>
	<path fill="#414042" d="M65.2,92.5c-3.8,17.4-1.9,33.4,11.2,46.7C66.2,125.2,65.3,108.9,65.2,92.5z"/>
	<path fill="#414042" d="M23.9,52.4c-0.4,9,2.7,16.3,7.9,22.8c3.5,4.3,8.6,4.7,14,5.4C28.3,69.4,28.6,65.9,23.9,52.4z"/>
	<path fill="#414042" d="M100.9,105.8C97,88.5,84.9,76,76.2,74.7C86.6,83.1,94.6,93.8,100.9,105.8z"/>
	<path fill="#414042" d="M85.4,125.2c-4.9-11.1-9.6-21.7-14.3-32.2c-0.3,0.2-0.7,0.3-1,0.5C74.2,104.2,74.2,116.9,85.4,125.2z"/>
	<path fill="#414042" d="M52.5,75.5c-8-9.3-15.5-18.1-22.8-26.6C33,60.7,41.6,68.7,52.5,75.5z"/>
	<path fill="#414042" d="M18.6,25.4c1.6,2.3,3,4.8,4.9,6.9c0.9,1,2.4,1.9,3.8,2.1c2.9,0.4,5.8,0.3,8.7,0.6
		c6.3,0.5,12.6,1.2,18.9,1.7C42.3,34.2,29.4,33.2,18.6,25.4z"/>
	<path fill="#414042" d="M58.5,104.6c-4.2,11.7,2.3,28.2,14.7,35.5C63.2,129.8,58.9,118.1,58.5,104.6z"/>
	<path fill="#414042" d="M84.3,94.9C78.8,89,68.6,78.1,58.5,67.2C66.1,79.8,75.5,89,84.3,94.9z"/>
	<path fill="#414042" d="M107.1,120.8c2.6,10.5,9.4,18.6,15.2,27.4C118,138.6,114.3,128.8,107.1,120.8z"/>
	<path fill="#414042" d="M125.8,177.7c-10.6-7.9-23.1-13-32.2-23c2.4,3.4,4.9,7,8.2,9.4c4.4,3.3,9.4,6,14.2,8.7
		C119.2,174.7,122.5,176.1,125.8,177.7z"/>
	<path fill="#414042" d="M75.8,120.5c2.1,10.8,6.4,20.8,12.5,30C85.8,139.8,79.4,130.8,75.8,120.5z"/>
	<path fill="#414042" d="M106.5,191.7c-8.5-6.1-17-12.3-25.6-18.4C88.8,180.2,95.7,188.7,106.5,191.7z"/>
	<path fill="#414042" d="M69,163.8c4.2,9.8,12.4,15.8,21.1,21.3C83,178.1,74.8,172.1,69,163.8z"/>
	<path fill="#414042" d="M90.2,177.1c-7.1-7.5-17-12-22.3-21.3C72.6,165.8,81.4,171.5,90.2,177.1z"/>
	<path fill="#414042" d="M96.2,63.4c-0.9-1.7-1.8-3.4-2.7-5c-5.3-9-13-15.1-22.8-18.8c-9.3-3.5-18.9-5.6-28.7-7.2
		c-9.5-1.6-18.7-5-25.8-12.2c-1.6-1.6-3.1-3.3-4.3-5.4c1.2,0.6,2.4,1.2,3.5,1.9c10.3,6.5,22.2,8.4,33.6,11.6
		c8.5,2.4,16.7,5.9,24.8,9.4c6.6,2.8,11.5,8,15.7,13.7c2.3,3.1,4.2,6.4,6.3,9.6c0.4,0.7,0.6,1.5,0.8,2.2
		C96.6,63.2,96.4,63.3,96.2,63.4z"/>
	<path fill="#414042" d="M93.9,75.1c-7.9-3-15.8-5.9-23.8-8.9c-5.1-1.9-10.3-3.5-15.3-5.5c-2.2-0.9-4.2-1.9-6.5-2.5
		c-2.7-0.7-5-2.9-7.3-4.6c-2.1-1.5-4.1-3.2-5.8-5.4c1.3,0.6,2.6,1.5,4,1.9c5.6,1.5,11.2,2.7,16.7,4.4c5.6,1.7,11.3,3.4,16.6,5.9
		c5.6,2.7,10.7,6.2,16,9.5c2.2,1.4,4.2,3.2,6.3,4.8C94.4,74.9,94.1,75,93.9,75.1z"/>
	<path fill="#414042" d="M80.2,123.6c4.3,4,8.2,7.6,12.2,11.2c2.8,2.5,5.7,5.1,8.8,7.3c3.8,2.7,8.2,4.6,11.9,7.4
		c6.1,4.5,12.1,9.2,17.6,14.3c3.5,3.2,6.1,7.3,9.1,11c-0.2,0.2-0.4,0.4-0.6,0.6c-0.5-0.4-0.9-0.8-1.4-1.2
		c-7.8-6.5-15.5-13.2-23.6-19.4c-4.5-3.5-10-5.6-14.4-9.2c-7.3-5.8-15.7-10.8-19.1-20.3C80.6,124.9,80.5,124.5,80.2,123.6z"/>
	<path fill="#414042" d="M97.7,76.1c-1.7-3.3-3.1-6.5-4.9-9.4c-5-7.8-11.1-14.1-19.8-18.1c-9.5-4.4-19.7-5.8-29.6-8.5
		c-3.5-1-7.1-1.7-10.6-3.2c4.1,0.3,8.3,0.5,12.4,1c7.3,1,14.8,1.5,21.8,3.6c10.4,3,19.3,8.6,24.2,19.1c2.2,4.7,4.4,9.4,6.5,14.1
		C97.8,75,97.7,75.4,97.7,76.1z"/>
	<path fill="#414042" d="M14.6,12.7c12.2,0.5,24.5-0.8,36,3.6c10,3.8,19.5,8.8,27.3,16.3c3.3,3.2,6.2,6.8,9.1,10.4
		C80.9,35.5,72.9,30.6,64.1,27c-8.5-3.4-17.2-6.4-26-9C30.5,15.8,22.7,14.5,14.6,12.7z"/>
	<path fill="#414042" d="M60.2,130.8c3.4,3.3,6.8,7,10.5,10.3c2.3,2.1,5.5,3.3,7.7,5.5c3.2,3.2,5.8,7.1,8.9,10.5
		c3.4,3.8,3,8.8,4.2,13.2c0.5,1.9,1.2,3.8,1.3,6.1c-1.8-2.5-3.8-4.9-5.2-7.6c-4-7.3-9.4-13.6-14.7-20c-4.5-5.5-8.4-11.4-12.5-17.2
		C60.2,131.3,60.2,130.7,60.2,130.8z"/>
	<path fill="#414042" d="M136.1,174.8c-5.1-3.2-10.2-6.5-15.4-9.6c-6.5-3.8-13.2-7.2-19.5-11.2c-5.2-3.3-9.9-7.5-12.9-13.2
		c-0.7-1.3-1.8-2.4-2.8-3.3c8.8,6,17.7,11.9,26.4,18.1c5.4,3.8,10.5,8.1,15.7,12.1c2.9,2.3,5.7,4.6,8.6,7
		C136.1,174.7,136.1,174.7,136.1,174.8z"/>
	<path fill="#414042" d="M141.3,190.8c-7.7,0-15.4,0.1-23.1,0c-7.1-0.2-13.4-2.2-17.9-8.2c-1.7-2.3-3.6-4.5-5.1-7.1
		c5.4,5.1,12,8,18.9,9.8c6.2,1.6,12.8,1.7,19.2,2.7c2.7,0.4,5.4,1.3,8.1,1.9C141.3,190.1,141.3,190.5,141.3,190.8z"/>
	<path fill="#414042" d="M84.5,64c-10.4-6.1-21.4-10-33.1-12.5c-5.8-1.3-11.5-3.7-17-6.1c-2.2-1-3.9-3.4-5.4-5.6
		c0.9,0.4,1.7,0.8,2.6,1.1c8.3,2.7,16.7,5.1,24.8,8.3c7.8,3,15.3,6.8,22.8,10.5C81.2,60.6,82.7,62.5,84.5,64z"/>
	<path fill="#414042" d="M18.7,15.7c21.1,3.9,41.8,8.9,59.5,22.2c-2.2-1.2-4.3-2.6-6.6-3.5c-9.6-4.1-19.4-7.5-29.6-9.9
		C33.9,22.6,25.7,20.7,18.7,15.7z"/>
	<path fill="#414042" d="M57.4,81.5C40.5,78.3,25.6,67,25.6,43.3C29.4,61.8,41.9,72.9,57.4,81.5z"/>
	<path fill="#414042" d="M143.2,184.8c-17.8-10.6-36.5-18.7-49.9-34.4c0.2,0.2,0.5,0.4,0.7,0.6c6.1,6.2,14,9.7,21.5,13.8
		c9.4,5.2,18.9,10.2,26.3,18.2C142.1,183.4,142.4,183.8,143.2,184.8z"/>
	<path fill="#414042" d="M95.8,106.7c2.8,2.9,6.4,5.1,7.2,9.7c0.7,3.5,2.1,7,3.8,10.1c4.6,8.3,9.5,16.5,14.6,25
		c-2.3-1.8-4.3-3.5-6.6-5c-5.9-3.9-7.2-10.3-9.5-16.2c-2.4-6.1-4.8-12.1-7.3-18.2C97.3,110.3,96.5,108.5,95.8,106.7z"/>
	<path fill="#414042" d="M108.8,143.8c-5.9-3-8.1-8.3-9.9-13.9c-1.7-5.3-3.1-10.7-4.8-16c-1.1-3.4-2.7-6.7-3.5-10.5
		c2,3,4.6,5.8,5.9,9c3.2,7.7,5.9,15.6,8.8,23.4C106.3,138.5,107.6,141,108.8,143.8z"/>
	<path fill="#414042" d="M94.1,133.3c-3.4-3.2-6.4-6.6-8.2-11.1c-3.3-8.2-6.9-16.2-10.4-24.3C87,106.7,89.5,120.5,94.1,133.3z"/>
	<path fill="#414042" d="M102.6,103.1c-4.6-16.9-14.9-28.4-32-33.2c0.2-0.3,0.4-0.6,0.6-0.8c4.6,1.7,9.4,3.1,13.9,5.2
		c3.7,1.7,7.4,4,10.6,6.6c4.1,3.4,5.6,8.5,6.7,13.6c0.6,2.7,0.8,5.5,1.1,8.2C103.2,102.7,102.9,102.9,102.6,103.1z"/>
	<path fill="#414042" d="M80.7,143.4c-3.1-6.2-6.5-12.4-9.2-18.8c-3.2-7.6-4-15.6-3.6-23.8c0.1-3-0.5-6.1-0.7-9.1
		c5.4,16.9,5.4,35.4,14.3,51.4C81.2,143.2,80.9,143.3,80.7,143.4z"/>
	<path fill="#414042" d="M63.1,81.8C52.7,73.9,45.4,63,36.4,53.5c0.6,0.4,1.3,0.7,1.9,1.1c3.6,2.5,7.1,5.4,11,7.3
		c3.8,1.8,5.1,5.3,7.1,8.4C58.8,74,60.9,77.9,63.1,81.8z"/>
	<path fill="#414042" d="M130.3,185.4c-4.6-0.8-9.2-1.7-13.8-2.2c-6.6-0.8-12.4-3.6-17.5-7.8c-3.8-3.1-5.8-7.4-6-12.7
		c8,15,22.9,18.3,37.5,21.9C130.5,184.9,130.4,185.1,130.3,185.4z"/>
	<path fill="#414042" d="M99.1,137.2c-0.7-1.1-1.6-2.2-2-3.4c-1.9-5.1-3.8-10.2-5.5-15.3c-2.9-8.4-7.7-15.4-14-21.5
		c-1.6-1.6-3.4-3-4.9-4.8c8.5,3.7,15.3,9,18.1,18.3c2.2,7.5,4.7,14.9,7.1,22.3c0.4,1.4,1.1,2.7,1.6,4.1
		C99.4,137,99.2,137.1,99.1,137.2z"/>
	<path fill="#414042" d="M140.4,187c-2.4-1-4.7-2.2-7.1-3c-5.8-1.9-11.7-3.5-17.5-5.4c-9.6-3.2-17.1-8.9-21.1-17.7
		c3.4,2.7,7,6.6,11.3,8.9c9.7,5.2,19.9,9.7,29.8,14.4c1.6,0.8,3.2,1.6,4.8,2.3C140.6,186.6,140.5,186.8,140.4,187z"/>
	<path fill="#414042" d="M90.4,67.4c-2.7-2.6-5.2-5.4-8.2-7.7c-3.4-2.6-7.1-5-10.9-6.8c-5.6-2.6-11.5-4.8-17.3-6.8
		c-5.5-1.9-11.1-3.3-16.7-5c-0.5-0.1-0.9-0.4-1.3-0.9c5.1,1.2,10.2,2.4,15.3,3.6c2.7,0.6,5.5,0.9,8.1,1.8c4.5,1.6,8.8,4,13.4,5.5
		c4.2,1.3,7.5,3.7,10.4,6.9c2.6,2.9,5,6,7.6,9.1C90.6,67.2,90.5,67.3,90.4,67.4z"/>
	<path fill="#414042" d="M86.4,169c-12.3-5.7-22.5-22.9-23.7-30C70.7,149.2,78.5,159.1,86.4,169z"/>
	<path fill="#414042" d="M95,100.4C84.4,90.1,73.8,79.8,63.2,69.5c0.3-0.3,0.5-0.5,0.8-0.8C76.9,76.7,87.3,87.2,95,100.4z"/>
	<path fill="#414042" d="M65.2,92.5c0.1,16.4,1,32.7,11.2,46.7C63.3,125.9,61.4,109.9,65.2,92.5z"/>
	<path fill="#414042" d="M23.9,52.4c4.7,13.5,4.4,17.1,21.9,28.2c-5.4-0.7-10.6-1.1-14-5.4C26.6,68.7,23.5,61.3,23.9,52.4z"/>
	<path fill="#414042" d="M100.9,105.8c-6.3-12-14.3-22.7-24.7-31.1C84.9,76,97,88.5,100.9,105.8z"/>
	<path fill="#414042" d="M85.4,125.2c-11.1-8.3-11.2-21-15.3-31.8c0.3-0.2,0.7-0.3,1-0.5C75.8,103.5,80.4,114.1,85.4,125.2z"/>
	<path fill="#414042" d="M52.5,75.5c-11-6.8-19.6-14.8-22.8-26.6C37,57.3,44.5,66.1,52.5,75.5z"/>
	<path fill="#414042" d="M18.6,25.4c10.8,7.8,23.7,8.8,36.2,11.3c-6.3-0.6-12.6-1.2-18.9-1.7c-2.9-0.2-5.9-0.1-8.7-0.6
		c-1.3-0.2-2.9-1.1-3.8-2.1C21.6,30.2,20.2,27.7,18.6,25.4z"/>
	<path fill="#414042" d="M58.5,104.6c0.4,13.5,4.7,25.2,14.7,35.5C60.8,132.7,54.3,116.3,58.5,104.6z"/>
	<path fill="#414042" d="M84.3,94.9C75.5,89,66.1,79.8,58.5,67.2C68.6,78.1,78.8,89,84.3,94.9z"/>
	<path fill="#414042" d="M107.1,120.8c7.2,8,10.9,17.9,15.2,27.4C116.6,139.4,109.7,131.3,107.1,120.8z"/>
	<path fill="#414042" d="M125.8,177.7c-3.3-1.6-6.7-3-9.8-4.8c-4.8-2.7-9.8-5.4-14.2-8.7c-3.3-2.5-5.7-6-8.2-9.4
		C102.7,164.8,115.2,169.9,125.8,177.7z"/>
	<path fill="#414042" d="M75.8,120.5c3.6,10.2,10,19.3,12.5,30C82.2,141.3,77.9,131.4,75.8,120.5z"/>
	<path fill="#414042" d="M106.5,191.7c-10.8-2.9-17.7-11.4-25.6-18.4C89.4,179.4,97.9,185.5,106.5,191.7z"/>
	<path fill="#414042" d="M69,163.8c5.8,8.4,14,14.3,21.1,21.3C81.4,179.6,73.3,173.6,69,163.8z"/>
	<path fill="#414042" d="M90.2,177.1c-8.9-5.6-17.6-11.3-22.3-21.3C73.3,165.1,83.2,169.6,90.2,177.1z"/>
</g>
</svg>
